solid OpenSCAD_Model
  facet normal -1 0 0
    outer loop
      vertex -62.75 -14 -6.7
      vertex -62.75 -14 -4.44089e-16
      vertex -62.75 14 -6.7
    endloop
  endfacet
  facet normal -1 0 0
    outer loop
      vertex -62.75 14 -6.7
      vertex -62.75 -14 -4.44089e-16
      vertex -62.75 14 -4.44089e-16
    endloop
  endfacet
  facet normal 0 -1 0
    outer loop
      vertex -60.25 -14 -4.35
      vertex -62.75 -14 -6.7
      vertex -58.75 -14 -6.7
    endloop
  endfacet
  facet normal 0 -1 0
    outer loop
      vertex -60.25 -14 -4.35
      vertex -58.75 -14 -2.01556
      vertex -62.75 -14 -4.44089e-16
    endloop
  endfacet
  facet normal 0 -1 0
    outer loop
      vertex -62.75 -14 -4.44089e-16
      vertex -62.75 -14 -6.7
      vertex -60.25 -14 -4.35
    endloop
  endfacet
  facet normal 0 -1 0
    outer loop
      vertex -58.75 -14 -2
      vertex -62.75 -14 -4.44089e-16
      vertex -58.75 -14 -2.01556
    endloop
  endfacet
  facet normal 0 -1 0
    outer loop
      vertex -58.74 -14 -2
      vertex -62.75 -14 -4.44089e-16
      vertex -58.75 -14 -2
    endloop
  endfacet
  facet normal 0 -1 0
    outer loop
      vertex 58.74 -14 -2
      vertex -62.75 -14 -4.44089e-16
      vertex -58.74 -14 -2
    endloop
  endfacet
  facet normal 0 -1 0
    outer loop
      vertex 58.75 -14 -2
      vertex -62.75 -14 -4.44089e-16
      vertex 58.74 -14 -2
    endloop
  endfacet
  facet normal 0 -1 0
    outer loop
      vertex 62.75 -14 -4.44089e-16
      vertex -62.75 -14 -4.44089e-16
      vertex 58.75 -14 -2
    endloop
  endfacet
  facet normal 0 -1 0
    outer loop
      vertex 60.25 -14 -4.35
      vertex 58.75 -14 -2
      vertex 58.75 -14 -2.01556
    endloop
  endfacet
  facet normal 0 -1 0
    outer loop
      vertex 62.75 -14 -6.7
      vertex 58.75 -14 -2
      vertex 60.25 -14 -4.35
    endloop
  endfacet
  facet normal 0 -1 0
    outer loop
      vertex 58.75 -14 -6.7
      vertex 60.25 -14 -4.35
      vertex 58.75 -14 -6.68444
    endloop
  endfacet
  facet normal 0 -1 0
    outer loop
      vertex 62.75 -14 -6.7
      vertex 60.25 -14 -4.35
      vertex 58.75 -14 -6.7
    endloop
  endfacet
  facet normal 0 -1 0
    outer loop
      vertex 62.75 -14 -4.44089e-16
      vertex 58.75 -14 -2
      vertex 62.75 -14 -6.7
    endloop
  endfacet
  facet normal 0 -1 0
    outer loop
      vertex -58.75 -14 -6.68444
      vertex -60.25 -14 -4.35
      vertex -58.75 -14 -6.7
    endloop
  endfacet
  facet normal 0 0 -1
    outer loop
      vertex -62.75 -14 -6.7
      vertex -62.75 14 -6.7
      vertex -58.75 -14 -6.7
    endloop
  endfacet
  facet normal 0 0 -1
    outer loop
      vertex -58.75 10 -6.7
      vertex -62.75 14 -6.7
      vertex 62.75 14 -6.7
    endloop
  endfacet
  facet normal 0 0 -1
    outer loop
      vertex 58.75 -14 -6.7
      vertex 62.75 14 -6.7
      vertex 62.75 -14 -6.7
    endloop
  endfacet
  facet normal 0 0 -1
    outer loop
      vertex 58.75 10 -6.7
      vertex 62.75 14 -6.7
      vertex 58.75 -14 -6.7
    endloop
  endfacet
  facet normal 0 0 -1
    outer loop
      vertex -58.75 -14 -6.7
      vertex -62.75 14 -6.7
      vertex -58.75 10 -6.7
    endloop
  endfacet
  facet normal 0 0 -1
    outer loop
      vertex -58.75 10 -6.7
      vertex 62.75 14 -6.7
      vertex 58.75 10 -6.7
    endloop
  endfacet
  facet normal 0 1 0
    outer loop
      vertex 11.721 14 -4.44089e-16
      vertex 62.75 14 -6.7
      vertex 11.5078 14 -3.20176
    endloop
  endfacet
  facet normal 0 1 0
    outer loop
      vertex -62.75 14 -6.7
      vertex -62.75 14 -4.44089e-16
      vertex -11.5078 14 -3.20176
    endloop
  endfacet
  facet normal 0 1 0
    outer loop
      vertex -62.75 14 -6.7
      vertex -11.5078 14 -3.20176
      vertex 62.75 14 -6.7
    endloop
  endfacet
  facet normal 0 1 0
    outer loop
      vertex 62.75 14 -6.7
      vertex 11.721 14 -4.44089e-16
      vertex 62.75 14 -4.44089e-16
    endloop
  endfacet
  facet normal 0 1 0
    outer loop
      vertex -11.5078 14 -3.20176
      vertex -62.75 14 -4.44089e-16
      vertex -11.721 14 -4.44089e-16
    endloop
  endfacet
  facet normal 0 1 0
    outer loop
      vertex 11.5078 14 -3.20176
      vertex 62.75 14 -6.7
      vertex -11.5078 14 -3.20176
    endloop
  endfacet
  facet normal 0 0 1
    outer loop
      vertex -21.05 -14 -4.44089e-16
      vertex -62.75 -14 -4.44089e-16
      vertex 62.75 -14 -4.44089e-16
    endloop
  endfacet
  facet normal 0 0 1
    outer loop
      vertex 62.75 14 -4.44089e-16
      vertex 11.721 14 -4.44089e-16
      vertex 62.75 -14 -4.44089e-16
    endloop
  endfacet
  facet normal 0 0 1
    outer loop
      vertex 11.721 14 -4.44089e-16
      vertex 8.02729 4.22051 -4.44089e-16
      vertex 62.75 -14 -4.44089e-16
    endloop
  endfacet
  facet normal 0 0 1
    outer loop
      vertex 0.720463 4.08595 -4.44089e-16
      vertex 1.64003 3.81065 -4.44089e-16
      vertex 8.02729 4.22051 -4.44089e-16
    endloop
  endfacet
  facet normal 0 0 1
    outer loop
      vertex 19.05 -8.90891 -4.44089e-16
      vertex 21.05 -8.90891 -4.44089e-16
      vertex 19.05 -8.90238 -4.44089e-16
    endloop
  endfacet
  facet normal 0 0 1
    outer loop
      vertex 21.05 -14 -4.44089e-16
      vertex -21.05 -14 -4.44089e-16
      vertex 62.75 -14 -4.44089e-16
    endloop
  endfacet
  facet normal 0 0 1
    outer loop
      vertex -62.75 14 -4.44089e-16
      vertex -62.75 -14 -4.44089e-16
      vertex -21.05 -14 -4.44089e-16
    endloop
  endfacet
  facet normal 0 0 1
    outer loop
      vertex -62.75 14 -4.44089e-16
      vertex -21.05 -14 -4.44089e-16
      vertex -21.05 -8.90891 -4.44089e-16
    endloop
  endfacet
  facet normal 0 0 1
    outer loop
      vertex -4.12093 0.481667 -4.44089e-16
      vertex -3.89956 1.41568 -4.44089e-16
      vertex -62.75 14 -4.44089e-16
    endloop
  endfacet
  facet normal 0 0 1
    outer loop
      vertex -62.75 14 -4.44089e-16
      vertex -21.05 -8.90891 -4.44089e-16
      vertex -19.05 -8.90891 -4.44089e-16
    endloop
  endfacet
  facet normal 0 0 1
    outer loop
      vertex -62.75 14 -4.44089e-16
      vertex -19.05 -8.90891 -4.44089e-16
      vertex -19.05 -8.90238 -4.44089e-16
    endloop
  endfacet
  facet normal 0 0 1
    outer loop
      vertex 0.720463 -4.08595 -4.44089e-16
      vertex -19.05 -8.90238 -4.44089e-16
      vertex 19.05 -8.90238 -4.44089e-16
    endloop
  endfacet
  facet normal 0 0 1
    outer loop
      vertex 3.1802 -2.66403 -4.44089e-16
      vertex 21.05 -8.90891 -4.44089e-16
      vertex 62.75 -14 -4.44089e-16
    endloop
  endfacet
  facet normal 0 0 1
    outer loop
      vertex 1.64632 -3.80794 -4.44089e-16
      vertex 19.05 -8.90238 -4.44089e-16
      vertex 21.05 -8.90891 -4.44089e-16
    endloop
  endfacet
  facet normal 0 0 1
    outer loop
      vertex 3.17831 -2.66692 -4.44089e-16
      vertex 2.48011 -3.32563 -4.44089e-16
      vertex 21.05 -8.90891 -4.44089e-16
    endloop
  endfacet
  facet normal 0 0 1
    outer loop
      vertex 3.70767 -1.86206 -4.44089e-16
      vertex 3.1802 -2.66403 -4.44089e-16
      vertex 62.75 -14 -4.44089e-16
    endloop
  endfacet
  facet normal 0 0 1
    outer loop
      vertex -62.75 14 -4.44089e-16
      vertex -4.12093 -0.481667 -4.44089e-16
      vertex -4.12093 0.481667 -4.44089e-16
    endloop
  endfacet
  facet normal 0 0 1
    outer loop
      vertex 4.03715 -0.956822 -4.44089e-16
      vertex 3.70885 -1.85882 -4.44089e-16
      vertex 62.75 -14 -4.44089e-16
    endloop
  endfacet
  facet normal 0 0 1
    outer loop
      vertex -8.02729 4.22051 -4.44089e-16
      vertex -62.75 14 -4.44089e-16
      vertex -3.89956 1.41568 -4.44089e-16
    endloop
  endfacet
  facet normal 0 0 1
    outer loop
      vertex -8.02729 4.22051 -4.44089e-16
      vertex -3.89956 1.41568 -4.44089e-16
      vertex -3.89877 1.41904 -4.44089e-16
    endloop
  endfacet
  facet normal 0 0 1
    outer loop
      vertex -8.02729 4.22051 -4.44089e-16
      vertex -3.89877 1.41904 -4.44089e-16
      vertex -3.46797 2.27682 -4.44089e-16
    endloop
  endfacet
  facet normal 0 0 1
    outer loop
      vertex 4.14898 0 -4.44089e-16
      vertex 4.03755 -0.953397 -4.44089e-16
      vertex 62.75 -14 -4.44089e-16
    endloop
  endfacet
  facet normal 0 0 1
    outer loop
      vertex -8.02729 4.22051 -4.44089e-16
      vertex -3.46797 2.27682 -4.44089e-16
      vertex -3.46643 2.2799 -4.44089e-16
    endloop
  endfacet
  facet normal 0 0 1
    outer loop
      vertex -2.84721 3.01786 -4.44089e-16
      vertex -8.02729 4.22051 -4.44089e-16
      vertex -2.84942 3.01522 -4.44089e-16
    endloop
  endfacet
  facet normal 0 0 1
    outer loop
      vertex 3.70767 1.86206 -4.44089e-16
      vertex 4.03597 0.960062 -4.44089e-16
      vertex 62.75 -14 -4.44089e-16
    endloop
  endfacet
  facet normal 0 0 1
    outer loop
      vertex -2.07726 3.59107 -4.44089e-16
      vertex -8.02729 4.22051 -4.44089e-16
      vertex -2.84721 3.01786 -4.44089e-16
    endloop
  endfacet
  facet normal 0 0 1
    outer loop
      vertex -2.07449 3.59313 -4.44089e-16
      vertex -8.02729 4.22051 -4.44089e-16
      vertex -2.07726 3.59107 -4.44089e-16
    endloop
  endfacet
  facet normal 0 0 1
    outer loop
      vertex -1.19311 3.97332 -4.44089e-16
      vertex -8.02729 4.22051 -4.44089e-16
      vertex -2.07449 3.59313 -4.44089e-16
    endloop
  endfacet
  facet normal 0 0 1
    outer loop
      vertex 1.64333 3.80966 -4.44089e-16
      vertex 2.47462 3.32972 -4.44089e-16
      vertex 8.02729 4.22051 -4.44089e-16
    endloop
  endfacet
  facet normal 0 0 1
    outer loop
      vertex -1.18994 3.97468 -4.44089e-16
      vertex -8.02729 4.22051 -4.44089e-16
      vertex -1.19311 3.97332 -4.44089e-16
    endloop
  endfacet
  facet normal 0 0 1
    outer loop
      vertex 2.4776 -3.328 -4.44089e-16
      vertex 1.64632 -3.80794 -4.44089e-16
      vertex 21.05 -8.90891 -4.44089e-16
    endloop
  endfacet
  facet normal 0 0 1
    outer loop
      vertex -0.244638 4.14137 -4.44089e-16
      vertex -8.02729 4.22051 -4.44089e-16
      vertex -1.18994 3.97468 -4.44089e-16
    endloop
  endfacet
  facet normal 0 0 1
    outer loop
      vertex -0.241242 4.14196 -4.44089e-16
      vertex -8.02729 4.22051 -4.44089e-16
      vertex -0.244638 4.14137 -4.44089e-16
    endloop
  endfacet
  facet normal 0 0 1
    outer loop
      vertex 8.02729 4.22051 -4.44089e-16
      vertex -8.02729 4.22051 -4.44089e-16
      vertex -0.241242 4.14196 -4.44089e-16
    endloop
  endfacet
  facet normal 0 0 1
    outer loop
      vertex 8.02729 4.22051 -4.44089e-16
      vertex 0.717021 4.08615 -4.44089e-16
      vertex 0.720463 4.08595 -4.44089e-16
    endloop
  endfacet
  facet normal 0 0 1
    outer loop
      vertex 4.03715 0.956822 -4.44089e-16
      vertex 4.14858 0.00342499 -4.44089e-16
      vertex 62.75 -14 -4.44089e-16
    endloop
  endfacet
  facet normal 0 0 1
    outer loop
      vertex 8.02729 4.22051 -4.44089e-16
      vertex 1.64003 3.81065 -4.44089e-16
      vertex 1.64333 3.80966 -4.44089e-16
    endloop
  endfacet
  facet normal 0 0 1
    outer loop
      vertex 8.02729 4.22051 -4.44089e-16
      vertex 2.47462 3.32972 -4.44089e-16
      vertex 62.75 -14 -4.44089e-16
    endloop
  endfacet
  facet normal 0 0 1
    outer loop
      vertex 2.47462 3.32972 -4.44089e-16
      vertex 2.4776 3.328 -4.44089e-16
      vertex 62.75 -14 -4.44089e-16
    endloop
  endfacet
  facet normal 0 0 1
    outer loop
      vertex 2.4776 3.328 -4.44089e-16
      vertex 3.1758 2.66928 -4.44089e-16
      vertex 62.75 -14 -4.44089e-16
    endloop
  endfacet
  facet normal 0 0 1
    outer loop
      vertex 3.1758 2.66928 -4.44089e-16
      vertex 3.17831 2.66692 -4.44089e-16
      vertex 62.75 -14 -4.44089e-16
    endloop
  endfacet
  facet normal 0 0 1
    outer loop
      vertex 3.17831 2.66692 -4.44089e-16
      vertex 3.70577 1.86494 -4.44089e-16
      vertex 62.75 -14 -4.44089e-16
    endloop
  endfacet
  facet normal 0 0 1
    outer loop
      vertex 3.70577 1.86494 -4.44089e-16
      vertex 3.70767 1.86206 -4.44089e-16
      vertex 62.75 -14 -4.44089e-16
    endloop
  endfacet
  facet normal 0 0 1
    outer loop
      vertex -0.241242 4.14196 -4.44089e-16
      vertex 0.717021 4.08615 -4.44089e-16
      vertex 8.02729 4.22051 -4.44089e-16
    endloop
  endfacet
  facet normal 0 0 1
    outer loop
      vertex 4.03597 0.960062 -4.44089e-16
      vertex 4.03715 0.956822 -4.44089e-16
      vertex 62.75 -14 -4.44089e-16
    endloop
  endfacet
  facet normal 0 0 1
    outer loop
      vertex 4.14858 0.00342499 -4.44089e-16
      vertex 4.14898 0 -4.44089e-16
      vertex 62.75 -14 -4.44089e-16
    endloop
  endfacet
  facet normal 0 0 1
    outer loop
      vertex -3.46643 2.2799 -4.44089e-16
      vertex -2.84942 3.01522 -4.44089e-16
      vertex -8.02729 4.22051 -4.44089e-16
    endloop
  endfacet
  facet normal 0 0 1
    outer loop
      vertex 4.03755 -0.953397 -4.44089e-16
      vertex 4.03715 -0.956822 -4.44089e-16
      vertex 62.75 -14 -4.44089e-16
    endloop
  endfacet
  facet normal 0 0 1
    outer loop
      vertex 3.70885 -1.85882 -4.44089e-16
      vertex 3.70767 -1.86206 -4.44089e-16
      vertex 62.75 -14 -4.44089e-16
    endloop
  endfacet
  facet normal 0 0 1
    outer loop
      vertex 3.17831 -2.66692 -4.44089e-16
      vertex 21.05 -8.90891 -4.44089e-16
      vertex 3.1802 -2.66403 -4.44089e-16
    endloop
  endfacet
  facet normal 0 0 1
    outer loop
      vertex 2.4776 -3.328 -4.44089e-16
      vertex 21.05 -8.90891 -4.44089e-16
      vertex 2.48011 -3.32563 -4.44089e-16
    endloop
  endfacet
  facet normal 0 0 1
    outer loop
      vertex 1.64333 -3.80966 -4.44089e-16
      vertex 0.723767 -4.08496 -4.44089e-16
      vertex 19.05 -8.90238 -4.44089e-16
    endloop
  endfacet
  facet normal 0 0 1
    outer loop
      vertex 1.64333 -3.80966 -4.44089e-16
      vertex 19.05 -8.90238 -4.44089e-16
      vertex 1.64632 -3.80794 -4.44089e-16
    endloop
  endfacet
  facet normal 0 0 1
    outer loop
      vertex -1.18994 -3.97468 -4.44089e-16
      vertex -2.07133 -3.59449 -4.44089e-16
      vertex -62.75 14 -4.44089e-16
    endloop
  endfacet
  facet normal 0 0 1
    outer loop
      vertex 0.723767 -4.08496 -4.44089e-16
      vertex 0.720463 -4.08595 -4.44089e-16
      vertex 19.05 -8.90238 -4.44089e-16
    endloop
  endfacet
  facet normal 0 0 1
    outer loop
      vertex -0.241242 -4.14196 -4.44089e-16
      vertex -19.05 -8.90238 -4.44089e-16
      vertex -0.237799 -4.14176 -4.44089e-16
    endloop
  endfacet
  facet normal 0 0 1
    outer loop
      vertex -2.07449 -3.59313 -4.44089e-16
      vertex -2.84444 -3.01992 -4.44089e-16
      vertex -62.75 14 -4.44089e-16
    endloop
  endfacet
  facet normal 0 0 1
    outer loop
      vertex -1.18655 -3.97528 -4.44089e-16
      vertex -19.05 -8.90238 -4.44089e-16
      vertex -0.241242 -4.14196 -4.44089e-16
    endloop
  endfacet
  facet normal 0 0 1
    outer loop
      vertex -2.84721 -3.01786 -4.44089e-16
      vertex -3.46421 -2.28255 -4.44089e-16
      vertex -62.75 14 -4.44089e-16
    endloop
  endfacet
  facet normal 0 0 1
    outer loop
      vertex -1.18994 -3.97468 -4.44089e-16
      vertex -19.05 -8.90238 -4.44089e-16
      vertex -1.18655 -3.97528 -4.44089e-16
    endloop
  endfacet
  facet normal 0 0 1
    outer loop
      vertex -62.75 14 -4.44089e-16
      vertex -19.05 -8.90238 -4.44089e-16
      vertex -1.18994 -3.97468 -4.44089e-16
    endloop
  endfacet
  facet normal 0 0 1
    outer loop
      vertex -62.75 14 -4.44089e-16
      vertex -2.07133 -3.59449 -4.44089e-16
      vertex -2.07449 -3.59313 -4.44089e-16
    endloop
  endfacet
  facet normal 0 0 1
    outer loop
      vertex 0.720463 -4.08595 -4.44089e-16
      vertex -0.237799 -4.14176 -4.44089e-16
      vertex -19.05 -8.90238 -4.44089e-16
    endloop
  endfacet
  facet normal 0 0 1
    outer loop
      vertex -62.75 14 -4.44089e-16
      vertex -2.84444 -3.01992 -4.44089e-16
      vertex -2.84721 -3.01786 -4.44089e-16
    endloop
  endfacet
  facet normal 0 0 1
    outer loop
      vertex -3.46643 -2.2799 -4.44089e-16
      vertex -3.89722 -1.42212 -4.44089e-16
      vertex -62.75 14 -4.44089e-16
    endloop
  endfacet
  facet normal 0 0 1
    outer loop
      vertex -62.75 14 -4.44089e-16
      vertex -3.46421 -2.28255 -4.44089e-16
      vertex -3.46643 -2.2799 -4.44089e-16
    endloop
  endfacet
  facet normal 0 0 1
    outer loop
      vertex -62.75 14 -4.44089e-16
      vertex -3.89722 -1.42212 -4.44089e-16
      vertex -3.89877 -1.41904 -4.44089e-16
    endloop
  endfacet
  facet normal 0 0 1
    outer loop
      vertex -62.75 14 -4.44089e-16
      vertex -4.12014 -0.485023 -4.44089e-16
      vertex -4.12093 -0.481667 -4.44089e-16
    endloop
  endfacet
  facet normal 0 0 1
    outer loop
      vertex -62.75 14 -4.44089e-16
      vertex -3.89877 -1.41904 -4.44089e-16
      vertex -4.12014 -0.485023 -4.44089e-16
    endloop
  endfacet
  facet normal 0 0 1
    outer loop
      vertex -8.02729 4.22051 -4.44089e-16
      vertex -11.721 14 -4.44089e-16
      vertex -62.75 14 -4.44089e-16
    endloop
  endfacet
  facet normal 0 0 1
    outer loop
      vertex 21.05 -8.90891 -4.44089e-16
      vertex 21.05 -14 -4.44089e-16
      vertex 62.75 -14 -4.44089e-16
    endloop
  endfacet
  facet normal 1 0 0
    outer loop
      vertex 62.75 -14 -4.44089e-16
      vertex 62.75 -14 -6.7
      vertex 62.75 14 -6.7
    endloop
  endfacet
  facet normal 1 0 0
    outer loop
      vertex 62.75 14 -4.44089e-16
      vertex 62.75 -14 -4.44089e-16
      vertex 62.75 14 -6.7
    endloop
  endfacet
  facet normal -1 0 0
    outer loop
      vertex 58.75 -14 -2
      vertex 58.75 9.99 -2.01556
      vertex 58.75 -14 -2.01556
    endloop
  endfacet
  facet normal -1 0 0
    outer loop
      vertex 58.75 10 -2
      vertex 58.75 9.99 -2.01556
      vertex 58.75 -14 -2
    endloop
  endfacet
  facet normal -1 0 0
    outer loop
      vertex 58.75 9.99 -6.68444
      vertex 58.75 9.99 -2.01556
      vertex 58.75 10 -2
    endloop
  endfacet
  facet normal -1 0 0
    outer loop
      vertex 58.75 9.99 -6.68444
      vertex 58.75 10 -2
      vertex 58.75 10 -6.7
    endloop
  endfacet
  facet normal -1 0 0
    outer loop
      vertex 58.75 9.99 -6.68444
      vertex 58.75 10 -6.7
      vertex 58.75 -14 -6.68444
    endloop
  endfacet
  facet normal -1 0 0
    outer loop
      vertex 58.75 10 -6.7
      vertex 58.75 -14 -6.7
      vertex 58.75 -14 -6.68444
    endloop
  endfacet
  facet normal -0.841295 0 0.540577
    outer loop
      vertex 58.75 -14 -6.68444
      vertex 60.25 -14 -4.35
      vertex 58.75 9.99 -6.68444
    endloop
  endfacet
  facet normal -0.841295 0 0.540577
    outer loop
      vertex 58.75 9.99 -6.68444
      vertex 60.25 -14 -4.35
      vertex 60.25 9.99 -4.35
    endloop
  endfacet
  facet normal -0.841295 0 -0.540577
    outer loop
      vertex 58.75 -14 -2.01556
      vertex 58.75 9.99 -2.01556
      vertex 60.25 -14 -4.35
    endloop
  endfacet
  facet normal -0.841295 0 -0.540577
    outer loop
      vertex 60.25 -14 -4.35
      vertex 58.75 9.99 -2.01556
      vertex 60.25 9.99 -4.35
    endloop
  endfacet
  facet normal 0 0 -1
    outer loop
      vertex 58.75 10 -2
      vertex 58.75 -14 -2
      vertex 58.74 9.99 -2
    endloop
  endfacet
  facet normal 0 0 -1
    outer loop
      vertex 58.75 10 -2
      vertex 58.74 9.99 -2
      vertex -58.75 10 -2
    endloop
  endfacet
  facet normal 0 0 -1
    outer loop
      vertex -58.74 -14 -2
      vertex -58.75 10 -2
      vertex -58.74 9.99 -2
    endloop
  endfacet
  facet normal 0 0 -1
    outer loop
      vertex -0.862049 -2.87945 -2
      vertex 58.74 -14 -2
      vertex -58.74 -14 -2
    endloop
  endfacet
  facet normal 0 0 -1
    outer loop
      vertex -2.51338 -1.6474 -2
      vertex -58.75 10 -2
      vertex -2.82445 -1.02802 -2
    endloop
  endfacet
  facet normal 0 0 -1
    outer loop
      vertex -2.51338 -1.6474 -2
      vertex -58.74 9.99 -2
      vertex -58.75 10 -2
    endloop
  endfacet
  facet normal 0 0 -1
    outer loop
      vertex -58.75 10 -2
      vertex -58.74 -14 -2
      vertex -58.75 -14 -2
    endloop
  endfacet
  facet normal 0 0 -1
    outer loop
      vertex 2.68338 -1.35295 -2
      vertex 58.74 -14 -2
      vertex 2.30251 -1.93204 -2
    endloop
  endfacet
  facet normal 0 0 -1
    outer loop
      vertex -2.98539 0.348943 -2
      vertex -2.98539 -0.348943 -2
      vertex -58.75 10 -2
    endloop
  endfacet
  facet normal 0 0 -1
    outer loop
      vertex 2.92525 0.688423 -2
      vertex 58.74 9.99 -2
      vertex 3.00572 0 -2
    endloop
  endfacet
  facet normal 0 0 -1
    outer loop
      vertex -2.98539 -0.348943 -2
      vertex -2.82555 -1.02337 -2
      vertex -58.75 10 -2
    endloop
  endfacet
  facet normal 0 0 -1
    outer loop
      vertex 58.74 -14 -2
      vertex 2.68338 -1.35295 -2
      vertex 58.74 9.99 -2
    endloop
  endfacet
  facet normal 0 0 -1
    outer loop
      vertex -2.82555 -1.02337 -2
      vertex -2.82445 -1.02802 -2
      vertex -58.75 10 -2
    endloop
  endfacet
  facet normal 0 0 -1
    outer loop
      vertex 2.29904 -1.93531 -2
      vertex 58.74 -14 -2
      vertex 1.79489 -2.41096 -2
    endloop
  endfacet
  facet normal 0 0 -1
    outer loop
      vertex -58.74 9.99 -2
      vertex -2.51338 -1.6474 -2
      vertex -58.74 -14 -2
    endloop
  endfacet
  facet normal 0 0 -1
    outer loop
      vertex -2.51338 -1.6474 -2
      vertex -2.51124 -1.65167 -2
      vertex -58.74 -14 -2
    endloop
  endfacet
  facet normal 0 0 -1
    outer loop
      vertex 1.79075 -2.41334 -2
      vertex 58.74 -14 -2
      vertex 1.1905 -2.7599 -2
    endloop
  endfacet
  facet normal 0 0 -1
    outer loop
      vertex -2.51124 -1.65167 -2
      vertex -2.06572 -2.18262 -2
      vertex -58.74 -14 -2
    endloop
  endfacet
  facet normal 0 0 -1
    outer loop
      vertex -2.06572 -2.18262 -2
      vertex -2.06265 -2.18628 -2
      vertex -58.74 -14 -2
    endloop
  endfacet
  facet normal 0 0 -1
    outer loop
      vertex 1.18593 -2.76127 -2
      vertex 58.74 -14 -2
      vertex 0.521938 -2.96005 -2
    endloop
  endfacet
  facet normal 0 0 -1
    outer loop
      vertex -2.06265 -2.18628 -2
      vertex -1.50669 -2.60017 -2
      vertex -58.74 -14 -2
    endloop
  endfacet
  facet normal 0 0 -1
    outer loop
      vertex -1.50669 -2.60017 -2
      vertex -1.50286 -2.60303 -2
      vertex -58.74 -14 -2
    endloop
  endfacet
  facet normal 0 0 -1
    outer loop
      vertex 0.51717 -2.96033 -2
      vertex 58.74 -14 -2
      vertex -0.174766 -3.00063 -2
    endloop
  endfacet
  facet normal 0 0 -1
    outer loop
      vertex -1.50286 -2.60303 -2
      vertex -0.866434 -2.87755 -2
      vertex -58.74 -14 -2
    endloop
  endfacet
  facet normal 0 0 -1
    outer loop
      vertex -0.866434 -2.87755 -2
      vertex -0.862049 -2.87945 -2
      vertex -58.74 -14 -2
    endloop
  endfacet
  facet normal 0 0 -1
    outer loop
      vertex -0.174766 -3.00063 -2
      vertex 58.74 -14 -2
      vertex -0.179469 -2.9998 -2
    endloop
  endfacet
  facet normal 0 0 -1
    outer loop
      vertex 0.521938 -2.96005 -2
      vertex 58.74 -14 -2
      vertex 0.51717 -2.96033 -2
    endloop
  endfacet
  facet normal 0 0 -1
    outer loop
      vertex 1.1905 -2.7599 -2
      vertex 58.74 -14 -2
      vertex 1.18593 -2.76127 -2
    endloop
  endfacet
  facet normal 0 0 -1
    outer loop
      vertex 1.79489 -2.41096 -2
      vertex 58.74 -14 -2
      vertex 1.79075 -2.41334 -2
    endloop
  endfacet
  facet normal 0 0 -1
    outer loop
      vertex -0.179469 -2.9998 -2
      vertex 58.74 -14 -2
      vertex -0.862049 -2.87945 -2
    endloop
  endfacet
  facet normal 0 0 -1
    outer loop
      vertex 58.74 -14 -2
      vertex 2.29904 -1.93531 -2
      vertex 2.30251 -1.93204 -2
    endloop
  endfacet
  facet normal 0 0 -1
    outer loop
      vertex 58.74 9.99 -2
      vertex 2.68338 -1.35295 -2
      vertex 2.68601 -1.34896 -2
    endloop
  endfacet
  facet normal 0 0 -1
    outer loop
      vertex 58.74 9.99 -2
      vertex 2.68601 -1.34896 -2
      vertex 2.92306 -0.697654 -2
    endloop
  endfacet
  facet normal 0 0 -1
    outer loop
      vertex 58.74 9.99 -2
      vertex 2.92306 -0.697654 -2
      vertex 2.9247 -0.693166 -2
    endloop
  endfacet
  facet normal 0 0 -1
    outer loop
      vertex 58.74 9.99 -2
      vertex 2.9247 -0.693166 -2
      vertex 3.00516 -0.00474327 -2
    endloop
  endfacet
  facet normal 0 0 -1
    outer loop
      vertex 58.74 9.99 -2
      vertex 3.00516 -0.00474327 -2
      vertex 3.00572 0 -2
    endloop
  endfacet
  facet normal 0 0 -1
    outer loop
      vertex -0.169999 3.00035 -2
      vertex -58.75 10 -2
      vertex 0.521938 2.96005 -2
    endloop
  endfacet
  facet normal 0 0 -1
    outer loop
      vertex 58.74 9.99 -2
      vertex 2.92525 0.688423 -2
      vertex 2.9247 0.693166 -2
    endloop
  endfacet
  facet normal 0 0 -1
    outer loop
      vertex 58.74 9.99 -2
      vertex 2.9247 0.693166 -2
      vertex 2.68764 1.34448 -2
    endloop
  endfacet
  facet normal 0 0 -1
    outer loop
      vertex 58.74 9.99 -2
      vertex 2.68764 1.34448 -2
      vertex 2.68601 1.34896 -2
    endloop
  endfacet
  facet normal 0 0 -1
    outer loop
      vertex 58.74 9.99 -2
      vertex 2.68601 1.34896 -2
      vertex 2.30514 1.92805 -2
    endloop
  endfacet
  facet normal 0 0 -1
    outer loop
      vertex 58.74 9.99 -2
      vertex 2.30514 1.92805 -2
      vertex 2.30251 1.93204 -2
    endloop
  endfacet
  facet normal 0 0 -1
    outer loop
      vertex 58.74 9.99 -2
      vertex 2.30251 1.93204 -2
      vertex 1.79836 2.40768 -2
    endloop
  endfacet
  facet normal 0 0 -1
    outer loop
      vertex 58.74 9.99 -2
      vertex 1.79836 2.40768 -2
      vertex 1.79489 2.41096 -2
    endloop
  endfacet
  facet normal 0 0 -1
    outer loop
      vertex 58.74 9.99 -2
      vertex 1.79489 2.41096 -2
      vertex 1.19464 2.75751 -2
    endloop
  endfacet
  facet normal 0 0 -1
    outer loop
      vertex 58.74 9.99 -2
      vertex 1.19464 2.75751 -2
      vertex 1.1905 2.7599 -2
    endloop
  endfacet
  facet normal 0 0 -1
    outer loop
      vertex 58.74 9.99 -2
      vertex 1.1905 2.7599 -2
      vertex 0.526513 2.95868 -2
    endloop
  endfacet
  facet normal 0 0 -1
    outer loop
      vertex 58.74 9.99 -2
      vertex 0.526513 2.95868 -2
      vertex 0.521938 2.96005 -2
    endloop
  endfacet
  facet normal 0 0 -1
    outer loop
      vertex 58.74 9.99 -2
      vertex 0.521938 2.96005 -2
      vertex -58.75 10 -2
    endloop
  endfacet
  facet normal 0 0 -1
    outer loop
      vertex -0.857346 2.88027 -2
      vertex -58.75 10 -2
      vertex -0.174766 3.00063 -2
    endloop
  endfacet
  facet normal 0 0 -1
    outer loop
      vertex -0.169999 3.00035 -2
      vertex -0.174766 3.00063 -2
      vertex -58.75 10 -2
    endloop
  endfacet
  facet normal 0 0 -1
    outer loop
      vertex -1.49847 2.60492 -2
      vertex -58.75 10 -2
      vertex -0.862049 2.87945 -2
    endloop
  endfacet
  facet normal 0 0 -1
    outer loop
      vertex -0.857346 2.88027 -2
      vertex -0.862049 2.87945 -2
      vertex -58.75 10 -2
    endloop
  endfacet
  facet normal 0 0 -1
    outer loop
      vertex -2.05882 2.18913 -2
      vertex -58.75 10 -2
      vertex -1.50286 2.60303 -2
    endloop
  endfacet
  facet normal 0 0 -1
    outer loop
      vertex -1.49847 2.60492 -2
      vertex -1.50286 2.60303 -2
      vertex -58.75 10 -2
    endloop
  endfacet
  facet normal 0 0 -1
    outer loop
      vertex -2.50817 1.65533 -2
      vertex -58.75 10 -2
      vertex -2.06265 2.18628 -2
    endloop
  endfacet
  facet normal 0 0 -1
    outer loop
      vertex -2.05882 2.18913 -2
      vertex -2.06265 2.18628 -2
      vertex -58.75 10 -2
    endloop
  endfacet
  facet normal 0 0 -1
    outer loop
      vertex -2.82231 1.03228 -2
      vertex -58.75 10 -2
      vertex -2.51124 1.65167 -2
    endloop
  endfacet
  facet normal 0 0 -1
    outer loop
      vertex -2.50817 1.65533 -2
      vertex -2.51124 1.65167 -2
      vertex -58.75 10 -2
    endloop
  endfacet
  facet normal 0 0 -1
    outer loop
      vertex -2.82231 1.03228 -2
      vertex -2.82445 1.02802 -2
      vertex -58.75 10 -2
    endloop
  endfacet
  facet normal 0 0 -1
    outer loop
      vertex -2.82445 1.02802 -2
      vertex -2.98429 0.353589 -2
      vertex -58.75 10 -2
    endloop
  endfacet
  facet normal 0 0 -1
    outer loop
      vertex -2.98429 0.353589 -2
      vertex -2.98539 0.348943 -2
      vertex -58.75 10 -2
    endloop
  endfacet
  facet normal 0 0 -1
    outer loop
      vertex 58.74 9.99 -2
      vertex 58.75 -14 -2
      vertex 58.74 -14 -2
    endloop
  endfacet
  facet normal 1 0 0
    outer loop
      vertex -58.75 9.99 -2.01556
      vertex -58.75 10 -2
      vertex -58.75 -14 -2
    endloop
  endfacet
  facet normal 1 0 0
    outer loop
      vertex -58.75 10 -6.7
      vertex -58.75 10 -2
      vertex -58.75 9.99 -2.01556
    endloop
  endfacet
  facet normal 1 0 0
    outer loop
      vertex -58.75 9.99 -6.68444
      vertex -58.75 -14 -6.68444
      vertex -58.75 10 -6.7
    endloop
  endfacet
  facet normal 1 0 0
    outer loop
      vertex -58.75 10 -6.7
      vertex -58.75 9.99 -2.01556
      vertex -58.75 9.99 -6.68444
    endloop
  endfacet
  facet normal 1 0 0
    outer loop
      vertex -58.75 -14 -6.7
      vertex -58.75 10 -6.7
      vertex -58.75 -14 -6.68444
    endloop
  endfacet
  facet normal 1 0 0
    outer loop
      vertex -58.75 -14 -2.01556
      vertex -58.75 9.99 -2.01556
      vertex -58.75 -14 -2
    endloop
  endfacet
  facet normal 0.841295 0 -0.540577
    outer loop
      vertex -60.25 9.99 -4.35
      vertex -58.75 9.99 -2.01556
      vertex -58.75 -14 -2.01556
    endloop
  endfacet
  facet normal 0.841295 0 -0.540577
    outer loop
      vertex -60.25 -14 -4.35
      vertex -60.25 9.99 -4.35
      vertex -58.75 -14 -2.01556
    endloop
  endfacet
  facet normal 0.841295 0 0.540577
    outer loop
      vertex -58.75 -14 -6.68444
      vertex -58.75 9.99 -6.68444
      vertex -60.25 9.99 -4.35
    endloop
  endfacet
  facet normal 0.841295 0 0.540577
    outer loop
      vertex -60.25 -14 -4.35
      vertex -58.75 -14 -6.68444
      vertex -60.25 9.99 -4.35
    endloop
  endfacet
  facet normal 0 -1 0
    outer loop
      vertex 58.75 10 -6.7
      vertex 58.75 10 -2
      vertex -58.75 10 -2
    endloop
  endfacet
  facet normal 0 -1 0
    outer loop
      vertex -58.75 10 -6.7
      vertex 58.75 10 -6.7
      vertex -58.75 10 -2
    endloop
  endfacet
  facet normal -0.933684 0.352657 0.0621829
    outer loop
      vertex 11.5078 14 -3.20176
      vertex 8.02729 4.22051 -4.44089e-16
      vertex 11.721 14 -4.44089e-16
    endloop
  endfacet
  facet normal 0 0.311145 0.950363
    outer loop
      vertex 11.5078 14 -3.20176
      vertex -11.5078 14 -3.20176
      vertex -8.02729 4.22051 -4.44089e-16
    endloop
  endfacet
  facet normal 0 0.311145 0.950363
    outer loop
      vertex 8.02729 4.22051 -4.44089e-16
      vertex 11.5078 14 -3.20176
      vertex -8.02729 4.22051 -4.44089e-16
    endloop
  endfacet
  facet normal 0.933684 0.352657 0.0621829
    outer loop
      vertex -11.5078 14 -3.20176
      vertex -11.721 14 -4.44089e-16
      vertex -8.02729 4.22051 -4.44089e-16
    endloop
  endfacet
  facet normal -1 0 0
    outer loop
      vertex -21.05 -14 0
      vertex -21.05 25.3065 46.8436
      vertex -21.05 -14 -4.44089e-16
    endloop
  endfacet
  facet normal -1 0 0
    outer loop
      vertex -21.05 -14 -4.44089e-16
      vertex -21.05 25.3065 46.8436
      vertex -21.05 28.294 44.3367
    endloop
  endfacet
  facet normal -1 0 0
    outer loop
      vertex -21.05 -14 -4.44089e-16
      vertex -21.05 28.294 44.3367
      vertex -21.05 -8.90891 -4.44089e-16
    endloop
  endfacet
  facet normal 0 -0.642788 -0.766044
    outer loop
      vertex -21.05 -14 0
      vertex -21.05 -14 -4.44089e-16
      vertex 21.05 -14 0
    endloop
  endfacet
  facet normal 0 -0.642788 -0.766044
    outer loop
      vertex 21.05 -14 0
      vertex -21.05 -14 -4.44089e-16
      vertex 21.05 -14 -4.44089e-16
    endloop
  endfacet
  facet normal 1 0 0
    outer loop
      vertex 21.05 25.3065 46.8436
      vertex 21.05 -14 0
      vertex 21.05 -14 -4.44089e-16
    endloop
  endfacet
  facet normal 1 0 0
    outer loop
      vertex 21.05 28.294 44.3367
      vertex 21.05 25.3065 46.8436
      vertex 21.05 -8.90891 -4.44089e-16
    endloop
  endfacet
  facet normal 1 0 0
    outer loop
      vertex 21.05 -8.90891 -4.44089e-16
      vertex 21.05 25.3065 46.8436
      vertex 21.05 -14 -4.44089e-16
    endloop
  endfacet
  facet normal 0 0.766044 -0.642788
    outer loop
      vertex -21.05 -8.90891 -4.44089e-16
      vertex -21.05 28.294 44.3367
      vertex -19.05 -8.90891 -4.44089e-16
    endloop
  endfacet
  facet normal 0 0.766044 -0.642788
    outer loop
      vertex 19.05 26.8016 42.5581
      vertex -21.05 28.294 44.3367
      vertex 21.05 28.294 44.3367
    endloop
  endfacet
  facet normal 0 0.766044 -0.642788
    outer loop
      vertex 19.05 -8.90891 -4.44089e-16
      vertex 21.05 28.294 44.3367
      vertex 21.05 -8.90891 -4.44089e-16
    endloop
  endfacet
  facet normal 0 0.766044 -0.642788
    outer loop
      vertex -19.05 26.8016 42.5581
      vertex -21.05 28.294 44.3367
      vertex 19.05 26.8016 42.5581
    endloop
  endfacet
  facet normal 0 0.766044 -0.642788
    outer loop
      vertex -19.05 -8.90891 -4.44089e-16
      vertex -21.05 28.294 44.3367
      vertex -19.05 26.8016 42.5581
    endloop
  endfacet
  facet normal 0 0.766044 -0.642788
    outer loop
      vertex 19.05 26.8016 42.5581
      vertex 21.05 28.294 44.3367
      vertex 19.05 -8.90891 -4.44089e-16
    endloop
  endfacet
  facet normal -1 0 0
    outer loop
      vertex 19.05 26.8016 42.5581
      vertex 19.05 -8.90891 -4.44089e-16
      vertex 19.05 25.3423 43.7827
    endloop
  endfacet
  facet normal -1 0 0
    outer loop
      vertex 19.05 -9.92987 -1.22451
      vertex 19.05 -8.90891 -4.44089e-16
      vertex 19.05 -8.90238 -4.44089e-16
    endloop
  endfacet
  facet normal -1 0 0
    outer loop
      vertex 19.05 25.3423 43.7827
      vertex 19.05 -8.90891 -4.44089e-16
      vertex 19.05 -9.92987 -1.22451
    endloop
  endfacet
  facet normal -1 0 0
    outer loop
      vertex 19.05 25.3423 43.7827
      vertex 19.05 -9.92987 -1.22451
      vertex 19.05 -11.393 0.00321394
    endloop
  endfacet
  facet normal 0 -0.766044 0.642788
    outer loop
      vertex 19.05 -9.92987 -1.22451
      vertex 19.05 -8.90238 -4.44089e-16
      vertex -19.05 -8.90238 -4.44089e-16
    endloop
  endfacet
  facet normal 0 -0.766044 0.642788
    outer loop
      vertex -19.05 -9.92987 -1.22451
      vertex 19.05 -9.92987 -1.22451
      vertex -19.05 -8.90238 -4.44089e-16
    endloop
  endfacet
  facet normal 1 0 0
    outer loop
      vertex -19.05 -9.92987 -1.22451
      vertex -19.05 -8.90238 -4.44089e-16
      vertex -19.05 -8.90891 -4.44089e-16
    endloop
  endfacet
  facet normal 1 0 0
    outer loop
      vertex -19.05 25.3423 43.7827
      vertex -19.05 -9.92987 -1.22451
      vertex -19.05 -8.90891 -4.44089e-16
    endloop
  endfacet
  facet normal 1 0 0
    outer loop
      vertex -19.05 26.8016 42.5581
      vertex -19.05 25.3423 43.7827
      vertex -19.05 -8.90891 -4.44089e-16
    endloop
  endfacet
  facet normal 1 0 0
    outer loop
      vertex -19.05 25.3423 43.7827
      vertex -19.05 -11.393 0.00321394
      vertex -19.05 -9.92987 -1.22451
    endloop
  endfacet
  facet normal 0.869611 0 0.493738
    outer loop
      vertex -2.98539 -0.348943 -2
      vertex -2.98539 0.348943 -2
      vertex -4.12093 0.481667 -4.44089e-16
    endloop
  endfacet
  facet normal 0.869611 0 0.493738
    outer loop
      vertex -4.12093 -0.481667 -4.44089e-16
      vertex -2.98539 -0.348943 -2
      vertex -4.12093 0.481667 -4.44089e-16
    endloop
  endfacet
  facet normal 0.84617 0.200546 0.493738
    outer loop
      vertex -4.12014 -0.485023 -4.44089e-16
      vertex -2.82555 -1.02337 -2
      vertex -2.98539 -0.348943 -2
    endloop
  endfacet
  facet normal 0.84617 0.200546 0.493738
    outer loop
      vertex -4.12093 -0.481667 -4.44089e-16
      vertex -4.12014 -0.485023 -4.44089e-16
      vertex -2.98539 -0.348943 -2
    endloop
  endfacet
  facet normal 0.84617 0.200546 0.493738
    outer loop
      vertex -3.89877 -1.41904 -4.44089e-16
      vertex -2.82445 -1.02802 -2
      vertex -2.82555 -1.02337 -2
    endloop
  endfacet
  facet normal 0.84617 0.200546 0.493738
    outer loop
      vertex -4.12014 -0.485023 -4.44089e-16
      vertex -3.89877 -1.41904 -4.44089e-16
      vertex -2.82555 -1.02337 -2
    endloop
  endfacet
  facet normal 0.777113 0.390281 0.493738
    outer loop
      vertex -3.89722 -1.42212 -4.44089e-16
      vertex -2.51338 -1.6474 -2
      vertex -2.82445 -1.02802 -2
    endloop
  endfacet
  facet normal 0.777113 0.390281 0.493738
    outer loop
      vertex -3.89877 -1.41904 -4.44089e-16
      vertex -3.89722 -1.42212 -4.44089e-16
      vertex -2.82445 -1.02802 -2
    endloop
  endfacet
  facet normal 0.777113 0.39028 0.493738
    outer loop
      vertex -3.46643 -2.2799 -4.44089e-16
      vertex -2.51124 -1.65167 -2
      vertex -2.51338 -1.6474 -2
    endloop
  endfacet
  facet normal 0.777113 0.39028 0.493738
    outer loop
      vertex -3.89722 -1.42212 -4.44089e-16
      vertex -3.46643 -2.2799 -4.44089e-16
      vertex -2.51338 -1.6474 -2
    endloop
  endfacet
  facet normal 0.666161 0.558975 0.493738
    outer loop
      vertex -3.46421 -2.28255 -4.44089e-16
      vertex -2.06572 -2.18262 -2
      vertex -2.51124 -1.65167 -2
    endloop
  endfacet
  facet normal 0.666161 0.558975 0.493738
    outer loop
      vertex -3.46643 -2.2799 -4.44089e-16
      vertex -3.46421 -2.28255 -4.44089e-16
      vertex -2.51124 -1.65167 -2
    endloop
  endfacet
  facet normal 0.666161 0.558975 0.493738
    outer loop
      vertex -2.84721 -3.01786 -4.44089e-16
      vertex -2.06265 -2.18628 -2
      vertex -2.06572 -2.18262 -2
    endloop
  endfacet
  facet normal 0.666161 0.558975 0.493738
    outer loop
      vertex -3.46421 -2.28255 -4.44089e-16
      vertex -2.84721 -3.01786 -4.44089e-16
      vertex -2.06572 -2.18262 -2
    endloop
  endfacet
  facet normal 0.519295 0.697535 0.493738
    outer loop
      vertex -1.50669 -2.60017 -2
      vertex -2.06265 -2.18628 -2
      vertex -2.84444 -3.01992 -4.44089e-16
    endloop
  endfacet
  facet normal 0.519295 0.697535 0.493738
    outer loop
      vertex -2.84444 -3.01992 -4.44089e-16
      vertex -2.06265 -2.18628 -2
      vertex -2.84721 -3.01786 -4.44089e-16
    endloop
  endfacet
  facet normal 0.519295 0.697535 0.493738
    outer loop
      vertex -1.50286 -2.60303 -2
      vertex -1.50669 -2.60017 -2
      vertex -2.07449 -3.59313 -4.44089e-16
    endloop
  endfacet
  facet normal 0.519295 0.697535 0.493738
    outer loop
      vertex -2.07449 -3.59313 -4.44089e-16
      vertex -1.50669 -2.60017 -2
      vertex -2.84444 -3.01992 -4.44089e-16
    endloop
  endfacet
  facet normal 0.344436 0.79849 0.493738
    outer loop
      vertex -0.866434 -2.87755 -2
      vertex -1.50286 -2.60303 -2
      vertex -2.07133 -3.59449 -4.44089e-16
    endloop
  endfacet
  facet normal 0.344436 0.79849 0.493738
    outer loop
      vertex -2.07133 -3.59449 -4.44089e-16
      vertex -1.50286 -2.60303 -2
      vertex -2.07449 -3.59313 -4.44089e-16
    endloop
  endfacet
  facet normal 0.344436 0.79849 0.493738
    outer loop
      vertex -0.862049 -2.87945 -2
      vertex -0.866434 -2.87755 -2
      vertex -1.18994 -3.97468 -4.44089e-16
    endloop
  endfacet
  facet normal 0.344436 0.79849 0.493738
    outer loop
      vertex -1.18994 -3.97468 -4.44089e-16
      vertex -0.866434 -2.87755 -2
      vertex -2.07133 -3.59449 -4.44089e-16
    endloop
  endfacet
  facet normal 0.151005 0.8564 0.493738
    outer loop
      vertex -0.179469 -2.9998 -2
      vertex -0.862049 -2.87945 -2
      vertex -1.18655 -3.97528 -4.44089e-16
    endloop
  endfacet
  facet normal 0.151005 0.8564 0.493738
    outer loop
      vertex -1.18655 -3.97528 -4.44089e-16
      vertex -0.862049 -2.87945 -2
      vertex -1.18994 -3.97468 -4.44089e-16
    endloop
  endfacet
  facet normal 0.151005 0.8564 0.493738
    outer loop
      vertex -0.174766 -3.00063 -2
      vertex -0.179469 -2.9998 -2
      vertex -0.241242 -4.14196 -4.44089e-16
    endloop
  endfacet
  facet normal 0.151005 0.8564 0.493738
    outer loop
      vertex -0.241242 -4.14196 -4.44089e-16
      vertex -0.179469 -2.9998 -2
      vertex -1.18655 -3.97528 -4.44089e-16
    endloop
  endfacet
  facet normal -0.0505631 0.86814 0.493738
    outer loop
      vertex 0.51717 -2.96033 -2
      vertex -0.174766 -3.00063 -2
      vertex -0.237799 -4.14176 -4.44089e-16
    endloop
  endfacet
  facet normal -0.0505631 0.86814 0.493738
    outer loop
      vertex -0.237799 -4.14176 -4.44089e-16
      vertex -0.174766 -3.00063 -2
      vertex -0.241242 -4.14196 -4.44089e-16
    endloop
  endfacet
  facet normal -0.0505633 0.86814 0.493738
    outer loop
      vertex 0.521938 -2.96005 -2
      vertex 0.51717 -2.96033 -2
      vertex 0.720463 -4.08595 -4.44089e-16
    endloop
  endfacet
  facet normal -0.0505633 0.86814 0.493738
    outer loop
      vertex 0.720463 -4.08595 -4.44089e-16
      vertex 0.51717 -2.96033 -2
      vertex -0.237799 -4.14176 -4.44089e-16
    endloop
  endfacet
  facet normal -0.249408 0.833078 0.493738
    outer loop
      vertex 0.723767 -4.08496 -4.44089e-16
      vertex 1.18593 -2.76127 -2
      vertex 0.720463 -4.08595 -4.44089e-16
    endloop
  endfacet
  facet normal -0.249408 0.833078 0.493738
    outer loop
      vertex 0.720463 -4.08595 -4.44089e-16
      vertex 1.18593 -2.76127 -2
      vertex 0.521938 -2.96005 -2
    endloop
  endfacet
  facet normal -0.249407 0.833078 0.493738
    outer loop
      vertex 1.1905 -2.7599 -2
      vertex 1.18593 -2.76127 -2
      vertex 1.64333 -3.80966 -4.44089e-16
    endloop
  endfacet
  facet normal -0.249407 0.833078 0.493738
    outer loop
      vertex 1.64333 -3.80966 -4.44089e-16
      vertex 1.18593 -2.76127 -2
      vertex 0.723767 -4.08496 -4.44089e-16
    endloop
  endfacet
  facet normal -0.434804 0.753105 0.493738
    outer loop
      vertex 1.64632 -3.80794 -4.44089e-16
      vertex 1.79075 -2.41334 -2
      vertex 1.64333 -3.80966 -4.44089e-16
    endloop
  endfacet
  facet normal -0.434804 0.753105 0.493738
    outer loop
      vertex 1.64333 -3.80966 -4.44089e-16
      vertex 1.79075 -2.41334 -2
      vertex 1.1905 -2.7599 -2
    endloop
  endfacet
  facet normal -0.434805 0.753105 0.493738
    outer loop
      vertex 1.79489 -2.41096 -2
      vertex 1.79075 -2.41334 -2
      vertex 2.4776 -3.328 -4.44089e-16
    endloop
  endfacet
  facet normal -0.434805 0.753105 0.493738
    outer loop
      vertex 2.4776 -3.328 -4.44089e-16
      vertex 1.79075 -2.41334 -2
      vertex 1.64632 -3.80794 -4.44089e-16
    endloop
  endfacet
  facet normal -0.596764 0.632532 0.493738
    outer loop
      vertex 2.48011 -3.32563 -4.44089e-16
      vertex 2.29904 -1.93531 -2
      vertex 2.4776 -3.328 -4.44089e-16
    endloop
  endfacet
  facet normal -0.596764 0.632532 0.493738
    outer loop
      vertex 2.4776 -3.328 -4.44089e-16
      vertex 2.29904 -1.93531 -2
      vertex 1.79489 -2.41096 -2
    endloop
  endfacet
  facet normal -0.596763 0.632532 0.493738
    outer loop
      vertex 3.17831 -2.66692 -4.44089e-16
      vertex 2.30251 -1.93204 -2
      vertex 2.48011 -3.32563 -4.44089e-16
    endloop
  endfacet
  facet normal -0.596763 0.632532 0.493738
    outer loop
      vertex 2.48011 -3.32563 -4.44089e-16
      vertex 2.30251 -1.93204 -2
      vertex 2.29904 -1.93531 -2
    endloop
  endfacet
  facet normal -0.726549 0.477859 0.493738
    outer loop
      vertex 3.1802 -2.66403 -4.44089e-16
      vertex 2.68338 -1.35295 -2
      vertex 3.17831 -2.66692 -4.44089e-16
    endloop
  endfacet
  facet normal -0.726549 0.477859 0.493738
    outer loop
      vertex 3.17831 -2.66692 -4.44089e-16
      vertex 2.68338 -1.35295 -2
      vertex 2.30251 -1.93204 -2
    endloop
  endfacet
  facet normal -0.726549 0.477859 0.493738
    outer loop
      vertex 3.70767 -1.86206 -4.44089e-16
      vertex 2.68601 -1.34896 -2
      vertex 3.1802 -2.66403 -4.44089e-16
    endloop
  endfacet
  facet normal -0.726549 0.477859 0.493738
    outer loop
      vertex 3.1802 -2.66403 -4.44089e-16
      vertex 2.68601 -1.34896 -2
      vertex 2.68338 -1.35295 -2
    endloop
  endfacet
  facet normal -0.817167 0.297425 0.493738
    outer loop
      vertex 3.70885 -1.85882 -4.44089e-16
      vertex 2.92306 -0.697654 -2
      vertex 3.70767 -1.86206 -4.44089e-16
    endloop
  endfacet
  facet normal -0.817167 0.297425 0.493738
    outer loop
      vertex 3.70767 -1.86206 -4.44089e-16
      vertex 2.92306 -0.697654 -2
      vertex 2.68601 -1.34896 -2
    endloop
  endfacet
  facet normal -0.817167 0.297425 0.493738
    outer loop
      vertex 4.03715 -0.956822 -4.44089e-16
      vertex 2.9247 -0.693166 -2
      vertex 3.70885 -1.85882 -4.44089e-16
    endloop
  endfacet
  facet normal -0.817167 0.297425 0.493738
    outer loop
      vertex 3.70885 -1.85882 -4.44089e-16
      vertex 2.9247 -0.693166 -2
      vertex 2.92306 -0.697654 -2
    endloop
  endfacet
  facet normal -0.863731 0.100955 0.493738
    outer loop
      vertex 4.03755 -0.953397 -4.44089e-16
      vertex 3.00516 -0.00474327 -2
      vertex 4.03715 -0.956822 -4.44089e-16
    endloop
  endfacet
  facet normal -0.863731 0.100955 0.493738
    outer loop
      vertex 4.03715 -0.956822 -4.44089e-16
      vertex 3.00516 -0.00474327 -2
      vertex 2.9247 -0.693166 -2
    endloop
  endfacet
  facet normal -0.863731 0.100956 0.493738
    outer loop
      vertex 4.14898 0 -4.44089e-16
      vertex 3.00572 0 -2
      vertex 4.03755 -0.953397 -4.44089e-16
    endloop
  endfacet
  facet normal -0.863731 0.100956 0.493738
    outer loop
      vertex 4.03755 -0.953397 -4.44089e-16
      vertex 3.00572 0 -2
      vertex 3.00516 -0.00474327 -2
    endloop
  endfacet
  facet normal -0.863731 -0.100955 0.493738
    outer loop
      vertex 4.14898 0 -4.44089e-16
      vertex 4.14858 0.00342499 -4.44089e-16
      vertex 3.00572 0 -2
    endloop
  endfacet
  facet normal -0.863731 -0.100955 0.493738
    outer loop
      vertex 3.00572 0 -2
      vertex 4.14858 0.00342499 -4.44089e-16
      vertex 2.92525 0.688423 -2
    endloop
  endfacet
  facet normal -0.863731 -0.100956 0.493738
    outer loop
      vertex 4.14858 0.00342499 -4.44089e-16
      vertex 4.03715 0.956822 -4.44089e-16
      vertex 2.92525 0.688423 -2
    endloop
  endfacet
  facet normal -0.863731 -0.100956 0.493738
    outer loop
      vertex 2.92525 0.688423 -2
      vertex 4.03715 0.956822 -4.44089e-16
      vertex 2.9247 0.693166 -2
    endloop
  endfacet
  facet normal -0.817167 -0.297425 0.493738
    outer loop
      vertex 4.03715 0.956822 -4.44089e-16
      vertex 4.03597 0.960062 -4.44089e-16
      vertex 2.9247 0.693166 -2
    endloop
  endfacet
  facet normal -0.817167 -0.297425 0.493738
    outer loop
      vertex 2.9247 0.693166 -2
      vertex 4.03597 0.960062 -4.44089e-16
      vertex 2.68764 1.34448 -2
    endloop
  endfacet
  facet normal -0.817167 -0.297424 0.493738
    outer loop
      vertex 4.03597 0.960062 -4.44089e-16
      vertex 3.70767 1.86206 -4.44089e-16
      vertex 2.68764 1.34448 -2
    endloop
  endfacet
  facet normal -0.817167 -0.297424 0.493738
    outer loop
      vertex 2.68764 1.34448 -2
      vertex 3.70767 1.86206 -4.44089e-16
      vertex 2.68601 1.34896 -2
    endloop
  endfacet
  facet normal -0.726549 -0.47786 0.493738
    outer loop
      vertex 3.70767 1.86206 -4.44089e-16
      vertex 3.70577 1.86494 -4.44089e-16
      vertex 2.68601 1.34896 -2
    endloop
  endfacet
  facet normal -0.726549 -0.47786 0.493738
    outer loop
      vertex 2.68601 1.34896 -2
      vertex 3.70577 1.86494 -4.44089e-16
      vertex 2.30514 1.92805 -2
    endloop
  endfacet
  facet normal -0.726549 -0.477859 0.493738
    outer loop
      vertex 3.70577 1.86494 -4.44089e-16
      vertex 3.17831 2.66692 -4.44089e-16
      vertex 2.30514 1.92805 -2
    endloop
  endfacet
  facet normal -0.726549 -0.477859 0.493738
    outer loop
      vertex 2.30514 1.92805 -2
      vertex 3.17831 2.66692 -4.44089e-16
      vertex 2.30251 1.93204 -2
    endloop
  endfacet
  facet normal -0.596764 -0.632531 0.493738
    outer loop
      vertex 2.30251 1.93204 -2
      vertex 3.17831 2.66692 -4.44089e-16
      vertex 3.1758 2.66928 -4.44089e-16
    endloop
  endfacet
  facet normal -0.596764 -0.632531 0.493738
    outer loop
      vertex 1.79836 2.40768 -2
      vertex 2.30251 1.93204 -2
      vertex 3.1758 2.66928 -4.44089e-16
    endloop
  endfacet
  facet normal -0.596763 -0.632532 0.493738
    outer loop
      vertex 1.79836 2.40768 -2
      vertex 3.1758 2.66928 -4.44089e-16
      vertex 2.4776 3.328 -4.44089e-16
    endloop
  endfacet
  facet normal -0.596763 -0.632532 0.493738
    outer loop
      vertex 1.79489 2.41096 -2
      vertex 1.79836 2.40768 -2
      vertex 2.4776 3.328 -4.44089e-16
    endloop
  endfacet
  facet normal -0.434804 -0.753106 0.493738
    outer loop
      vertex 1.79489 2.41096 -2
      vertex 2.4776 3.328 -4.44089e-16
      vertex 2.47462 3.32972 -4.44089e-16
    endloop
  endfacet
  facet normal -0.434804 -0.753106 0.493738
    outer loop
      vertex 1.19464 2.75751 -2
      vertex 1.79489 2.41096 -2
      vertex 2.47462 3.32972 -4.44089e-16
    endloop
  endfacet
  facet normal -0.434805 -0.753105 0.493738
    outer loop
      vertex 1.19464 2.75751 -2
      vertex 2.47462 3.32972 -4.44089e-16
      vertex 1.64333 3.80966 -4.44089e-16
    endloop
  endfacet
  facet normal -0.434805 -0.753105 0.493738
    outer loop
      vertex 1.1905 2.7599 -2
      vertex 1.19464 2.75751 -2
      vertex 1.64333 3.80966 -4.44089e-16
    endloop
  endfacet
  facet normal -0.249407 -0.833078 0.493738
    outer loop
      vertex 1.1905 2.7599 -2
      vertex 1.64333 3.80966 -4.44089e-16
      vertex 1.64003 3.81065 -4.44089e-16
    endloop
  endfacet
  facet normal -0.249407 -0.833078 0.493738
    outer loop
      vertex 0.526513 2.95868 -2
      vertex 1.1905 2.7599 -2
      vertex 1.64003 3.81065 -4.44089e-16
    endloop
  endfacet
  facet normal -0.249407 -0.833078 0.493738
    outer loop
      vertex 0.526513 2.95868 -2
      vertex 1.64003 3.81065 -4.44089e-16
      vertex 0.720463 4.08595 -4.44089e-16
    endloop
  endfacet
  facet normal -0.249407 -0.833078 0.493738
    outer loop
      vertex 0.521938 2.96005 -2
      vertex 0.526513 2.95868 -2
      vertex 0.720463 4.08595 -4.44089e-16
    endloop
  endfacet
  facet normal -0.0505631 -0.86814 0.493738
    outer loop
      vertex 0.521938 2.96005 -2
      vertex 0.720463 4.08595 -4.44089e-16
      vertex 0.717021 4.08615 -4.44089e-16
    endloop
  endfacet
  facet normal -0.0505631 -0.86814 0.493738
    outer loop
      vertex -0.169999 3.00035 -2
      vertex 0.521938 2.96005 -2
      vertex 0.717021 4.08615 -4.44089e-16
    endloop
  endfacet
  facet normal -0.0505633 -0.86814 0.493738
    outer loop
      vertex -0.174766 3.00063 -2
      vertex -0.169999 3.00035 -2
      vertex 0.717021 4.08615 -4.44089e-16
    endloop
  endfacet
  facet normal -0.0505633 -0.86814 0.493738
    outer loop
      vertex -0.241242 4.14196 -4.44089e-16
      vertex -0.174766 3.00063 -2
      vertex 0.717021 4.08615 -4.44089e-16
    endloop
  endfacet
  facet normal 0.151005 -0.8564 0.493738
    outer loop
      vertex -0.174766 3.00063 -2
      vertex -0.241242 4.14196 -4.44089e-16
      vertex -0.244638 4.14137 -4.44089e-16
    endloop
  endfacet
  facet normal 0.151005 -0.8564 0.493738
    outer loop
      vertex -0.857346 2.88027 -2
      vertex -0.174766 3.00063 -2
      vertex -0.244638 4.14137 -4.44089e-16
    endloop
  endfacet
  facet normal 0.151005 -0.8564 0.493738
    outer loop
      vertex -0.862049 2.87945 -2
      vertex -0.857346 2.88027 -2
      vertex -0.244638 4.14137 -4.44089e-16
    endloop
  endfacet
  facet normal 0.151005 -0.8564 0.493738
    outer loop
      vertex -1.18994 3.97468 -4.44089e-16
      vertex -0.862049 2.87945 -2
      vertex -0.244638 4.14137 -4.44089e-16
    endloop
  endfacet
  facet normal 0.344436 -0.79849 0.493738
    outer loop
      vertex -0.862049 2.87945 -2
      vertex -1.18994 3.97468 -4.44089e-16
      vertex -1.19311 3.97332 -4.44089e-16
    endloop
  endfacet
  facet normal 0.344436 -0.79849 0.493738
    outer loop
      vertex -1.49847 2.60492 -2
      vertex -0.862049 2.87945 -2
      vertex -1.19311 3.97332 -4.44089e-16
    endloop
  endfacet
  facet normal 0.344436 -0.79849 0.493738
    outer loop
      vertex -1.50286 2.60303 -2
      vertex -1.49847 2.60492 -2
      vertex -1.19311 3.97332 -4.44089e-16
    endloop
  endfacet
  facet normal 0.344436 -0.79849 0.493738
    outer loop
      vertex -2.07449 3.59313 -4.44089e-16
      vertex -1.50286 2.60303 -2
      vertex -1.19311 3.97332 -4.44089e-16
    endloop
  endfacet
  facet normal 0.519295 -0.697535 0.493738
    outer loop
      vertex -2.05882 2.18913 -2
      vertex -1.50286 2.60303 -2
      vertex -2.07449 3.59313 -4.44089e-16
    endloop
  endfacet
  facet normal 0.519295 -0.697535 0.493738
    outer loop
      vertex -2.07726 3.59107 -4.44089e-16
      vertex -2.05882 2.18913 -2
      vertex -2.07449 3.59313 -4.44089e-16
    endloop
  endfacet
  facet normal 0.519295 -0.697535 0.493738
    outer loop
      vertex -2.06265 2.18628 -2
      vertex -2.05882 2.18913 -2
      vertex -2.07726 3.59107 -4.44089e-16
    endloop
  endfacet
  facet normal 0.519295 -0.697535 0.493738
    outer loop
      vertex -2.84721 3.01786 -4.44089e-16
      vertex -2.06265 2.18628 -2
      vertex -2.07726 3.59107 -4.44089e-16
    endloop
  endfacet
  facet normal 0.666161 -0.558975 0.493738
    outer loop
      vertex -2.50817 1.65533 -2
      vertex -2.06265 2.18628 -2
      vertex -2.84721 3.01786 -4.44089e-16
    endloop
  endfacet
  facet normal 0.666161 -0.558975 0.493738
    outer loop
      vertex -2.84942 3.01522 -4.44089e-16
      vertex -2.50817 1.65533 -2
      vertex -2.84721 3.01786 -4.44089e-16
    endloop
  endfacet
  facet normal 0.666161 -0.558975 0.493738
    outer loop
      vertex -2.51124 1.65167 -2
      vertex -2.50817 1.65533 -2
      vertex -2.84942 3.01522 -4.44089e-16
    endloop
  endfacet
  facet normal 0.666161 -0.558975 0.493738
    outer loop
      vertex -3.46643 2.2799 -4.44089e-16
      vertex -2.51124 1.65167 -2
      vertex -2.84942 3.01522 -4.44089e-16
    endloop
  endfacet
  facet normal 0.777112 -0.390281 0.493738
    outer loop
      vertex -2.82231 1.03228 -2
      vertex -2.51124 1.65167 -2
      vertex -3.46643 2.2799 -4.44089e-16
    endloop
  endfacet
  facet normal 0.777112 -0.390281 0.493738
    outer loop
      vertex -3.46797 2.27682 -4.44089e-16
      vertex -2.82231 1.03228 -2
      vertex -3.46643 2.2799 -4.44089e-16
    endloop
  endfacet
  facet normal 0.777113 -0.39028 0.493738
    outer loop
      vertex -2.82445 1.02802 -2
      vertex -2.82231 1.03228 -2
      vertex -3.46797 2.27682 -4.44089e-16
    endloop
  endfacet
  facet normal 0.777113 -0.39028 0.493738
    outer loop
      vertex -3.89877 1.41904 -4.44089e-16
      vertex -2.82445 1.02802 -2
      vertex -3.46797 2.27682 -4.44089e-16
    endloop
  endfacet
  facet normal 0.84617 -0.200546 0.493738
    outer loop
      vertex -2.98429 0.353589 -2
      vertex -2.82445 1.02802 -2
      vertex -3.89877 1.41904 -4.44089e-16
    endloop
  endfacet
  facet normal 0.84617 -0.200546 0.493738
    outer loop
      vertex -3.89956 1.41568 -4.44089e-16
      vertex -2.98429 0.353589 -2
      vertex -3.89877 1.41904 -4.44089e-16
    endloop
  endfacet
  facet normal 0.84617 -0.200546 0.493738
    outer loop
      vertex -2.98539 0.348943 -2
      vertex -2.98429 0.353589 -2
      vertex -3.89956 1.41568 -4.44089e-16
    endloop
  endfacet
  facet normal 0.84617 -0.200546 0.493738
    outer loop
      vertex -4.12093 0.481667 -4.44089e-16
      vertex -2.98539 0.348943 -2
      vertex -3.89956 1.41568 -4.44089e-16
    endloop
  endfacet
  facet normal 0 -1 0
    outer loop
      vertex 58.75 9.99 -2.01556
      vertex 58.75 9.99 -6.68444
      vertex 60.25 9.99 -4.35
    endloop
  endfacet
  facet normal 0 -1 0
    outer loop
      vertex -58.75 9.99 -6.68444
      vertex -58.75 9.99 -2.01556
      vertex -60.25 9.99 -4.35
    endloop
  endfacet
  facet normal 0 0.642788 0.766044
    outer loop
      vertex -21.05 28.294 44.3367
      vertex -21.05 25.3065 46.8436
      vertex 21.05 25.3065 46.8436
    endloop
  endfacet
  facet normal 0 0.642788 0.766044
    outer loop
      vertex 21.05 28.294 44.3367
      vertex -21.05 28.294 44.3367
      vertex 21.05 25.3065 46.8436
    endloop
  endfacet
  facet normal 0 -0.766044 0.642788
    outer loop
      vertex -21.05 25.3065 46.8436
      vertex -21.05 -14 0
      vertex 21.05 -14 0
    endloop
  endfacet
  facet normal 0 -0.766044 0.642788
    outer loop
      vertex 21.05 25.3065 46.8436
      vertex -21.05 25.3065 46.8436
      vertex 21.05 -14 0
    endloop
  endfacet
  facet normal 0 -0.642788 -0.766044
    outer loop
      vertex 19.05 26.8016 42.5581
      vertex 19.05 25.3423 43.7827
      vertex -19.05 26.8016 42.5581
    endloop
  endfacet
  facet normal 0 -0.642788 -0.766044
    outer loop
      vertex -19.05 26.8016 42.5581
      vertex 19.05 25.3423 43.7827
      vertex -19.05 25.3423 43.7827
    endloop
  endfacet
  facet normal 0 0.766044 -0.642788
    outer loop
      vertex 19.05 25.3423 43.7827
      vertex 19.05 -11.393 0.00321394
      vertex -19.05 25.3423 43.7827
    endloop
  endfacet
  facet normal 0 0.766044 -0.642788
    outer loop
      vertex -19.05 25.3423 43.7827
      vertex 19.05 -11.393 0.00321394
      vertex -19.05 -11.393 0.00321394
    endloop
  endfacet
  facet normal 0 0.642788 0.766044
    outer loop
      vertex 19.05 -11.393 0.00321394
      vertex 19.05 -9.92987 -1.22451
      vertex -19.05 -9.92987 -1.22451
    endloop
  endfacet
  facet normal 0 0.642788 0.766044
    outer loop
      vertex -19.05 -11.393 0.00321394
      vertex 19.05 -11.393 0.00321394
      vertex -19.05 -9.92987 -1.22451
    endloop
  endfacet
endsolid OpenSCAD_Model
