solid OpenSCAD_Model
  facet normal -1 0 0
    outer loop
      vertex -62.5 -14 -6.7
      vertex -62.5 -14 -4.44089e-16
      vertex -62.5 14 -6.7
    endloop
  endfacet
  facet normal -1 0 0
    outer loop
      vertex -62.5 14 -6.7
      vertex -62.5 -14 -4.44089e-16
      vertex -62.5 14 -4.44089e-16
    endloop
  endfacet
  facet normal 0 -1 0
    outer loop
      vertex -60 -14 -4.35
      vertex -62.5 -14 -6.7
      vertex -58.5 -14 -6.7
    endloop
  endfacet
  facet normal 0 -1 0
    outer loop
      vertex -60 -14 -4.35
      vertex -58.5 -14 -2.01556
      vertex -62.5 -14 -4.44089e-16
    endloop
  endfacet
  facet normal 0 -1 0
    outer loop
      vertex -62.5 -14 -4.44089e-16
      vertex -62.5 -14 -6.7
      vertex -60 -14 -4.35
    endloop
  endfacet
  facet normal 0 -1 0
    outer loop
      vertex -58.5 -14 -2
      vertex -62.5 -14 -4.44089e-16
      vertex -58.5 -14 -2.01556
    endloop
  endfacet
  facet normal 0 -1 0
    outer loop
      vertex -58.49 -14 -2
      vertex -62.5 -14 -4.44089e-16
      vertex -58.5 -14 -2
    endloop
  endfacet
  facet normal 0 -1 0
    outer loop
      vertex 58.49 -14 -2
      vertex -62.5 -14 -4.44089e-16
      vertex -58.49 -14 -2
    endloop
  endfacet
  facet normal 0 -1 0
    outer loop
      vertex 58.5 -14 -2
      vertex -62.5 -14 -4.44089e-16
      vertex 58.49 -14 -2
    endloop
  endfacet
  facet normal 0 -1 0
    outer loop
      vertex 62.5 -14 -4.44089e-16
      vertex -62.5 -14 -4.44089e-16
      vertex 58.5 -14 -2
    endloop
  endfacet
  facet normal 0 -1 0
    outer loop
      vertex 60 -14 -4.35
      vertex 58.5 -14 -2
      vertex 58.5 -14 -2.01556
    endloop
  endfacet
  facet normal 0 -1 0
    outer loop
      vertex 62.5 -14 -6.7
      vertex 58.5 -14 -2
      vertex 60 -14 -4.35
    endloop
  endfacet
  facet normal 0 -1 0
    outer loop
      vertex 58.5 -14 -6.7
      vertex 60 -14 -4.35
      vertex 58.5 -14 -6.68444
    endloop
  endfacet
  facet normal 0 -1 0
    outer loop
      vertex 62.5 -14 -6.7
      vertex 60 -14 -4.35
      vertex 58.5 -14 -6.7
    endloop
  endfacet
  facet normal 0 -1 0
    outer loop
      vertex 62.5 -14 -4.44089e-16
      vertex 58.5 -14 -2
      vertex 62.5 -14 -6.7
    endloop
  endfacet
  facet normal 0 -1 0
    outer loop
      vertex -58.5 -14 -6.68444
      vertex -60 -14 -4.35
      vertex -58.5 -14 -6.7
    endloop
  endfacet
  facet normal 0 0 -1
    outer loop
      vertex -62.5 -14 -6.7
      vertex -62.5 14 -6.7
      vertex -58.5 -14 -6.7
    endloop
  endfacet
  facet normal 0 0 -1
    outer loop
      vertex -58.5 10 -6.7
      vertex -62.5 14 -6.7
      vertex 62.5 14 -6.7
    endloop
  endfacet
  facet normal 0 0 -1
    outer loop
      vertex 58.5 -14 -6.7
      vertex 62.5 14 -6.7
      vertex 62.5 -14 -6.7
    endloop
  endfacet
  facet normal 0 0 -1
    outer loop
      vertex 58.5 10 -6.7
      vertex 62.5 14 -6.7
      vertex 58.5 -14 -6.7
    endloop
  endfacet
  facet normal 0 0 -1
    outer loop
      vertex -58.5 -14 -6.7
      vertex -62.5 14 -6.7
      vertex -58.5 10 -6.7
    endloop
  endfacet
  facet normal 0 0 -1
    outer loop
      vertex -58.5 10 -6.7
      vertex 62.5 14 -6.7
      vertex 58.5 10 -6.7
    endloop
  endfacet
  facet normal 0 1 0
    outer loop
      vertex -62.5 14 -6.7
      vertex -62.5 14 -4.44089e-16
      vertex 62.5 14 -6.7
    endloop
  endfacet
  facet normal 0 1 0
    outer loop
      vertex 62.5 14 -6.7
      vertex -62.5 14 -4.44089e-16
      vertex 62.5 14 -4.44089e-16
    endloop
  endfacet
  facet normal 0 0 1
    outer loop
      vertex -17.875 -14 -4.44089e-16
      vertex -62.5 -14 -4.44089e-16
      vertex 62.5 -14 -4.44089e-16
    endloop
  endfacet
  facet normal 0 0 1
    outer loop
      vertex 17.875 -14 -4.44089e-16
      vertex -17.875 -14 -4.44089e-16
      vertex 62.5 -14 -4.44089e-16
    endloop
  endfacet
  facet normal 0 0 1
    outer loop
      vertex -62.5 14 -4.44089e-16
      vertex -62.5 -14 -4.44089e-16
      vertex -17.875 -14 -4.44089e-16
    endloop
  endfacet
  facet normal 0 0 1
    outer loop
      vertex -62.5 14 -4.44089e-16
      vertex -17.875 -14 -4.44089e-16
      vertex -17.875 -8.48457 -4.44089e-16
    endloop
  endfacet
  facet normal 0 0 1
    outer loop
      vertex -4.23898 0.495465 -4.44089e-16
      vertex -4.01125 1.45633 -4.44089e-16
      vertex -62.5 14 -4.44089e-16
    endloop
  endfacet
  facet normal 0 0 1
    outer loop
      vertex -62.5 14 -4.44089e-16
      vertex -17.875 -8.48457 -4.44089e-16
      vertex -15.875 -8.48457 -4.44089e-16
    endloop
  endfacet
  facet normal 0 0 1
    outer loop
      vertex -0.248152 4.26061 -4.44089e-16
      vertex 0.737659 4.2032 -4.44089e-16
      vertex 62.5 14 -4.44089e-16
    endloop
  endfacet
  facet normal 0 0 1
    outer loop
      vertex -62.5 14 -4.44089e-16
      vertex -15.875 -8.48457 -4.44089e-16
      vertex -15.875 -8.4775 -4.44089e-16
    endloop
  endfacet
  facet normal 0 0 1
    outer loop
      vertex 0.741102 -4.203 -4.44089e-16
      vertex -15.875 -8.4775 -4.44089e-16
      vertex 15.875 -8.4775 -4.44089e-16
    endloop
  endfacet
  facet normal 0 0 1
    outer loop
      vertex 3.27124 -2.74043 -4.44089e-16
      vertex 17.875 -8.48457 -4.44089e-16
      vertex 62.5 -14 -4.44089e-16
    endloop
  endfacet
  facet normal 0 0 1
    outer loop
      vertex -1.22403 -4.08854 -4.44089e-16
      vertex -2.13075 -3.69742 -4.44089e-16
      vertex -62.5 14 -4.44089e-16
    endloop
  endfacet
  facet normal 0 0 1
    outer loop
      vertex 3.26935 -2.74331 -4.44089e-16
      vertex 2.55108 -3.42096 -4.44089e-16
      vertex 17.875 -8.48457 -4.44089e-16
    endloop
  endfacet
  facet normal 0 0 1
    outer loop
      vertex 3.81387 -1.9154 -4.44089e-16
      vertex 3.27124 -2.74043 -4.44089e-16
      vertex 62.5 -14 -4.44089e-16
    endloop
  endfacet
  facet normal 0 0 1
    outer loop
      vertex -62.5 14 -4.44089e-16
      vertex -4.23898 -0.495465 -4.44089e-16
      vertex -4.23898 0.495465 -4.44089e-16
    endloop
  endfacet
  facet normal 0 0 1
    outer loop
      vertex 4.15279 -0.98423 -4.44089e-16
      vertex 3.81505 -1.91216 -4.44089e-16
      vertex 62.5 -14 -4.44089e-16
    endloop
  endfacet
  facet normal 0 0 1
    outer loop
      vertex -4.01045 1.45968 -4.44089e-16
      vertex -62.5 14 -4.44089e-16
      vertex -4.01125 1.45633 -4.44089e-16
    endloop
  endfacet
  facet normal 0 0 1
    outer loop
      vertex 4.26783 0 -4.44089e-16
      vertex 4.15319 -0.980805 -4.44089e-16
      vertex 62.5 -14 -4.44089e-16
    endloop
  endfacet
  facet normal 0 0 1
    outer loop
      vertex -3.56727 2.34213 -4.44089e-16
      vertex -62.5 14 -4.44089e-16
      vertex -4.01045 1.45968 -4.44089e-16
    endloop
  endfacet
  facet normal 0 0 1
    outer loop
      vertex -3.56572 2.34521 -4.44089e-16
      vertex -62.5 14 -4.44089e-16
      vertex -3.56727 2.34213 -4.44089e-16
    endloop
  endfacet
  facet normal 0 0 1
    outer loop
      vertex -2.93098 3.10167 -4.44089e-16
      vertex -62.5 14 -4.44089e-16
      vertex -3.56572 2.34521 -4.44089e-16
    endloop
  endfacet
  facet normal 0 0 1
    outer loop
      vertex -2.92876 3.10431 -4.44089e-16
      vertex -62.5 14 -4.44089e-16
      vertex -2.93098 3.10167 -4.44089e-16
    endloop
  endfacet
  facet normal 0 0 1
    outer loop
      vertex 2.54559 3.42505 -4.44089e-16
      vertex 2.54857 3.42333 -4.44089e-16
      vertex 62.5 14 -4.44089e-16
    endloop
  endfacet
  facet normal 0 0 1
    outer loop
      vertex -2.13668 3.69399 -4.44089e-16
      vertex -62.5 14 -4.44089e-16
      vertex -2.92876 3.10431 -4.44089e-16
    endloop
  endfacet
  facet normal 0 0 1
    outer loop
      vertex -2.13392 3.69605 -4.44089e-16
      vertex -62.5 14 -4.44089e-16
      vertex -2.13668 3.69399 -4.44089e-16
    endloop
  endfacet
  facet normal 0 0 1
    outer loop
      vertex -1.22719 4.08717 -4.44089e-16
      vertex -62.5 14 -4.44089e-16
      vertex -2.13392 3.69605 -4.44089e-16
    endloop
  endfacet
  facet normal 0 0 1
    outer loop
      vertex -1.22403 4.08854 -4.44089e-16
      vertex -62.5 14 -4.44089e-16
      vertex -1.22719 4.08717 -4.44089e-16
    endloop
  endfacet
  facet normal 0 0 1
    outer loop
      vertex -0.251548 4.26001 -4.44089e-16
      vertex -62.5 14 -4.44089e-16
      vertex -1.22403 4.08854 -4.44089e-16
    endloop
  endfacet
  facet normal 0 0 1
    outer loop
      vertex 0.741102 4.203 -4.44089e-16
      vertex 1.6871 3.91978 -4.44089e-16
      vertex 62.5 14 -4.44089e-16
    endloop
  endfacet
  facet normal 0 0 1
    outer loop
      vertex -0.248152 4.26061 -4.44089e-16
      vertex -62.5 14 -4.44089e-16
      vertex -0.251548 4.26001 -4.44089e-16
    endloop
  endfacet
  facet normal 0 0 1
    outer loop
      vertex 2.54857 3.42333 -4.44089e-16
      vertex 3.26684 2.74568 -4.44089e-16
      vertex 62.5 14 -4.44089e-16
    endloop
  endfacet
  facet normal 0 0 1
    outer loop
      vertex 62.5 14 -4.44089e-16
      vertex -62.5 14 -4.44089e-16
      vertex -0.248152 4.26061 -4.44089e-16
    endloop
  endfacet
  facet normal 0 0 1
    outer loop
      vertex 1.6904 3.91879 -4.44089e-16
      vertex 2.54559 3.42505 -4.44089e-16
      vertex 62.5 14 -4.44089e-16
    endloop
  endfacet
  facet normal 0 0 1
    outer loop
      vertex 62.5 14 -4.44089e-16
      vertex 0.737659 4.2032 -4.44089e-16
      vertex 0.741102 4.203 -4.44089e-16
    endloop
  endfacet
  facet normal 0 0 1
    outer loop
      vertex 62.5 14 -4.44089e-16
      vertex 1.6871 3.91978 -4.44089e-16
      vertex 1.6904 3.91879 -4.44089e-16
    endloop
  endfacet
  facet normal 0 0 1
    outer loop
      vertex 1.6904 -3.91879 -4.44089e-16
      vertex 15.875 -8.4775 -4.44089e-16
      vertex 17.875 -8.48457 -4.44089e-16
    endloop
  endfacet
  facet normal 0 0 1
    outer loop
      vertex 62.5 14 -4.44089e-16
      vertex 3.26684 2.74568 -4.44089e-16
      vertex 62.5 -14 -4.44089e-16
    endloop
  endfacet
  facet normal 0 0 1
    outer loop
      vertex 3.26684 2.74568 -4.44089e-16
      vertex 3.26935 2.74331 -4.44089e-16
      vertex 62.5 -14 -4.44089e-16
    endloop
  endfacet
  facet normal 0 0 1
    outer loop
      vertex 3.26935 2.74331 -4.44089e-16
      vertex 3.81198 1.91828 -4.44089e-16
      vertex 62.5 -14 -4.44089e-16
    endloop
  endfacet
  facet normal 0 0 1
    outer loop
      vertex 3.81198 1.91828 -4.44089e-16
      vertex 3.81387 1.9154 -4.44089e-16
      vertex 62.5 -14 -4.44089e-16
    endloop
  endfacet
  facet normal 0 0 1
    outer loop
      vertex 3.81387 1.9154 -4.44089e-16
      vertex 4.15161 0.987471 -4.44089e-16
      vertex 62.5 -14 -4.44089e-16
    endloop
  endfacet
  facet normal 0 0 1
    outer loop
      vertex 4.15161 0.987471 -4.44089e-16
      vertex 4.15279 0.98423 -4.44089e-16
      vertex 62.5 -14 -4.44089e-16
    endloop
  endfacet
  facet normal 0 0 1
    outer loop
      vertex 4.15279 0.98423 -4.44089e-16
      vertex 4.26743 0.00342499 -4.44089e-16
      vertex 62.5 -14 -4.44089e-16
    endloop
  endfacet
  facet normal 0 0 1
    outer loop
      vertex 4.26743 0.00342499 -4.44089e-16
      vertex 4.26783 0 -4.44089e-16
      vertex 62.5 -14 -4.44089e-16
    endloop
  endfacet
  facet normal 0 0 1
    outer loop
      vertex 4.15319 -0.980805 -4.44089e-16
      vertex 4.15279 -0.98423 -4.44089e-16
      vertex 62.5 -14 -4.44089e-16
    endloop
  endfacet
  facet normal 0 0 1
    outer loop
      vertex 3.81505 -1.91216 -4.44089e-16
      vertex 3.81387 -1.9154 -4.44089e-16
      vertex 62.5 -14 -4.44089e-16
    endloop
  endfacet
  facet normal 0 0 1
    outer loop
      vertex 3.26935 -2.74331 -4.44089e-16
      vertex 17.875 -8.48457 -4.44089e-16
      vertex 3.27124 -2.74043 -4.44089e-16
    endloop
  endfacet
  facet normal 0 0 1
    outer loop
      vertex -3.56572 -2.34521 -4.44089e-16
      vertex -4.0089 -1.46277 -4.44089e-16
      vertex -62.5 14 -4.44089e-16
    endloop
  endfacet
  facet normal 0 0 1
    outer loop
      vertex 2.54857 -3.42333 -4.44089e-16
      vertex 17.875 -8.48457 -4.44089e-16
      vertex 2.55108 -3.42096 -4.44089e-16
    endloop
  endfacet
  facet normal 0 0 1
    outer loop
      vertex 1.69339 -3.91707 -4.44089e-16
      vertex 17.875 -8.48457 -4.44089e-16
      vertex 2.54857 -3.42333 -4.44089e-16
    endloop
  endfacet
  facet normal 0 0 1
    outer loop
      vertex 1.6904 -3.91879 -4.44089e-16
      vertex 17.875 -8.48457 -4.44089e-16
      vertex 1.69339 -3.91707 -4.44089e-16
    endloop
  endfacet
  facet normal 0 0 1
    outer loop
      vertex 0.744405 -4.20201 -4.44089e-16
      vertex 0.741102 -4.203 -4.44089e-16
      vertex 15.875 -8.4775 -4.44089e-16
    endloop
  endfacet
  facet normal 0 0 1
    outer loop
      vertex -0.248152 -4.26061 -4.44089e-16
      vertex -15.875 -8.4775 -4.44089e-16
      vertex -0.24471 -4.26041 -4.44089e-16
    endloop
  endfacet
  facet normal 0 0 1
    outer loop
      vertex -2.13392 -3.69605 -4.44089e-16
      vertex -2.926 -3.10637 -4.44089e-16
      vertex -62.5 14 -4.44089e-16
    endloop
  endfacet
  facet normal 0 0 1
    outer loop
      vertex -1.22063 -4.08914 -4.44089e-16
      vertex -15.875 -8.4775 -4.44089e-16
      vertex -0.248152 -4.26061 -4.44089e-16
    endloop
  endfacet
  facet normal 0 0 1
    outer loop
      vertex -2.92876 -3.10431 -4.44089e-16
      vertex -3.56351 -2.34785 -4.44089e-16
      vertex -62.5 14 -4.44089e-16
    endloop
  endfacet
  facet normal 0 0 1
    outer loop
      vertex -1.22403 -4.08854 -4.44089e-16
      vertex -15.875 -8.4775 -4.44089e-16
      vertex -1.22063 -4.08914 -4.44089e-16
    endloop
  endfacet
  facet normal 0 0 1
    outer loop
      vertex -62.5 14 -4.44089e-16
      vertex -15.875 -8.4775 -4.44089e-16
      vertex -1.22403 -4.08854 -4.44089e-16
    endloop
  endfacet
  facet normal 0 0 1
    outer loop
      vertex -62.5 14 -4.44089e-16
      vertex -2.13075 -3.69742 -4.44089e-16
      vertex -2.13392 -3.69605 -4.44089e-16
    endloop
  endfacet
  facet normal 0 0 1
    outer loop
      vertex 0.741102 -4.203 -4.44089e-16
      vertex -0.24471 -4.26041 -4.44089e-16
      vertex -15.875 -8.4775 -4.44089e-16
    endloop
  endfacet
  facet normal 0 0 1
    outer loop
      vertex -62.5 14 -4.44089e-16
      vertex -2.926 -3.10637 -4.44089e-16
      vertex -2.92876 -3.10431 -4.44089e-16
    endloop
  endfacet
  facet normal 0 0 1
    outer loop
      vertex -62.5 14 -4.44089e-16
      vertex -3.56351 -2.34785 -4.44089e-16
      vertex -3.56572 -2.34521 -4.44089e-16
    endloop
  endfacet
  facet normal 0 0 1
    outer loop
      vertex -62.5 14 -4.44089e-16
      vertex -4.01045 -1.45968 -4.44089e-16
      vertex -4.23898 -0.495465 -4.44089e-16
    endloop
  endfacet
  facet normal 0 0 1
    outer loop
      vertex -62.5 14 -4.44089e-16
      vertex -4.0089 -1.46277 -4.44089e-16
      vertex -4.01045 -1.45968 -4.44089e-16
    endloop
  endfacet
  facet normal 0 0 1
    outer loop
      vertex -4.01045 -1.45968 -4.44089e-16
      vertex -4.23818 -0.49882 -4.44089e-16
      vertex -4.23898 -0.495465 -4.44089e-16
    endloop
  endfacet
  facet normal 0 0 1
    outer loop
      vertex 1.6904 -3.91879 -4.44089e-16
      vertex 0.744405 -4.20201 -4.44089e-16
      vertex 15.875 -8.4775 -4.44089e-16
    endloop
  endfacet
  facet normal 0 0 1
    outer loop
      vertex 15.875 -8.48457 -4.44089e-16
      vertex 17.875 -8.48457 -4.44089e-16
      vertex 15.875 -8.4775 -4.44089e-16
    endloop
  endfacet
  facet normal 0 0 1
    outer loop
      vertex 17.875 -8.48457 -4.44089e-16
      vertex 17.875 -14 -4.44089e-16
      vertex 62.5 -14 -4.44089e-16
    endloop
  endfacet
  facet normal 1 0 0
    outer loop
      vertex 62.5 -14 -4.44089e-16
      vertex 62.5 -14 -6.7
      vertex 62.5 14 -6.7
    endloop
  endfacet
  facet normal 1 0 0
    outer loop
      vertex 62.5 14 -4.44089e-16
      vertex 62.5 -14 -4.44089e-16
      vertex 62.5 14 -6.7
    endloop
  endfacet
  facet normal -1 0 0
    outer loop
      vertex 58.5 -14 -2
      vertex 58.5 9.99 -2.01556
      vertex 58.5 -14 -2.01556
    endloop
  endfacet
  facet normal -1 0 0
    outer loop
      vertex 58.5 10 -2
      vertex 58.5 9.99 -2.01556
      vertex 58.5 -14 -2
    endloop
  endfacet
  facet normal -1 0 0
    outer loop
      vertex 58.5 9.99 -6.68444
      vertex 58.5 9.99 -2.01556
      vertex 58.5 10 -2
    endloop
  endfacet
  facet normal -1 0 0
    outer loop
      vertex 58.5 9.99 -6.68444
      vertex 58.5 10 -2
      vertex 58.5 10 -6.7
    endloop
  endfacet
  facet normal -1 0 0
    outer loop
      vertex 58.5 9.99 -6.68444
      vertex 58.5 10 -6.7
      vertex 58.5 -14 -6.68444
    endloop
  endfacet
  facet normal -1 0 0
    outer loop
      vertex 58.5 10 -6.7
      vertex 58.5 -14 -6.7
      vertex 58.5 -14 -6.68444
    endloop
  endfacet
  facet normal -0.841295 0 0.540577
    outer loop
      vertex 58.5 -14 -6.68444
      vertex 60 -14 -4.35
      vertex 58.5 9.99 -6.68444
    endloop
  endfacet
  facet normal -0.841295 0 0.540577
    outer loop
      vertex 58.5 9.99 -6.68444
      vertex 60 -14 -4.35
      vertex 60 9.99 -4.35
    endloop
  endfacet
  facet normal -0.841295 0 -0.540577
    outer loop
      vertex 58.5 -14 -2.01556
      vertex 58.5 9.99 -2.01556
      vertex 60 -14 -4.35
    endloop
  endfacet
  facet normal -0.841295 0 -0.540577
    outer loop
      vertex 60 -14 -4.35
      vertex 58.5 9.99 -2.01556
      vertex 60 9.99 -4.35
    endloop
  endfacet
  facet normal 0 0 -1
    outer loop
      vertex 58.5 10 -2
      vertex 58.5 -14 -2
      vertex 58.49 9.99 -2
    endloop
  endfacet
  facet normal 0 0 -1
    outer loop
      vertex 58.5 10 -2
      vertex 58.49 9.99 -2
      vertex -58.5 10 -2
    endloop
  endfacet
  facet normal 0 0 -1
    outer loop
      vertex -58.49 -14 -2
      vertex -58.5 10 -2
      vertex -58.49 9.99 -2
    endloop
  endfacet
  facet normal 0 0 -1
    outer loop
      vertex -0.862219 -2.88001 -2
      vertex 58.49 -14 -2
      vertex -58.49 -14 -2
    endloop
  endfacet
  facet normal 0 0 -1
    outer loop
      vertex -2.51394 -1.6476 -2
      vertex -58.5 10 -2
      vertex -2.82501 -1.02822 -2
    endloop
  endfacet
  facet normal 0 0 -1
    outer loop
      vertex -2.51394 -1.6476 -2
      vertex -58.49 9.99 -2
      vertex -58.5 10 -2
    endloop
  endfacet
  facet normal 0 0 -1
    outer loop
      vertex -58.5 10 -2
      vertex -58.49 -14 -2
      vertex -58.5 -14 -2
    endloop
  endfacet
  facet normal 0 0 -1
    outer loop
      vertex 2.68384 -1.35333 -2
      vertex 58.49 -14 -2
      vertex 2.30296 -1.93242 -2
    endloop
  endfacet
  facet normal 0 0 -1
    outer loop
      vertex -2.98598 0.349011 -2
      vertex -2.98598 -0.349011 -2
      vertex -58.5 10 -2
    endloop
  endfacet
  facet normal 0 0 -1
    outer loop
      vertex 2.92584 0.688423 -2
      vertex 58.49 9.99 -2
      vertex 3.00631 0 -2
    endloop
  endfacet
  facet normal 0 0 -1
    outer loop
      vertex -2.98598 -0.349011 -2
      vertex -2.82614 -1.02344 -2
      vertex -58.5 10 -2
    endloop
  endfacet
  facet normal 0 0 -1
    outer loop
      vertex 58.49 -14 -2
      vertex 2.68384 -1.35333 -2
      vertex 58.49 9.99 -2
    endloop
  endfacet
  facet normal 0 0 -1
    outer loop
      vertex -2.82614 -1.02344 -2
      vertex -2.82501 -1.02822 -2
      vertex -58.5 10 -2
    endloop
  endfacet
  facet normal 0 0 -1
    outer loop
      vertex 2.29939 -1.93579 -2
      vertex 58.49 -14 -2
      vertex 1.79524 -2.41143 -2
    endloop
  endfacet
  facet normal 0 0 -1
    outer loop
      vertex -58.49 9.99 -2
      vertex -2.51394 -1.6476 -2
      vertex -58.49 -14 -2
    endloop
  endfacet
  facet normal 0 0 -1
    outer loop
      vertex -2.51394 -1.6476 -2
      vertex -2.51173 -1.65199 -2
      vertex -58.49 -14 -2
    endloop
  endfacet
  facet normal 0 0 -1
    outer loop
      vertex 1.79099 -2.41389 -2
      vertex 58.49 -14 -2
      vertex 1.19074 -2.76044 -2
    endloop
  endfacet
  facet normal 0 0 -1
    outer loop
      vertex -2.51173 -1.65199 -2
      vertex -2.06621 -2.18295 -2
      vertex -58.49 -14 -2
    endloop
  endfacet
  facet normal 0 0 -1
    outer loop
      vertex -2.06621 -2.18295 -2
      vertex -2.06305 -2.18671 -2
      vertex -58.49 -14 -2
    endloop
  endfacet
  facet normal 0 0 -1
    outer loop
      vertex 1.18603 -2.76185 -2
      vertex 58.49 -14 -2
      vertex 0.52204 -2.96063 -2
    endloop
  endfacet
  facet normal 0 0 -1
    outer loop
      vertex -2.06305 -2.18671 -2
      vertex -1.50709 -2.6006 -2
      vertex -58.49 -14 -2
    endloop
  endfacet
  facet normal 0 0 -1
    outer loop
      vertex -1.50709 -2.6006 -2
      vertex -1.50315 -2.60354 -2
      vertex -58.49 -14 -2
    endloop
  endfacet
  facet normal 0 0 -1
    outer loop
      vertex 0.517136 -2.96092 -2
      vertex 58.49 -14 -2
      vertex -0.174801 -3.00122 -2
    endloop
  endfacet
  facet normal 0 0 -1
    outer loop
      vertex -1.50315 -2.60354 -2
      vertex -0.86673 -2.87807 -2
      vertex -58.49 -14 -2
    endloop
  endfacet
  facet normal 0 0 -1
    outer loop
      vertex -0.86673 -2.87807 -2
      vertex -0.862219 -2.88001 -2
      vertex -58.49 -14 -2
    endloop
  endfacet
  facet normal 0 0 -1
    outer loop
      vertex -0.174801 -3.00122 -2
      vertex 58.49 -14 -2
      vertex -0.179639 -3.00037 -2
    endloop
  endfacet
  facet normal 0 0 -1
    outer loop
      vertex 0.52204 -2.96063 -2
      vertex 58.49 -14 -2
      vertex 0.517136 -2.96092 -2
    endloop
  endfacet
  facet normal 0 0 -1
    outer loop
      vertex 1.19074 -2.76044 -2
      vertex 58.49 -14 -2
      vertex 1.18603 -2.76185 -2
    endloop
  endfacet
  facet normal 0 0 -1
    outer loop
      vertex 1.79524 -2.41143 -2
      vertex 58.49 -14 -2
      vertex 1.79099 -2.41389 -2
    endloop
  endfacet
  facet normal 0 0 -1
    outer loop
      vertex -0.179639 -3.00037 -2
      vertex 58.49 -14 -2
      vertex -0.862219 -2.88001 -2
    endloop
  endfacet
  facet normal 0 0 -1
    outer loop
      vertex 58.49 -14 -2
      vertex 2.29939 -1.93579 -2
      vertex 2.30296 -1.93242 -2
    endloop
  endfacet
  facet normal 0 0 -1
    outer loop
      vertex 58.49 9.99 -2
      vertex 2.68384 -1.35333 -2
      vertex 2.68653 -1.34923 -2
    endloop
  endfacet
  facet normal 0 0 -1
    outer loop
      vertex 58.49 9.99 -2
      vertex 2.68653 -1.34923 -2
      vertex 2.92359 -0.697919 -2
    endloop
  endfacet
  facet normal 0 0 -1
    outer loop
      vertex 58.49 9.99 -2
      vertex 2.92359 -0.697919 -2
      vertex 2.92527 -0.693303 -2
    endloop
  endfacet
  facet normal 0 0 -1
    outer loop
      vertex 58.49 9.99 -2
      vertex 2.92527 -0.693303 -2
      vertex 3.00574 -0.00487963 -2
    endloop
  endfacet
  facet normal 0 0 -1
    outer loop
      vertex 58.49 9.99 -2
      vertex 3.00574 -0.00487963 -2
      vertex 3.00631 0 -2
    endloop
  endfacet
  facet normal 0 0 -1
    outer loop
      vertex -0.169896 3.00094 -2
      vertex -58.5 10 -2
      vertex 0.52204 2.96063 -2
    endloop
  endfacet
  facet normal 0 0 -1
    outer loop
      vertex 58.49 9.99 -2
      vertex 2.92584 0.688423 -2
      vertex 2.92527 0.693303 -2
    endloop
  endfacet
  facet normal 0 0 -1
    outer loop
      vertex 58.49 9.99 -2
      vertex 2.92527 0.693303 -2
      vertex 2.68821 1.34461 -2
    endloop
  endfacet
  facet normal 0 0 -1
    outer loop
      vertex 58.49 9.99 -2
      vertex 2.68821 1.34461 -2
      vertex 2.68653 1.34923 -2
    endloop
  endfacet
  facet normal 0 0 -1
    outer loop
      vertex 58.49 9.99 -2
      vertex 2.68653 1.34923 -2
      vertex 2.30566 1.92831 -2
    endloop
  endfacet
  facet normal 0 0 -1
    outer loop
      vertex 58.49 9.99 -2
      vertex 2.30566 1.92831 -2
      vertex 2.30296 1.93242 -2
    endloop
  endfacet
  facet normal 0 0 -1
    outer loop
      vertex 58.49 9.99 -2
      vertex 2.30296 1.93242 -2
      vertex 1.79882 2.40806 -2
    endloop
  endfacet
  facet normal 0 0 -1
    outer loop
      vertex 58.49 9.99 -2
      vertex 1.79882 2.40806 -2
      vertex 1.79524 2.41143 -2
    endloop
  endfacet
  facet normal 0 0 -1
    outer loop
      vertex 58.49 9.99 -2
      vertex 1.79524 2.41143 -2
      vertex 1.19499 2.75798 -2
    endloop
  endfacet
  facet normal 0 0 -1
    outer loop
      vertex 58.49 9.99 -2
      vertex 1.19499 2.75798 -2
      vertex 1.19074 2.76044 -2
    endloop
  endfacet
  facet normal 0 0 -1
    outer loop
      vertex 58.49 9.99 -2
      vertex 1.19074 2.76044 -2
      vertex 0.526747 2.95923 -2
    endloop
  endfacet
  facet normal 0 0 -1
    outer loop
      vertex 58.49 9.99 -2
      vertex 0.526747 2.95923 -2
      vertex 0.52204 2.96063 -2
    endloop
  endfacet
  facet normal 0 0 -1
    outer loop
      vertex 58.49 9.99 -2
      vertex 0.52204 2.96063 -2
      vertex -58.5 10 -2
    endloop
  endfacet
  facet normal 0 0 -1
    outer loop
      vertex -0.857381 2.88086 -2
      vertex -58.5 10 -2
      vertex -0.174801 3.00122 -2
    endloop
  endfacet
  facet normal 0 0 -1
    outer loop
      vertex -0.169896 3.00094 -2
      vertex -0.174801 3.00122 -2
      vertex -58.5 10 -2
    endloop
  endfacet
  facet normal 0 0 -1
    outer loop
      vertex -1.49864 2.60548 -2
      vertex -58.5 10 -2
      vertex -0.862219 2.88001 -2
    endloop
  endfacet
  facet normal 0 0 -1
    outer loop
      vertex -0.857381 2.88086 -2
      vertex -0.862219 2.88001 -2
      vertex -58.5 10 -2
    endloop
  endfacet
  facet normal 0 0 -1
    outer loop
      vertex -2.05911 2.18964 -2
      vertex -58.5 10 -2
      vertex -1.50315 2.60354 -2
    endloop
  endfacet
  facet normal 0 0 -1
    outer loop
      vertex -1.49864 2.60548 -2
      vertex -1.50315 2.60354 -2
      vertex -58.5 10 -2
    endloop
  endfacet
  facet normal 0 0 -1
    outer loop
      vertex -2.50858 1.65576 -2
      vertex -58.5 10 -2
      vertex -2.06305 2.18671 -2
    endloop
  endfacet
  facet normal 0 0 -1
    outer loop
      vertex -2.05911 2.18964 -2
      vertex -2.06305 2.18671 -2
      vertex -58.5 10 -2
    endloop
  endfacet
  facet normal 0 0 -1
    outer loop
      vertex -2.8228 1.03261 -2
      vertex -58.5 10 -2
      vertex -2.51173 1.65199 -2
    endloop
  endfacet
  facet normal 0 0 -1
    outer loop
      vertex -2.50858 1.65576 -2
      vertex -2.51173 1.65199 -2
      vertex -58.5 10 -2
    endloop
  endfacet
  facet normal 0 0 -1
    outer loop
      vertex -2.8228 1.03261 -2
      vertex -2.82501 1.02822 -2
      vertex -58.5 10 -2
    endloop
  endfacet
  facet normal 0 0 -1
    outer loop
      vertex -2.82501 1.02822 -2
      vertex -2.98485 0.353792 -2
      vertex -58.5 10 -2
    endloop
  endfacet
  facet normal 0 0 -1
    outer loop
      vertex -2.98485 0.353792 -2
      vertex -2.98598 0.349011 -2
      vertex -58.5 10 -2
    endloop
  endfacet
  facet normal 0 0 -1
    outer loop
      vertex 58.49 9.99 -2
      vertex 58.5 -14 -2
      vertex 58.49 -14 -2
    endloop
  endfacet
  facet normal 1 0 0
    outer loop
      vertex -58.5 9.99 -2.01556
      vertex -58.5 10 -2
      vertex -58.5 -14 -2
    endloop
  endfacet
  facet normal 1 0 0
    outer loop
      vertex -58.5 10 -6.7
      vertex -58.5 10 -2
      vertex -58.5 9.99 -2.01556
    endloop
  endfacet
  facet normal 1 0 0
    outer loop
      vertex -58.5 9.99 -6.68444
      vertex -58.5 -14 -6.68444
      vertex -58.5 10 -6.7
    endloop
  endfacet
  facet normal 1 0 0
    outer loop
      vertex -58.5 10 -6.7
      vertex -58.5 9.99 -2.01556
      vertex -58.5 9.99 -6.68444
    endloop
  endfacet
  facet normal 1 0 0
    outer loop
      vertex -58.5 -14 -6.7
      vertex -58.5 10 -6.7
      vertex -58.5 -14 -6.68444
    endloop
  endfacet
  facet normal 1 0 0
    outer loop
      vertex -58.5 -14 -2.01556
      vertex -58.5 9.99 -2.01556
      vertex -58.5 -14 -2
    endloop
  endfacet
  facet normal 0.841295 0 -0.540577
    outer loop
      vertex -60 9.99 -4.35
      vertex -58.5 9.99 -2.01556
      vertex -58.5 -14 -2.01556
    endloop
  endfacet
  facet normal 0.841295 0 -0.540577
    outer loop
      vertex -60 -14 -4.35
      vertex -60 9.99 -4.35
      vertex -58.5 -14 -2.01556
    endloop
  endfacet
  facet normal 0.841295 0 0.540577
    outer loop
      vertex -58.5 -14 -6.68444
      vertex -58.5 9.99 -6.68444
      vertex -60 9.99 -4.35
    endloop
  endfacet
  facet normal 0.841295 0 0.540577
    outer loop
      vertex -60 -14 -4.35
      vertex -58.5 -14 -6.68444
      vertex -60 9.99 -4.35
    endloop
  endfacet
  facet normal 0 -1 0
    outer loop
      vertex 58.5 10 -6.7
      vertex 58.5 10 -2
      vertex -58.5 10 -2
    endloop
  endfacet
  facet normal 0 -1 0
    outer loop
      vertex -58.5 10 -6.7
      vertex 58.5 10 -6.7
      vertex -58.5 10 -2
    endloop
  endfacet
  facet normal -1 0 0
    outer loop
      vertex -17.875 -14 0
      vertex -17.875 36.9087 50.9087
      vertex -17.875 -14 -4.44089e-16
    endloop
  endfacet
  facet normal -1 0 0
    outer loop
      vertex -17.875 -14 -4.44089e-16
      vertex -17.875 36.9087 50.9087
      vertex -17.875 39.6664 48.151
    endloop
  endfacet
  facet normal -1 0 0
    outer loop
      vertex -17.875 -14 -4.44089e-16
      vertex -17.875 39.6664 48.151
      vertex -17.875 -8.48457 -4.44089e-16
    endloop
  endfacet
  facet normal 0 -0.707107 -0.707107
    outer loop
      vertex 17.875 -14 0
      vertex -17.875 -14 0
      vertex -17.875 -14 -4.44089e-16
    endloop
  endfacet
  facet normal 0 -0.707107 -0.707107
    outer loop
      vertex 17.875 -14 -4.44089e-16
      vertex 17.875 -14 0
      vertex -17.875 -14 -4.44089e-16
    endloop
  endfacet
  facet normal 1 0 0
    outer loop
      vertex 17.875 36.9087 50.9087
      vertex 17.875 -14 0
      vertex 17.875 -14 -4.44089e-16
    endloop
  endfacet
  facet normal 1 0 0
    outer loop
      vertex 17.875 39.6664 48.151
      vertex 17.875 36.9087 50.9087
      vertex 17.875 -8.48457 -4.44089e-16
    endloop
  endfacet
  facet normal 1 0 0
    outer loop
      vertex 17.875 -8.48457 -4.44089e-16
      vertex 17.875 36.9087 50.9087
      vertex 17.875 -14 -4.44089e-16
    endloop
  endfacet
  facet normal 0 0.707107 -0.707107
    outer loop
      vertex -17.875 -8.48457 -4.44089e-16
      vertex -17.875 39.6664 48.151
      vertex -15.875 -8.48457 -4.44089e-16
    endloop
  endfacet
  facet normal 0 0.707107 -0.707107
    outer loop
      vertex 15.875 38.2522 46.7368
      vertex -17.875 39.6664 48.151
      vertex 17.875 39.6664 48.151
    endloop
  endfacet
  facet normal 0 0.707107 -0.707107
    outer loop
      vertex 15.875 -8.48457 -4.44089e-16
      vertex 17.875 39.6664 48.151
      vertex 17.875 -8.48457 -4.44089e-16
    endloop
  endfacet
  facet normal 0 0.707107 -0.707107
    outer loop
      vertex -15.875 38.2522 46.7368
      vertex -17.875 39.6664 48.151
      vertex 15.875 38.2522 46.7368
    endloop
  endfacet
  facet normal 0 0.707107 -0.707107
    outer loop
      vertex -15.875 -8.48457 -4.44089e-16
      vertex -17.875 39.6664 48.151
      vertex -15.875 38.2522 46.7368
    endloop
  endfacet
  facet normal 0 0.707107 -0.707107
    outer loop
      vertex 15.875 38.2522 46.7368
      vertex 17.875 39.6664 48.151
      vertex 15.875 -8.48457 -4.44089e-16
    endloop
  endfacet
  facet normal -1 0 0
    outer loop
      vertex 15.875 38.2522 46.7368
      vertex 15.875 -8.48457 -4.44089e-16
      vertex 15.875 36.9052 48.0838
    endloop
  endfacet
  facet normal -1 0 0
    outer loop
      vertex 15.875 -9.82453 -1.34704
      vertex 15.875 -8.48457 -4.44089e-16
      vertex 15.875 -8.4775 -4.44089e-16
    endloop
  endfacet
  facet normal -1 0 0
    outer loop
      vertex 15.875 36.9052 48.0838
      vertex 15.875 -8.48457 -4.44089e-16
      vertex 15.875 -9.82453 -1.34704
    endloop
  endfacet
  facet normal -1 0 0
    outer loop
      vertex 15.875 36.9052 48.0838
      vertex 15.875 -9.82453 -1.34704
      vertex 15.875 -11.1751 0.00353553
    endloop
  endfacet
  facet normal 0 -0.707107 0.707107
    outer loop
      vertex 15.875 -9.82453 -1.34704
      vertex 15.875 -8.4775 -4.44089e-16
      vertex -15.875 -8.4775 -4.44089e-16
    endloop
  endfacet
  facet normal 0 -0.707107 0.707107
    outer loop
      vertex -15.875 -9.82453 -1.34704
      vertex 15.875 -9.82453 -1.34704
      vertex -15.875 -8.4775 -4.44089e-16
    endloop
  endfacet
  facet normal 1 0 0
    outer loop
      vertex -15.875 -9.82453 -1.34704
      vertex -15.875 -8.4775 -4.44089e-16
      vertex -15.875 -8.48457 -4.44089e-16
    endloop
  endfacet
  facet normal 1 0 0
    outer loop
      vertex -15.875 36.9052 48.0838
      vertex -15.875 -9.82453 -1.34704
      vertex -15.875 -8.48457 -4.44089e-16
    endloop
  endfacet
  facet normal 1 0 0
    outer loop
      vertex -15.875 38.2522 46.7368
      vertex -15.875 36.9052 48.0838
      vertex -15.875 -8.48457 -4.44089e-16
    endloop
  endfacet
  facet normal 1 0 0
    outer loop
      vertex -15.875 36.9052 48.0838
      vertex -15.875 -11.1751 0.00353553
      vertex -15.875 -9.82453 -1.34704
    endloop
  endfacet
  facet normal 0.847427 0 0.530911
    outer loop
      vertex -2.98598 -0.349011 -2
      vertex -2.98598 0.349011 -2
      vertex -4.23898 0.495465 -4.44089e-16
    endloop
  endfacet
  facet normal 0.847427 0 0.530911
    outer loop
      vertex -4.23898 -0.495465 -4.44089e-16
      vertex -2.98598 -0.349011 -2
      vertex -4.23898 0.495465 -4.44089e-16
    endloop
  endfacet
  facet normal 0.824585 0.19543 0.530911
    outer loop
      vertex -4.23818 -0.49882 -4.44089e-16
      vertex -2.82614 -1.02344 -2
      vertex -2.98598 -0.349011 -2
    endloop
  endfacet
  facet normal 0.824585 0.19543 0.530911
    outer loop
      vertex -4.23898 -0.495465 -4.44089e-16
      vertex -4.23818 -0.49882 -4.44089e-16
      vertex -2.98598 -0.349011 -2
    endloop
  endfacet
  facet normal 0.824585 0.19543 0.530911
    outer loop
      vertex -4.01045 -1.45968 -4.44089e-16
      vertex -2.82501 -1.02822 -2
      vertex -2.82614 -1.02344 -2
    endloop
  endfacet
  facet normal 0.824585 0.19543 0.530911
    outer loop
      vertex -4.23818 -0.49882 -4.44089e-16
      vertex -4.01045 -1.45968 -4.44089e-16
      vertex -2.82614 -1.02344 -2
    endloop
  endfacet
  facet normal 0.757289 0.380325 0.530911
    outer loop
      vertex -4.0089 -1.46277 -4.44089e-16
      vertex -2.51394 -1.6476 -2
      vertex -2.82501 -1.02822 -2
    endloop
  endfacet
  facet normal 0.757289 0.380325 0.530911
    outer loop
      vertex -4.01045 -1.45968 -4.44089e-16
      vertex -4.0089 -1.46277 -4.44089e-16
      vertex -2.82501 -1.02822 -2
    endloop
  endfacet
  facet normal 0.757289 0.380325 0.530911
    outer loop
      vertex -3.56572 -2.34521 -4.44089e-16
      vertex -2.51173 -1.65199 -2
      vertex -2.51394 -1.6476 -2
    endloop
  endfacet
  facet normal 0.757289 0.380325 0.530911
    outer loop
      vertex -4.0089 -1.46277 -4.44089e-16
      vertex -3.56572 -2.34521 -4.44089e-16
      vertex -2.51394 -1.6476 -2
    endloop
  endfacet
  facet normal 0.649167 0.544715 0.530911
    outer loop
      vertex -3.56351 -2.34785 -4.44089e-16
      vertex -2.06621 -2.18295 -2
      vertex -2.51173 -1.65199 -2
    endloop
  endfacet
  facet normal 0.649167 0.544715 0.530911
    outer loop
      vertex -3.56572 -2.34521 -4.44089e-16
      vertex -3.56351 -2.34785 -4.44089e-16
      vertex -2.51173 -1.65199 -2
    endloop
  endfacet
  facet normal 0.649167 0.544716 0.530911
    outer loop
      vertex -2.92876 -3.10431 -4.44089e-16
      vertex -2.06305 -2.18671 -2
      vertex -2.06621 -2.18295 -2
    endloop
  endfacet
  facet normal 0.649167 0.544716 0.530911
    outer loop
      vertex -3.56351 -2.34785 -4.44089e-16
      vertex -2.92876 -3.10431 -4.44089e-16
      vertex -2.06621 -2.18295 -2
    endloop
  endfacet
  facet normal 0.506048 0.679741 0.530911
    outer loop
      vertex -1.50709 -2.6006 -2
      vertex -2.06305 -2.18671 -2
      vertex -2.926 -3.10637 -4.44089e-16
    endloop
  endfacet
  facet normal 0.506048 0.679741 0.530911
    outer loop
      vertex -2.926 -3.10637 -4.44089e-16
      vertex -2.06305 -2.18671 -2
      vertex -2.92876 -3.10431 -4.44089e-16
    endloop
  endfacet
  facet normal 0.506048 0.679741 0.530911
    outer loop
      vertex -1.50315 -2.60354 -2
      vertex -1.50709 -2.6006 -2
      vertex -2.13392 -3.69605 -4.44089e-16
    endloop
  endfacet
  facet normal 0.506048 0.679741 0.530911
    outer loop
      vertex -2.13392 -3.69605 -4.44089e-16
      vertex -1.50709 -2.6006 -2
      vertex -2.926 -3.10637 -4.44089e-16
    endloop
  endfacet
  facet normal 0.33565 0.778121 0.530911
    outer loop
      vertex -0.86673 -2.87807 -2
      vertex -1.50315 -2.60354 -2
      vertex -2.13075 -3.69742 -4.44089e-16
    endloop
  endfacet
  facet normal 0.33565 0.778121 0.530911
    outer loop
      vertex -2.13075 -3.69742 -4.44089e-16
      vertex -1.50315 -2.60354 -2
      vertex -2.13392 -3.69605 -4.44089e-16
    endloop
  endfacet
  facet normal 0.335649 0.778121 0.530911
    outer loop
      vertex -0.862219 -2.88001 -2
      vertex -0.86673 -2.87807 -2
      vertex -1.22403 -4.08854 -4.44089e-16
    endloop
  endfacet
  facet normal 0.335649 0.778121 0.530911
    outer loop
      vertex -1.22403 -4.08854 -4.44089e-16
      vertex -0.86673 -2.87807 -2
      vertex -2.13075 -3.69742 -4.44089e-16
    endloop
  endfacet
  facet normal 0.147153 0.834553 0.530911
    outer loop
      vertex -0.179639 -3.00037 -2
      vertex -0.862219 -2.88001 -2
      vertex -1.22063 -4.08914 -4.44089e-16
    endloop
  endfacet
  facet normal 0.147153 0.834553 0.530911
    outer loop
      vertex -1.22063 -4.08914 -4.44089e-16
      vertex -0.862219 -2.88001 -2
      vertex -1.22403 -4.08854 -4.44089e-16
    endloop
  endfacet
  facet normal 0.147154 0.834553 0.530911
    outer loop
      vertex -0.174801 -3.00122 -2
      vertex -0.179639 -3.00037 -2
      vertex -0.248152 -4.26061 -4.44089e-16
    endloop
  endfacet
  facet normal 0.147154 0.834553 0.530911
    outer loop
      vertex -0.248152 -4.26061 -4.44089e-16
      vertex -0.179639 -3.00037 -2
      vertex -1.22063 -4.08914 -4.44089e-16
    endloop
  endfacet
  facet normal -0.0492733 0.845994 0.530911
    outer loop
      vertex 0.517136 -2.96092 -2
      vertex -0.174801 -3.00122 -2
      vertex -0.24471 -4.26041 -4.44089e-16
    endloop
  endfacet
  facet normal -0.0492733 0.845994 0.530911
    outer loop
      vertex -0.24471 -4.26041 -4.44089e-16
      vertex -0.174801 -3.00122 -2
      vertex -0.248152 -4.26061 -4.44089e-16
    endloop
  endfacet
  facet normal -0.049273 0.845994 0.530911
    outer loop
      vertex 0.52204 -2.96063 -2
      vertex 0.517136 -2.96092 -2
      vertex 0.741102 -4.203 -4.44089e-16
    endloop
  endfacet
  facet normal -0.049273 0.845994 0.530911
    outer loop
      vertex 0.741102 -4.203 -4.44089e-16
      vertex 0.517136 -2.96092 -2
      vertex -0.24471 -4.26041 -4.44089e-16
    endloop
  endfacet
  facet normal -0.243045 0.811826 0.530911
    outer loop
      vertex 0.744405 -4.20201 -4.44089e-16
      vertex 1.18603 -2.76185 -2
      vertex 0.741102 -4.203 -4.44089e-16
    endloop
  endfacet
  facet normal -0.243045 0.811826 0.530911
    outer loop
      vertex 0.741102 -4.203 -4.44089e-16
      vertex 1.18603 -2.76185 -2
      vertex 0.52204 -2.96063 -2
    endloop
  endfacet
  facet normal -0.243045 0.811826 0.530912
    outer loop
      vertex 1.19074 -2.76044 -2
      vertex 1.18603 -2.76185 -2
      vertex 1.6904 -3.91879 -4.44089e-16
    endloop
  endfacet
  facet normal -0.243045 0.811826 0.530912
    outer loop
      vertex 1.6904 -3.91879 -4.44089e-16
      vertex 1.18603 -2.76185 -2
      vertex 0.744405 -4.20201 -4.44089e-16
    endloop
  endfacet
  facet normal -0.423713 0.733894 0.530912
    outer loop
      vertex 1.69339 -3.91707 -4.44089e-16
      vertex 1.79099 -2.41389 -2
      vertex 1.6904 -3.91879 -4.44089e-16
    endloop
  endfacet
  facet normal -0.423713 0.733894 0.530912
    outer loop
      vertex 1.6904 -3.91879 -4.44089e-16
      vertex 1.79099 -2.41389 -2
      vertex 1.19074 -2.76044 -2
    endloop
  endfacet
  facet normal -0.423714 0.733893 0.530911
    outer loop
      vertex 1.79524 -2.41143 -2
      vertex 1.79099 -2.41389 -2
      vertex 2.54857 -3.42333 -4.44089e-16
    endloop
  endfacet
  facet normal -0.423714 0.733893 0.530911
    outer loop
      vertex 2.54857 -3.42333 -4.44089e-16
      vertex 1.79099 -2.41389 -2
      vertex 1.69339 -3.91707 -4.44089e-16
    endloop
  endfacet
  facet normal -0.581541 0.616396 0.530911
    outer loop
      vertex 2.55108 -3.42096 -4.44089e-16
      vertex 2.29939 -1.93579 -2
      vertex 2.54857 -3.42333 -4.44089e-16
    endloop
  endfacet
  facet normal -0.581541 0.616396 0.530911
    outer loop
      vertex 2.54857 -3.42333 -4.44089e-16
      vertex 2.29939 -1.93579 -2
      vertex 1.79524 -2.41143 -2
    endloop
  endfacet
  facet normal -0.58154 0.616397 0.530911
    outer loop
      vertex 3.26935 -2.74331 -4.44089e-16
      vertex 2.30296 -1.93242 -2
      vertex 2.55108 -3.42096 -4.44089e-16
    endloop
  endfacet
  facet normal -0.58154 0.616397 0.530911
    outer loop
      vertex 2.55108 -3.42096 -4.44089e-16
      vertex 2.30296 -1.93242 -2
      vertex 2.29939 -1.93579 -2
    endloop
  endfacet
  facet normal -0.708015 0.465669 0.530912
    outer loop
      vertex 3.27124 -2.74043 -4.44089e-16
      vertex 2.68384 -1.35333 -2
      vertex 3.26935 -2.74331 -4.44089e-16
    endloop
  endfacet
  facet normal -0.708015 0.465669 0.530912
    outer loop
      vertex 3.26935 -2.74331 -4.44089e-16
      vertex 2.68384 -1.35333 -2
      vertex 2.30296 -1.93242 -2
    endloop
  endfacet
  facet normal -0.708016 0.465668 0.530911
    outer loop
      vertex 3.81387 -1.9154 -4.44089e-16
      vertex 2.68653 -1.34923 -2
      vertex 3.27124 -2.74043 -4.44089e-16
    endloop
  endfacet
  facet normal -0.708016 0.465668 0.530911
    outer loop
      vertex 3.27124 -2.74043 -4.44089e-16
      vertex 2.68653 -1.34923 -2
      vertex 2.68384 -1.35333 -2
    endloop
  endfacet
  facet normal -0.796321 0.289838 0.530911
    outer loop
      vertex 3.81505 -1.91216 -4.44089e-16
      vertex 2.92359 -0.697919 -2
      vertex 3.81387 -1.9154 -4.44089e-16
    endloop
  endfacet
  facet normal -0.796321 0.289838 0.530911
    outer loop
      vertex 3.81387 -1.9154 -4.44089e-16
      vertex 2.92359 -0.697919 -2
      vertex 2.68653 -1.34923 -2
    endloop
  endfacet
  facet normal -0.796321 0.289838 0.530911
    outer loop
      vertex 4.15279 -0.98423 -4.44089e-16
      vertex 2.92527 -0.693303 -2
      vertex 3.81505 -1.91216 -4.44089e-16
    endloop
  endfacet
  facet normal -0.796321 0.289838 0.530911
    outer loop
      vertex 3.81505 -1.91216 -4.44089e-16
      vertex 2.92527 -0.693303 -2
      vertex 2.92359 -0.697919 -2
    endloop
  endfacet
  facet normal -0.841697 0.0983798 0.530911
    outer loop
      vertex 4.15319 -0.980805 -4.44089e-16
      vertex 3.00574 -0.00487963 -2
      vertex 4.15279 -0.98423 -4.44089e-16
    endloop
  endfacet
  facet normal -0.841697 0.0983798 0.530911
    outer loop
      vertex 4.15279 -0.98423 -4.44089e-16
      vertex 3.00574 -0.00487963 -2
      vertex 2.92527 -0.693303 -2
    endloop
  endfacet
  facet normal -0.841697 0.0983803 0.530911
    outer loop
      vertex 4.26783 0 -4.44089e-16
      vertex 3.00631 0 -2
      vertex 4.15319 -0.980805 -4.44089e-16
    endloop
  endfacet
  facet normal -0.841697 0.0983803 0.530911
    outer loop
      vertex 4.15319 -0.980805 -4.44089e-16
      vertex 3.00631 0 -2
      vertex 3.00574 -0.00487963 -2
    endloop
  endfacet
  facet normal -0.841697 -0.0983798 0.530911
    outer loop
      vertex 4.26783 0 -4.44089e-16
      vertex 4.26743 0.00342499 -4.44089e-16
      vertex 3.00631 0 -2
    endloop
  endfacet
  facet normal -0.841697 -0.0983798 0.530911
    outer loop
      vertex 3.00631 0 -2
      vertex 4.26743 0.00342499 -4.44089e-16
      vertex 2.92584 0.688423 -2
    endloop
  endfacet
  facet normal -0.841697 -0.0983803 0.530911
    outer loop
      vertex 4.26743 0.00342499 -4.44089e-16
      vertex 4.15279 0.98423 -4.44089e-16
      vertex 2.92584 0.688423 -2
    endloop
  endfacet
  facet normal -0.841697 -0.0983803 0.530911
    outer loop
      vertex 2.92584 0.688423 -2
      vertex 4.15279 0.98423 -4.44089e-16
      vertex 2.92527 0.693303 -2
    endloop
  endfacet
  facet normal -0.796321 -0.289838 0.530911
    outer loop
      vertex 4.15279 0.98423 -4.44089e-16
      vertex 4.15161 0.987471 -4.44089e-16
      vertex 2.92527 0.693303 -2
    endloop
  endfacet
  facet normal -0.796321 -0.289838 0.530911
    outer loop
      vertex 2.92527 0.693303 -2
      vertex 4.15161 0.987471 -4.44089e-16
      vertex 2.68821 1.34461 -2
    endloop
  endfacet
  facet normal -0.796321 -0.289838 0.530911
    outer loop
      vertex 4.15161 0.987471 -4.44089e-16
      vertex 3.81387 1.9154 -4.44089e-16
      vertex 2.68821 1.34461 -2
    endloop
  endfacet
  facet normal -0.796321 -0.289838 0.530911
    outer loop
      vertex 2.68821 1.34461 -2
      vertex 3.81387 1.9154 -4.44089e-16
      vertex 2.68653 1.34923 -2
    endloop
  endfacet
  facet normal -0.708015 -0.46567 0.530911
    outer loop
      vertex 3.81387 1.9154 -4.44089e-16
      vertex 3.81198 1.91828 -4.44089e-16
      vertex 2.68653 1.34923 -2
    endloop
  endfacet
  facet normal -0.708015 -0.46567 0.530911
    outer loop
      vertex 2.68653 1.34923 -2
      vertex 3.81198 1.91828 -4.44089e-16
      vertex 2.30566 1.92831 -2
    endloop
  endfacet
  facet normal -0.708016 -0.465668 0.530911
    outer loop
      vertex 3.81198 1.91828 -4.44089e-16
      vertex 3.26935 2.74331 -4.44089e-16
      vertex 2.30566 1.92831 -2
    endloop
  endfacet
  facet normal -0.708016 -0.465668 0.530911
    outer loop
      vertex 2.30566 1.92831 -2
      vertex 3.26935 2.74331 -4.44089e-16
      vertex 2.30296 1.93242 -2
    endloop
  endfacet
  facet normal -0.58154 -0.616396 0.530912
    outer loop
      vertex 2.30296 1.93242 -2
      vertex 3.26935 2.74331 -4.44089e-16
      vertex 3.26684 2.74568 -4.44089e-16
    endloop
  endfacet
  facet normal -0.58154 -0.616396 0.530912
    outer loop
      vertex 1.79882 2.40806 -2
      vertex 2.30296 1.93242 -2
      vertex 3.26684 2.74568 -4.44089e-16
    endloop
  endfacet
  facet normal -0.58154 -0.616397 0.530911
    outer loop
      vertex 1.79882 2.40806 -2
      vertex 3.26684 2.74568 -4.44089e-16
      vertex 2.54857 3.42333 -4.44089e-16
    endloop
  endfacet
  facet normal -0.58154 -0.616397 0.530911
    outer loop
      vertex 1.79524 2.41143 -2
      vertex 1.79882 2.40806 -2
      vertex 2.54857 3.42333 -4.44089e-16
    endloop
  endfacet
  facet normal -0.423713 -0.733894 0.530911
    outer loop
      vertex 1.79524 2.41143 -2
      vertex 2.54857 3.42333 -4.44089e-16
      vertex 2.54559 3.42505 -4.44089e-16
    endloop
  endfacet
  facet normal -0.423713 -0.733894 0.530911
    outer loop
      vertex 1.19499 2.75798 -2
      vertex 1.79524 2.41143 -2
      vertex 2.54559 3.42505 -4.44089e-16
    endloop
  endfacet
  facet normal -0.423714 -0.733893 0.530912
    outer loop
      vertex 1.19499 2.75798 -2
      vertex 2.54559 3.42505 -4.44089e-16
      vertex 1.6904 3.91879 -4.44089e-16
    endloop
  endfacet
  facet normal -0.423714 -0.733893 0.530912
    outer loop
      vertex 1.19074 2.76044 -2
      vertex 1.19499 2.75798 -2
      vertex 1.6904 3.91879 -4.44089e-16
    endloop
  endfacet
  facet normal -0.243045 -0.811826 0.530912
    outer loop
      vertex 1.19074 2.76044 -2
      vertex 1.6904 3.91879 -4.44089e-16
      vertex 1.6871 3.91978 -4.44089e-16
    endloop
  endfacet
  facet normal -0.243045 -0.811826 0.530912
    outer loop
      vertex 0.526747 2.95923 -2
      vertex 1.19074 2.76044 -2
      vertex 1.6871 3.91978 -4.44089e-16
    endloop
  endfacet
  facet normal -0.243045 -0.811827 0.530911
    outer loop
      vertex 0.526747 2.95923 -2
      vertex 1.6871 3.91978 -4.44089e-16
      vertex 0.741102 4.203 -4.44089e-16
    endloop
  endfacet
  facet normal -0.243045 -0.811827 0.530911
    outer loop
      vertex 0.52204 2.96063 -2
      vertex 0.526747 2.95923 -2
      vertex 0.741102 4.203 -4.44089e-16
    endloop
  endfacet
  facet normal -0.0492733 -0.845994 0.530911
    outer loop
      vertex 0.52204 2.96063 -2
      vertex 0.741102 4.203 -4.44089e-16
      vertex 0.737659 4.2032 -4.44089e-16
    endloop
  endfacet
  facet normal -0.0492733 -0.845994 0.530911
    outer loop
      vertex -0.169896 3.00094 -2
      vertex 0.52204 2.96063 -2
      vertex 0.737659 4.2032 -4.44089e-16
    endloop
  endfacet
  facet normal -0.049273 -0.845994 0.530911
    outer loop
      vertex -0.174801 3.00122 -2
      vertex -0.169896 3.00094 -2
      vertex 0.737659 4.2032 -4.44089e-16
    endloop
  endfacet
  facet normal -0.049273 -0.845994 0.530911
    outer loop
      vertex -0.248152 4.26061 -4.44089e-16
      vertex -0.174801 3.00122 -2
      vertex 0.737659 4.2032 -4.44089e-16
    endloop
  endfacet
  facet normal 0.147153 -0.834553 0.530911
    outer loop
      vertex -0.174801 3.00122 -2
      vertex -0.248152 4.26061 -4.44089e-16
      vertex -0.251548 4.26001 -4.44089e-16
    endloop
  endfacet
  facet normal 0.147153 -0.834553 0.530911
    outer loop
      vertex -0.857381 2.88086 -2
      vertex -0.174801 3.00122 -2
      vertex -0.251548 4.26001 -4.44089e-16
    endloop
  endfacet
  facet normal 0.147154 -0.834553 0.530911
    outer loop
      vertex -0.862219 2.88001 -2
      vertex -0.857381 2.88086 -2
      vertex -0.251548 4.26001 -4.44089e-16
    endloop
  endfacet
  facet normal 0.147154 -0.834553 0.530911
    outer loop
      vertex -1.22403 4.08854 -4.44089e-16
      vertex -0.862219 2.88001 -2
      vertex -0.251548 4.26001 -4.44089e-16
    endloop
  endfacet
  facet normal 0.33565 -0.778121 0.530911
    outer loop
      vertex -0.862219 2.88001 -2
      vertex -1.22403 4.08854 -4.44089e-16
      vertex -1.22719 4.08717 -4.44089e-16
    endloop
  endfacet
  facet normal 0.33565 -0.778121 0.530911
    outer loop
      vertex -1.49864 2.60548 -2
      vertex -0.862219 2.88001 -2
      vertex -1.22719 4.08717 -4.44089e-16
    endloop
  endfacet
  facet normal 0.335649 -0.778121 0.530911
    outer loop
      vertex -1.50315 2.60354 -2
      vertex -1.49864 2.60548 -2
      vertex -1.22719 4.08717 -4.44089e-16
    endloop
  endfacet
  facet normal 0.335649 -0.778121 0.530911
    outer loop
      vertex -2.13392 3.69605 -4.44089e-16
      vertex -1.50315 2.60354 -2
      vertex -1.22719 4.08717 -4.44089e-16
    endloop
  endfacet
  facet normal 0.506048 -0.679741 0.530911
    outer loop
      vertex -2.05911 2.18964 -2
      vertex -1.50315 2.60354 -2
      vertex -2.13392 3.69605 -4.44089e-16
    endloop
  endfacet
  facet normal 0.506048 -0.679741 0.530911
    outer loop
      vertex -2.13668 3.69399 -4.44089e-16
      vertex -2.05911 2.18964 -2
      vertex -2.13392 3.69605 -4.44089e-16
    endloop
  endfacet
  facet normal 0.506049 -0.679741 0.530911
    outer loop
      vertex -2.06305 2.18671 -2
      vertex -2.05911 2.18964 -2
      vertex -2.13668 3.69399 -4.44089e-16
    endloop
  endfacet
  facet normal 0.506049 -0.679741 0.530911
    outer loop
      vertex -2.92876 3.10431 -4.44089e-16
      vertex -2.06305 2.18671 -2
      vertex -2.13668 3.69399 -4.44089e-16
    endloop
  endfacet
  facet normal 0.649167 -0.544716 0.530911
    outer loop
      vertex -2.50858 1.65576 -2
      vertex -2.06305 2.18671 -2
      vertex -2.92876 3.10431 -4.44089e-16
    endloop
  endfacet
  facet normal 0.649167 -0.544716 0.530911
    outer loop
      vertex -2.93098 3.10167 -4.44089e-16
      vertex -2.50858 1.65576 -2
      vertex -2.92876 3.10431 -4.44089e-16
    endloop
  endfacet
  facet normal 0.649167 -0.544716 0.530911
    outer loop
      vertex -2.51173 1.65199 -2
      vertex -2.50858 1.65576 -2
      vertex -2.93098 3.10167 -4.44089e-16
    endloop
  endfacet
  facet normal 0.649167 -0.544716 0.530911
    outer loop
      vertex -3.56572 2.34521 -4.44089e-16
      vertex -2.51173 1.65199 -2
      vertex -2.93098 3.10167 -4.44089e-16
    endloop
  endfacet
  facet normal 0.757289 -0.380325 0.530911
    outer loop
      vertex -2.8228 1.03261 -2
      vertex -2.51173 1.65199 -2
      vertex -3.56572 2.34521 -4.44089e-16
    endloop
  endfacet
  facet normal 0.757289 -0.380325 0.530911
    outer loop
      vertex -3.56727 2.34213 -4.44089e-16
      vertex -2.8228 1.03261 -2
      vertex -3.56572 2.34521 -4.44089e-16
    endloop
  endfacet
  facet normal 0.757289 -0.380325 0.530911
    outer loop
      vertex -2.82501 1.02822 -2
      vertex -2.8228 1.03261 -2
      vertex -3.56727 2.34213 -4.44089e-16
    endloop
  endfacet
  facet normal 0.757289 -0.380325 0.530911
    outer loop
      vertex -4.01045 1.45968 -4.44089e-16
      vertex -2.82501 1.02822 -2
      vertex -3.56727 2.34213 -4.44089e-16
    endloop
  endfacet
  facet normal 0.824585 -0.19543 0.530911
    outer loop
      vertex -2.98485 0.353792 -2
      vertex -2.82501 1.02822 -2
      vertex -4.01045 1.45968 -4.44089e-16
    endloop
  endfacet
  facet normal 0.824585 -0.19543 0.530911
    outer loop
      vertex -4.01125 1.45633 -4.44089e-16
      vertex -2.98485 0.353792 -2
      vertex -4.01045 1.45968 -4.44089e-16
    endloop
  endfacet
  facet normal 0.824585 -0.19543 0.530911
    outer loop
      vertex -2.98598 0.349011 -2
      vertex -2.98485 0.353792 -2
      vertex -4.01125 1.45633 -4.44089e-16
    endloop
  endfacet
  facet normal 0.824585 -0.19543 0.530911
    outer loop
      vertex -4.23898 0.495465 -4.44089e-16
      vertex -2.98598 0.349011 -2
      vertex -4.01125 1.45633 -4.44089e-16
    endloop
  endfacet
  facet normal 0 -1 0
    outer loop
      vertex 58.5 9.99 -2.01556
      vertex 58.5 9.99 -6.68444
      vertex 60 9.99 -4.35
    endloop
  endfacet
  facet normal 0 -1 0
    outer loop
      vertex -58.5 9.99 -6.68444
      vertex -58.5 9.99 -2.01556
      vertex -60 9.99 -4.35
    endloop
  endfacet
  facet normal 0 0.707107 0.707107
    outer loop
      vertex -17.875 36.9087 50.9087
      vertex 17.875 36.9087 50.9087
      vertex -17.875 39.6664 48.151
    endloop
  endfacet
  facet normal 0 0.707107 0.707107
    outer loop
      vertex -17.875 39.6664 48.151
      vertex 17.875 36.9087 50.9087
      vertex 17.875 39.6664 48.151
    endloop
  endfacet
  facet normal 0 -0.707107 0.707107
    outer loop
      vertex -17.875 36.9087 50.9087
      vertex -17.875 -14 0
      vertex 17.875 -14 0
    endloop
  endfacet
  facet normal 0 -0.707107 0.707107
    outer loop
      vertex 17.875 36.9087 50.9087
      vertex -17.875 36.9087 50.9087
      vertex 17.875 -14 0
    endloop
  endfacet
  facet normal 0 -0.707107 -0.707107
    outer loop
      vertex -15.875 38.2522 46.7368
      vertex 15.875 38.2522 46.7368
      vertex 15.875 36.9052 48.0838
    endloop
  endfacet
  facet normal 0 -0.707107 -0.707107
    outer loop
      vertex -15.875 36.9052 48.0838
      vertex -15.875 38.2522 46.7368
      vertex 15.875 36.9052 48.0838
    endloop
  endfacet
  facet normal 0 0.707107 -0.707107
    outer loop
      vertex 15.875 36.9052 48.0838
      vertex 15.875 -11.1751 0.00353553
      vertex -15.875 36.9052 48.0838
    endloop
  endfacet
  facet normal 0 0.707107 -0.707107
    outer loop
      vertex -15.875 36.9052 48.0838
      vertex 15.875 -11.1751 0.00353553
      vertex -15.875 -11.1751 0.00353553
    endloop
  endfacet
  facet normal 0 0.707107 0.707107
    outer loop
      vertex 15.875 -9.82453 -1.34704
      vertex -15.875 -9.82453 -1.34704
      vertex 15.875 -11.1751 0.00353553
    endloop
  endfacet
  facet normal 0 0.707107 0.707107
    outer loop
      vertex 15.875 -11.1751 0.00353553
      vertex -15.875 -9.82453 -1.34704
      vertex -15.875 -11.1751 0.00353553
    endloop
  endfacet
endsolid OpenSCAD_Model
