solid OpenSCAD_Model
  facet normal -1 0 0
    outer loop
      vertex -62.5 -14 -6.7
      vertex -62.5 -14 -4.44089e-16
      vertex -62.5 14 -6.7
    endloop
  endfacet
  facet normal -1 0 0
    outer loop
      vertex -62.5 14 -6.7
      vertex -62.5 -14 -4.44089e-16
      vertex -62.5 14 -4.44089e-16
    endloop
  endfacet
  facet normal 0 -1 0
    outer loop
      vertex -60 -14 -4.35
      vertex -62.5 -14 -6.7
      vertex -58.5 -14 -6.7
    endloop
  endfacet
  facet normal 0 -1 0
    outer loop
      vertex -60 -14 -4.35
      vertex -58.5 -14 -2.01556
      vertex -62.5 -14 -4.44089e-16
    endloop
  endfacet
  facet normal 0 -1 0
    outer loop
      vertex -62.5 -14 -4.44089e-16
      vertex -62.5 -14 -6.7
      vertex -60 -14 -4.35
    endloop
  endfacet
  facet normal 0 -1 0
    outer loop
      vertex -58.5 -14 -2
      vertex -62.5 -14 -4.44089e-16
      vertex -58.5 -14 -2.01556
    endloop
  endfacet
  facet normal 0 -1 0
    outer loop
      vertex -58.49 -14 -2
      vertex -62.5 -14 -4.44089e-16
      vertex -58.5 -14 -2
    endloop
  endfacet
  facet normal 0 -1 0
    outer loop
      vertex 58.49 -14 -2
      vertex -62.5 -14 -4.44089e-16
      vertex -58.49 -14 -2
    endloop
  endfacet
  facet normal 0 -1 0
    outer loop
      vertex 58.5 -14 -2
      vertex -62.5 -14 -4.44089e-16
      vertex 58.49 -14 -2
    endloop
  endfacet
  facet normal 0 -1 0
    outer loop
      vertex 62.5 -14 -4.44089e-16
      vertex -62.5 -14 -4.44089e-16
      vertex 58.5 -14 -2
    endloop
  endfacet
  facet normal 0 -1 0
    outer loop
      vertex 60 -14 -4.35
      vertex 58.5 -14 -2
      vertex 58.5 -14 -2.01556
    endloop
  endfacet
  facet normal 0 -1 0
    outer loop
      vertex 62.5 -14 -6.7
      vertex 58.5 -14 -2
      vertex 60 -14 -4.35
    endloop
  endfacet
  facet normal 0 -1 0
    outer loop
      vertex 58.5 -14 -6.7
      vertex 60 -14 -4.35
      vertex 58.5 -14 -6.68444
    endloop
  endfacet
  facet normal 0 -1 0
    outer loop
      vertex 62.5 -14 -6.7
      vertex 60 -14 -4.35
      vertex 58.5 -14 -6.7
    endloop
  endfacet
  facet normal 0 -1 0
    outer loop
      vertex 62.5 -14 -4.44089e-16
      vertex 58.5 -14 -2
      vertex 62.5 -14 -6.7
    endloop
  endfacet
  facet normal 0 -1 0
    outer loop
      vertex -58.5 -14 -6.68444
      vertex -60 -14 -4.35
      vertex -58.5 -14 -6.7
    endloop
  endfacet
  facet normal 0 0 -1
    outer loop
      vertex -62.5 -14 -6.7
      vertex -62.5 14 -6.7
      vertex -58.5 -14 -6.7
    endloop
  endfacet
  facet normal 0 0 -1
    outer loop
      vertex -58.5 10 -6.7
      vertex -62.5 14 -6.7
      vertex 62.5 14 -6.7
    endloop
  endfacet
  facet normal 0 0 -1
    outer loop
      vertex 58.5 -14 -6.7
      vertex 62.5 14 -6.7
      vertex 62.5 -14 -6.7
    endloop
  endfacet
  facet normal 0 0 -1
    outer loop
      vertex 58.5 10 -6.7
      vertex 62.5 14 -6.7
      vertex 58.5 -14 -6.7
    endloop
  endfacet
  facet normal 0 0 -1
    outer loop
      vertex -58.5 -14 -6.7
      vertex -62.5 14 -6.7
      vertex -58.5 10 -6.7
    endloop
  endfacet
  facet normal 0 0 -1
    outer loop
      vertex -58.5 10 -6.7
      vertex 62.5 14 -6.7
      vertex 58.5 10 -6.7
    endloop
  endfacet
  facet normal 0 1 0
    outer loop
      vertex -62.5 14 -6.7
      vertex -62.5 14 -4.44089e-16
      vertex -12.3113 14 -5.37241
    endloop
  endfacet
  facet normal 0 1 0
    outer loop
      vertex -62.5 14 -6.7
      vertex -12.3113 14 -5.37241
      vertex 62.5 14 -6.7
    endloop
  endfacet
  facet normal 0 1 0
    outer loop
      vertex 12.3113 14 -4.44089e-16
      vertex 62.5 14 -6.7
      vertex 12.3113 14 -5.37241
    endloop
  endfacet
  facet normal 0 1 0
    outer loop
      vertex -12.3113 14 -5.37241
      vertex 12.3113 14 -5.37241
      vertex 62.5 14 -6.7
    endloop
  endfacet
  facet normal 0 1 0
    outer loop
      vertex 62.5 14 -6.7
      vertex 12.3113 14 -4.44089e-16
      vertex 62.5 14 -4.44089e-16
    endloop
  endfacet
  facet normal 0 1 0
    outer loop
      vertex -12.3113 14 -5.37241
      vertex -62.5 14 -4.44089e-16
      vertex -12.3113 14 -4.44089e-16
    endloop
  endfacet
  facet normal 0 0 1
    outer loop
      vertex -17.875 -14 -4.44089e-16
      vertex -62.5 -14 -4.44089e-16
      vertex 62.5 -14 -4.44089e-16
    endloop
  endfacet
  facet normal 0 0 1
    outer loop
      vertex 62.5 14 -4.44089e-16
      vertex 12.3113 14 -4.44089e-16
      vertex 62.5 -14 -4.44089e-16
    endloop
  endfacet
  facet normal 0 0 1
    outer loop
      vertex 12.3113 14 -4.44089e-16
      vertex 8.03654 2.85407 -4.44089e-16
      vertex 62.5 -14 -4.44089e-16
    endloop
  endfacet
  facet normal 0 0 1
    outer loop
      vertex 8.03654 2.85407 -4.44089e-16
      vertex 2.82037 2.85407 -4.44089e-16
      vertex 62.5 -14 -4.44089e-16
    endloop
  endfacet
  facet normal 0 0 1
    outer loop
      vertex 2.82037 2.85407 -4.44089e-16
      vertex 3.01829 2.67872 -4.44089e-16
      vertex 62.5 -14 -4.44089e-16
    endloop
  endfacet
  facet normal 0 0 1
    outer loop
      vertex -15.875 -8.4775 -4.44089e-16
      vertex 15.875 -8.4775 -4.44089e-16
      vertex 0.486484 -4.00655 -4.44089e-16
    endloop
  endfacet
  facet normal 0 0 1
    outer loop
      vertex 3.01829 2.67872 -4.44089e-16
      vertex 3.02097 2.67635 -4.44089e-16
      vertex 62.5 -14 -4.44089e-16
    endloop
  endfacet
  facet normal 0 0 1
    outer loop
      vertex 3.02097 2.67635 -4.44089e-16
      vertex 3.57165 1.87856 -4.44089e-16
      vertex 62.5 -14 -4.44089e-16
    endloop
  endfacet
  facet normal 0 0 1
    outer loop
      vertex 3.57165 1.87856 -4.44089e-16
      vertex 3.57368 1.87561 -4.44089e-16
      vertex 62.5 -14 -4.44089e-16
    endloop
  endfacet
  facet normal 0 0 1
    outer loop
      vertex 3.57368 1.87561 -4.44089e-16
      vertex 3.91743 0.969221 -4.44089e-16
      vertex 62.5 -14 -4.44089e-16
    endloop
  endfacet
  facet normal 0 0 1
    outer loop
      vertex 3.91743 0.969221 -4.44089e-16
      vertex 3.9187 0.965874 -4.44089e-16
      vertex 62.5 -14 -4.44089e-16
    endloop
  endfacet
  facet normal 0 0 1
    outer loop
      vertex -3.02097 2.67635 -4.44089e-16
      vertex -8.03654 2.85407 -4.44089e-16
      vertex -3.02301 2.6734 -4.44089e-16
    endloop
  endfacet
  facet normal 0 0 1
    outer loop
      vertex 3.9187 0.965874 -4.44089e-16
      vertex 4.03555 0.00355419 -4.44089e-16
      vertex 62.5 -14 -4.44089e-16
    endloop
  endfacet
  facet normal 0 0 1
    outer loop
      vertex 4.03555 0.00355419 -4.44089e-16
      vertex 4.03598 0 -4.44089e-16
      vertex 62.5 -14 -4.44089e-16
    endloop
  endfacet
  facet normal 0 0 1
    outer loop
      vertex 3.91913 -0.962319 -4.44089e-16
      vertex 3.9187 -0.965874 -4.44089e-16
      vertex 62.5 -14 -4.44089e-16
    endloop
  endfacet
  facet normal 0 0 1
    outer loop
      vertex -4.03598 0 -4.44089e-16
      vertex -3.91913 0.962319 -4.44089e-16
      vertex -62.5 14 -4.44089e-16
    endloop
  endfacet
  facet normal 0 0 1
    outer loop
      vertex 3.9187 -0.965874 -4.44089e-16
      vertex 3.57495 -1.87227 -4.44089e-16
      vertex 62.5 -14 -4.44089e-16
    endloop
  endfacet
  facet normal 0 0 1
    outer loop
      vertex 3.57495 -1.87227 -4.44089e-16
      vertex 3.57368 -1.87561 -4.44089e-16
      vertex 62.5 -14 -4.44089e-16
    endloop
  endfacet
  facet normal 0 0 1
    outer loop
      vertex 3.57368 -1.87561 -4.44089e-16
      vertex 3.02301 -2.6734 -4.44089e-16
      vertex 62.5 -14 -4.44089e-16
    endloop
  endfacet
  facet normal 0 0 1
    outer loop
      vertex 3.02301 -2.6734 -4.44089e-16
      vertex 3.02097 -2.67635 -4.44089e-16
      vertex 62.5 -14 -4.44089e-16
    endloop
  endfacet
  facet normal 0 0 1
    outer loop
      vertex 3.02097 -2.67635 -4.44089e-16
      vertex 2.29538 -3.31917 -4.44089e-16
      vertex 62.5 -14 -4.44089e-16
    endloop
  endfacet
  facet normal 0 0 1
    outer loop
      vertex 2.29538 -3.31917 -4.44089e-16
      vertex 2.2927 -3.32155 -4.44089e-16
      vertex 62.5 -14 -4.44089e-16
    endloop
  endfacet
  facet normal 0 0 1
    outer loop
      vertex 2.2927 -3.32155 -4.44089e-16
      vertex 1.43435 -3.77204 -4.44089e-16
      vertex 62.5 -14 -4.44089e-16
    endloop
  endfacet
  facet normal 0 0 1
    outer loop
      vertex 1.43435 -3.77204 -4.44089e-16
      vertex 1.43118 -3.77371 -4.44089e-16
      vertex 62.5 -14 -4.44089e-16
    endloop
  endfacet
  facet normal 0 0 1
    outer loop
      vertex 1.43118 -3.77371 -4.44089e-16
      vertex 0.48996 -4.0057 -4.44089e-16
      vertex 62.5 -14 -4.44089e-16
    endloop
  endfacet
  facet normal 0 0 1
    outer loop
      vertex -0.486484 -4.00655 -4.44089e-16
      vertex -1.4277 -3.77456 -4.44089e-16
      vertex -62.5 -14 -4.44089e-16
    endloop
  endfacet
  facet normal 0 0 1
    outer loop
      vertex 0.48996 -4.0057 -4.44089e-16
      vertex 0.486484 -4.00655 -4.44089e-16
      vertex 62.5 -14 -4.44089e-16
    endloop
  endfacet
  facet normal 0 0 1
    outer loop
      vertex -3.57368 1.87561 -4.44089e-16
      vertex -3.02301 2.6734 -4.44089e-16
      vertex -8.03654 2.85407 -4.44089e-16
    endloop
  endfacet
  facet normal 0 0 1
    outer loop
      vertex -1.43118 -3.77371 -4.44089e-16
      vertex -2.28953 -3.32321 -4.44089e-16
      vertex -62.5 -14 -4.44089e-16
    endloop
  endfacet
  facet normal 0 0 1
    outer loop
      vertex -1.43118 -3.77371 -4.44089e-16
      vertex -62.5 -14 -4.44089e-16
      vertex -1.4277 -3.77456 -4.44089e-16
    endloop
  endfacet
  facet normal 0 0 1
    outer loop
      vertex -2.2927 -3.32155 -4.44089e-16
      vertex -3.01829 -2.67872 -4.44089e-16
      vertex -62.5 -14 -4.44089e-16
    endloop
  endfacet
  facet normal 0 0 1
    outer loop
      vertex -2.2927 -3.32155 -4.44089e-16
      vertex -62.5 -14 -4.44089e-16
      vertex -2.28953 -3.32321 -4.44089e-16
    endloop
  endfacet
  facet normal 0 0 1
    outer loop
      vertex -3.02097 -2.67635 -4.44089e-16
      vertex -3.57165 -1.87856 -4.44089e-16
      vertex -62.5 -14 -4.44089e-16
    endloop
  endfacet
  facet normal 0 0 1
    outer loop
      vertex -3.02097 -2.67635 -4.44089e-16
      vertex -62.5 -14 -4.44089e-16
      vertex -3.01829 -2.67872 -4.44089e-16
    endloop
  endfacet
  facet normal 0 0 1
    outer loop
      vertex -3.9187 0.965874 -4.44089e-16
      vertex -3.57495 1.87227 -4.44089e-16
      vertex -62.5 14 -4.44089e-16
    endloop
  endfacet
  facet normal 0 0 1
    outer loop
      vertex -62.5 14 -4.44089e-16
      vertex -62.5 -14 -4.44089e-16
      vertex -3.57165 -1.87856 -4.44089e-16
    endloop
  endfacet
  facet normal 0 0 1
    outer loop
      vertex -62.5 14 -4.44089e-16
      vertex -3.57165 -1.87856 -4.44089e-16
      vertex -3.57368 -1.87561 -4.44089e-16
    endloop
  endfacet
  facet normal 0 0 1
    outer loop
      vertex -62.5 14 -4.44089e-16
      vertex -3.57368 -1.87561 -4.44089e-16
      vertex -3.91743 -0.969221 -4.44089e-16
    endloop
  endfacet
  facet normal 0 0 1
    outer loop
      vertex -62.5 14 -4.44089e-16
      vertex -3.91743 -0.969221 -4.44089e-16
      vertex -3.9187 -0.965874 -4.44089e-16
    endloop
  endfacet
  facet normal 0 0 1
    outer loop
      vertex -62.5 14 -4.44089e-16
      vertex -3.9187 -0.965874 -4.44089e-16
      vertex -4.03555 -0.00355419 -4.44089e-16
    endloop
  endfacet
  facet normal 0 0 1
    outer loop
      vertex -62.5 14 -4.44089e-16
      vertex -4.03555 -0.00355419 -4.44089e-16
      vertex -4.03598 0 -4.44089e-16
    endloop
  endfacet
  facet normal 0 0 1
    outer loop
      vertex -3.9187 0.965874 -4.44089e-16
      vertex -62.5 14 -4.44089e-16
      vertex -3.91913 0.962319 -4.44089e-16
    endloop
  endfacet
  facet normal 0 0 1
    outer loop
      vertex -3.57368 1.87561 -4.44089e-16
      vertex -62.5 14 -4.44089e-16
      vertex -3.57495 1.87227 -4.44089e-16
    endloop
  endfacet
  facet normal 0 0 1
    outer loop
      vertex -8.03654 2.85407 -4.44089e-16
      vertex -62.5 14 -4.44089e-16
      vertex -3.57368 1.87561 -4.44089e-16
    endloop
  endfacet
  facet normal 0 0 1
    outer loop
      vertex -2.82037 2.85407 -4.44089e-16
      vertex -8.03654 2.85407 -4.44089e-16
      vertex -3.02097 2.67635 -4.44089e-16
    endloop
  endfacet
  facet normal 0 0 1
    outer loop
      vertex 17.875 -14 -4.44089e-16
      vertex -17.875 -14 -4.44089e-16
      vertex 62.5 -14 -4.44089e-16
    endloop
  endfacet
  facet normal 0 0 1
    outer loop
      vertex -17.875 -8.48457 -4.44089e-16
      vertex -62.5 -14 -4.44089e-16
      vertex -17.875 -14 -4.44089e-16
    endloop
  endfacet
  facet normal 0 0 1
    outer loop
      vertex 0.486484 -4.00655 -4.44089e-16
      vertex -62.5 -14 -4.44089e-16
      vertex -17.875 -8.48457 -4.44089e-16
    endloop
  endfacet
  facet normal 0 0 1
    outer loop
      vertex 15.875 -8.48457 -4.44089e-16
      vertex 17.875 -8.48457 -4.44089e-16
      vertex 15.875 -8.4775 -4.44089e-16
    endloop
  endfacet
  facet normal 0 0 1
    outer loop
      vertex -15.875 -8.4775 -4.44089e-16
      vertex -17.875 -8.48457 -4.44089e-16
      vertex -15.875 -8.48457 -4.44089e-16
    endloop
  endfacet
  facet normal 0 0 1
    outer loop
      vertex 0.486484 -4.00655 -4.44089e-16
      vertex -17.875 -8.48457 -4.44089e-16
      vertex -15.875 -8.4775 -4.44089e-16
    endloop
  endfacet
  facet normal 0 0 1
    outer loop
      vertex 17.875 -8.48457 -4.44089e-16
      vertex 17.875 -14 -4.44089e-16
      vertex 62.5 -14 -4.44089e-16
    endloop
  endfacet
  facet normal 0 0 1
    outer loop
      vertex 0.486484 -4.00655 -4.44089e-16
      vertex 17.875 -8.48457 -4.44089e-16
      vertex 62.5 -14 -4.44089e-16
    endloop
  endfacet
  facet normal 0 0 1
    outer loop
      vertex 0.486484 -4.00655 -4.44089e-16
      vertex 15.875 -8.4775 -4.44089e-16
      vertex 17.875 -8.48457 -4.44089e-16
    endloop
  endfacet
  facet normal 0 0 1
    outer loop
      vertex 4.03598 0 -4.44089e-16
      vertex 3.91913 -0.962319 -4.44089e-16
      vertex 62.5 -14 -4.44089e-16
    endloop
  endfacet
  facet normal 0 0 1
    outer loop
      vertex 0.486484 -4.00655 -4.44089e-16
      vertex -0.486484 -4.00655 -4.44089e-16
      vertex -62.5 -14 -4.44089e-16
    endloop
  endfacet
  facet normal 0 0 1
    outer loop
      vertex -8.03654 2.85407 -4.44089e-16
      vertex -12.3113 14 -4.44089e-16
      vertex -62.5 14 -4.44089e-16
    endloop
  endfacet
  facet normal 1 0 0
    outer loop
      vertex 62.5 -14 -4.44089e-16
      vertex 62.5 -14 -6.7
      vertex 62.5 14 -6.7
    endloop
  endfacet
  facet normal 1 0 0
    outer loop
      vertex 62.5 14 -4.44089e-16
      vertex 62.5 -14 -4.44089e-16
      vertex 62.5 14 -6.7
    endloop
  endfacet
  facet normal -1 0 0
    outer loop
      vertex 58.5 -14 -2
      vertex 58.5 9.99 -2.01556
      vertex 58.5 -14 -2.01556
    endloop
  endfacet
  facet normal -1 0 0
    outer loop
      vertex 58.5 10 -2
      vertex 58.5 9.99 -2.01556
      vertex 58.5 -14 -2
    endloop
  endfacet
  facet normal -1 0 0
    outer loop
      vertex 58.5 9.99 -6.68444
      vertex 58.5 9.99 -2.01556
      vertex 58.5 10 -2
    endloop
  endfacet
  facet normal -1 0 0
    outer loop
      vertex 58.5 9.99 -6.68444
      vertex 58.5 10 -2
      vertex 58.5 10 -6.7
    endloop
  endfacet
  facet normal -1 0 0
    outer loop
      vertex 58.5 9.99 -6.68444
      vertex 58.5 10 -6.7
      vertex 58.5 -14 -6.68444
    endloop
  endfacet
  facet normal -1 0 0
    outer loop
      vertex 58.5 10 -6.7
      vertex 58.5 -14 -6.7
      vertex 58.5 -14 -6.68444
    endloop
  endfacet
  facet normal -0.841295 0 0.540577
    outer loop
      vertex 58.5 -14 -6.68444
      vertex 60 -14 -4.35
      vertex 58.5 9.99 -6.68444
    endloop
  endfacet
  facet normal -0.841295 0 0.540577
    outer loop
      vertex 58.5 9.99 -6.68444
      vertex 60 -14 -4.35
      vertex 60 9.99 -4.35
    endloop
  endfacet
  facet normal -0.841295 0 -0.540577
    outer loop
      vertex 58.5 -14 -2.01556
      vertex 58.5 9.99 -2.01556
      vertex 60 -14 -4.35
    endloop
  endfacet
  facet normal -0.841295 0 -0.540577
    outer loop
      vertex 60 -14 -4.35
      vertex 58.5 9.99 -2.01556
      vertex 60 9.99 -4.35
    endloop
  endfacet
  facet normal 0 0 -1
    outer loop
      vertex -10.7772 10 -2
      vertex -9.62793 7.00339 -2
      vertex -58.5 10 -2
    endloop
  endfacet
  facet normal 0 0 -1
    outer loop
      vertex 2.65819 -1.40053 -2
      vertex 58.49 -14 -2
      vertex 2.24939 -1.99279 -2
    endloop
  endfacet
  facet normal 0 0 -1
    outer loop
      vertex 58.5 10 -2
      vertex 9.62793 7.00339 -2
      vertex 10.7772 10 -2
    endloop
  endfacet
  facet normal 0 0 -1
    outer loop
      vertex 58.49 9.99 -2
      vertex 9.62793 7.00339 -2
      vertex 58.5 10 -2
    endloop
  endfacet
  facet normal 0 0 -1
    outer loop
      vertex 58.5 -14 -2
      vertex 58.49 9.99 -2
      vertex 58.5 10 -2
    endloop
  endfacet
  facet normal 0 0 -1
    outer loop
      vertex -58.49 -14 -2
      vertex -58.5 10 -2
      vertex -58.49 9.99 -2
    endloop
  endfacet
  facet normal 0 0 -1
    outer loop
      vertex -0.362231 -2.98324 -2
      vertex 58.49 -14 -2
      vertex -58.49 -14 -2
    endloop
  endfacet
  facet normal 0 0 -1
    outer loop
      vertex -2.25213 -1.98882 -2
      vertex -58.5 10 -2
      vertex -2.66093 -1.39657 -2
    endloop
  endfacet
  facet normal 0 0 -1
    outer loop
      vertex -2.25213 -1.98882 -2
      vertex -58.49 9.99 -2
      vertex -58.5 10 -2
    endloop
  endfacet
  facet normal 0 0 -1
    outer loop
      vertex -58.5 10 -2
      vertex -58.49 -14 -2
      vertex -58.5 -14 -2
    endloop
  endfacet
  facet normal 0 0 -1
    outer loop
      vertex -58.5 10 -2
      vertex -9.62793 7.00339 -2
      vertex -3.00515 0 -2
    endloop
  endfacet
  facet normal 0 0 -1
    outer loop
      vertex 58.49 -14 -2
      vertex 2.66093 1.39657 -2
      vertex 2.25213 1.98882 -2
    endloop
  endfacet
  facet normal 0 0 -1
    outer loop
      vertex -58.5 10 -2
      vertex -3.00515 0 -2
      vertex -2.91841 -0.714393 -2
    endloop
  endfacet
  facet normal 0 0 -1
    outer loop
      vertex 58.49 -14 -2
      vertex 1.71073 2.47 -2
      vertex 1.70712 2.47319 -2
    endloop
  endfacet
  facet normal 0 0 -1
    outer loop
      vertex -58.5 10 -2
      vertex -2.91841 -0.714393 -2
      vertex -2.91783 -0.71918 -2
    endloop
  endfacet
  facet normal 0 0 -1
    outer loop
      vertex 58.49 -14 -2
      vertex 1.70712 2.47319 -2
      vertex 1.06991 2.80763 -2
    endloop
  endfacet
  facet normal 0 0 -1
    outer loop
      vertex -58.5 10 -2
      vertex -2.91783 -0.71918 -2
      vertex -2.66264 -1.39206 -2
    endloop
  endfacet
  facet normal 0 0 -1
    outer loop
      vertex 58.49 -14 -2
      vertex -9.62793 7.00339 -2
      vertex 9.62793 7.00339 -2
    endloop
  endfacet
  facet normal 0 0 -1
    outer loop
      vertex -58.5 10 -2
      vertex -2.66264 -1.39206 -2
      vertex -2.66093 -1.39657 -2
    endloop
  endfacet
  facet normal 0 0 -1
    outer loop
      vertex 58.49 -14 -2
      vertex 9.62793 7.00339 -2
      vertex 58.49 9.99 -2
    endloop
  endfacet
  facet normal 0 0 -1
    outer loop
      vertex 2.24578 -1.99598 -2
      vertex 58.49 -14 -2
      vertex 1.70712 -2.47319 -2
    endloop
  endfacet
  facet normal 0 0 -1
    outer loop
      vertex -58.49 9.99 -2
      vertex -2.25213 -1.98882 -2
      vertex -58.49 -14 -2
    endloop
  endfacet
  facet normal 0 0 -1
    outer loop
      vertex -2.25213 -1.98882 -2
      vertex -2.24939 -1.99279 -2
      vertex -58.49 -14 -2
    endloop
  endfacet
  facet normal 0 0 -1
    outer loop
      vertex 1.70285 -2.47544 -2
      vertex 58.49 -14 -2
      vertex 1.06564 -2.80987 -2
    endloop
  endfacet
  facet normal 0 0 -1
    outer loop
      vertex -2.24939 -1.99279 -2
      vertex -1.71073 -2.47 -2
      vertex -58.49 -14 -2
    endloop
  endfacet
  facet normal 0 0 -1
    outer loop
      vertex -1.71073 -2.47 -2
      vertex -1.70712 -2.47319 -2
      vertex -58.49 -14 -2
    endloop
  endfacet
  facet normal 0 0 -1
    outer loop
      vertex 1.06096 -2.81102 -2
      vertex 58.49 -14 -2
      vertex 0.362231 -2.98324 -2
    endloop
  endfacet
  facet normal 0 0 -1
    outer loop
      vertex -1.70712 -2.47319 -2
      vertex -1.06991 -2.80763 -2
      vertex -58.49 -14 -2
    endloop
  endfacet
  facet normal 0 0 -1
    outer loop
      vertex -1.06991 -2.80763 -2
      vertex -1.06564 -2.80987 -2
      vertex -58.49 -14 -2
    endloop
  endfacet
  facet normal 0 0 -1
    outer loop
      vertex -1.06564 -2.80987 -2
      vertex -0.366914 -2.98209 -2
      vertex -58.49 -14 -2
    endloop
  endfacet
  facet normal 0 0 -1
    outer loop
      vertex -0.366914 -2.98209 -2
      vertex -0.362231 -2.98324 -2
      vertex -58.49 -14 -2
    endloop
  endfacet
  facet normal 0 0 -1
    outer loop
      vertex 1.06564 -2.80987 -2
      vertex 58.49 -14 -2
      vertex 1.06096 -2.81102 -2
    endloop
  endfacet
  facet normal 0 0 -1
    outer loop
      vertex 1.70712 -2.47319 -2
      vertex 58.49 -14 -2
      vertex 1.70285 -2.47544 -2
    endloop
  endfacet
  facet normal 0 0 -1
    outer loop
      vertex 0.362231 -2.98324 -2
      vertex 58.49 -14 -2
      vertex -0.362231 -2.98324 -2
    endloop
  endfacet
  facet normal 0 0 -1
    outer loop
      vertex 58.49 -14 -2
      vertex 1.06564 2.80987 -2
      vertex -9.62793 7.00339 -2
    endloop
  endfacet
  facet normal 0 0 -1
    outer loop
      vertex 58.49 -14 -2
      vertex 1.06991 2.80763 -2
      vertex 1.06564 2.80987 -2
    endloop
  endfacet
  facet normal 0 0 -1
    outer loop
      vertex 58.49 -14 -2
      vertex 2.24939 1.99279 -2
      vertex 1.71073 2.47 -2
    endloop
  endfacet
  facet normal 0 0 -1
    outer loop
      vertex 58.49 -14 -2
      vertex 2.25213 1.98882 -2
      vertex 2.24939 1.99279 -2
    endloop
  endfacet
  facet normal 0 0 -1
    outer loop
      vertex 58.49 -14 -2
      vertex 2.66264 1.39206 -2
      vertex 2.66093 1.39657 -2
    endloop
  endfacet
  facet normal 0 0 -1
    outer loop
      vertex 58.49 -14 -2
      vertex 2.91783 0.71918 -2
      vertex 2.66264 1.39206 -2
    endloop
  endfacet
  facet normal 0 0 -1
    outer loop
      vertex -2.24578 1.99598 -2
      vertex -9.62793 7.00339 -2
      vertex -1.70712 2.47319 -2
    endloop
  endfacet
  facet normal 0 0 -1
    outer loop
      vertex 58.49 -14 -2
      vertex 2.91841 0.714393 -2
      vertex 2.91783 0.71918 -2
    endloop
  endfacet
  facet normal 0 0 -1
    outer loop
      vertex 58.49 -14 -2
      vertex 3.00515 0 -2
      vertex 2.91841 0.714393 -2
    endloop
  endfacet
  facet normal 0 0 -1
    outer loop
      vertex 58.49 -14 -2
      vertex 3.00457 -0.00478766 -2
      vertex 3.00515 0 -2
    endloop
  endfacet
  facet normal 0 0 -1
    outer loop
      vertex 58.49 -14 -2
      vertex 2.91783 -0.71918 -2
      vertex 3.00457 -0.00478766 -2
    endloop
  endfacet
  facet normal 0 0 -1
    outer loop
      vertex -1.70285 2.47544 -2
      vertex -9.62793 7.00339 -2
      vertex -1.06564 2.80987 -2
    endloop
  endfacet
  facet normal 0 0 -1
    outer loop
      vertex 58.49 -14 -2
      vertex 2.91612 -0.72369 -2
      vertex 2.91783 -0.71918 -2
    endloop
  endfacet
  facet normal 0 0 -1
    outer loop
      vertex 0.366914 2.98209 -2
      vertex -9.62793 7.00339 -2
      vertex 1.06564 2.80987 -2
    endloop
  endfacet
  facet normal 0 0 -1
    outer loop
      vertex -1.06096 2.81102 -2
      vertex -9.62793 7.00339 -2
      vertex -0.362231 2.98324 -2
    endloop
  endfacet
  facet normal 0 0 -1
    outer loop
      vertex 58.49 -14 -2
      vertex 2.65819 -1.40053 -2
      vertex 2.66093 -1.39657 -2
    endloop
  endfacet
  facet normal 0 0 -1
    outer loop
      vertex -0.362231 2.98324 -2
      vertex -9.62793 7.00339 -2
      vertex 0.362231 2.98324 -2
    endloop
  endfacet
  facet normal 0 0 -1
    outer loop
      vertex 2.91612 -0.72369 -2
      vertex 58.49 -14 -2
      vertex 2.66093 -1.39657 -2
    endloop
  endfacet
  facet normal 0 0 -1
    outer loop
      vertex 58.49 -14 -2
      vertex 2.24578 -1.99598 -2
      vertex 2.24939 -1.99279 -2
    endloop
  endfacet
  facet normal 0 0 -1
    outer loop
      vertex 0.362231 2.98324 -2
      vertex -9.62793 7.00339 -2
      vertex 0.366914 2.98209 -2
    endloop
  endfacet
  facet normal 0 0 -1
    outer loop
      vertex -1.06564 2.80987 -2
      vertex -9.62793 7.00339 -2
      vertex -1.06096 2.81102 -2
    endloop
  endfacet
  facet normal 0 0 -1
    outer loop
      vertex -1.70712 2.47319 -2
      vertex -9.62793 7.00339 -2
      vertex -1.70285 2.47544 -2
    endloop
  endfacet
  facet normal 0 0 -1
    outer loop
      vertex -2.24939 1.99279 -2
      vertex -9.62793 7.00339 -2
      vertex -2.24578 1.99598 -2
    endloop
  endfacet
  facet normal 0 0 -1
    outer loop
      vertex -2.65819 1.40053 -2
      vertex -9.62793 7.00339 -2
      vertex -2.24939 1.99279 -2
    endloop
  endfacet
  facet normal 0 0 -1
    outer loop
      vertex -2.66093 1.39657 -2
      vertex -9.62793 7.00339 -2
      vertex -2.65819 1.40053 -2
    endloop
  endfacet
  facet normal 0 0 -1
    outer loop
      vertex -2.91612 0.72369 -2
      vertex -9.62793 7.00339 -2
      vertex -2.66093 1.39657 -2
    endloop
  endfacet
  facet normal 0 0 -1
    outer loop
      vertex -2.91783 0.71918 -2
      vertex -9.62793 7.00339 -2
      vertex -2.91612 0.72369 -2
    endloop
  endfacet
  facet normal 0 0 -1
    outer loop
      vertex -3.00457 0.00478766 -2
      vertex -9.62793 7.00339 -2
      vertex -2.91783 0.71918 -2
    endloop
  endfacet
  facet normal 0 0 -1
    outer loop
      vertex -3.00515 0 -2
      vertex -9.62793 7.00339 -2
      vertex -3.00457 0.00478766 -2
    endloop
  endfacet
  facet normal 0 0 -1
    outer loop
      vertex 58.49 9.99 -2
      vertex 58.5 -14 -2
      vertex 58.49 -14 -2
    endloop
  endfacet
  facet normal 1 0 0
    outer loop
      vertex -58.5 9.99 -2.01556
      vertex -58.5 10 -2
      vertex -58.5 -14 -2
    endloop
  endfacet
  facet normal 1 0 0
    outer loop
      vertex -58.5 10 -6.7
      vertex -58.5 10 -2
      vertex -58.5 9.99 -2.01556
    endloop
  endfacet
  facet normal 1 0 0
    outer loop
      vertex -58.5 9.99 -6.68444
      vertex -58.5 -14 -6.68444
      vertex -58.5 10 -6.7
    endloop
  endfacet
  facet normal 1 0 0
    outer loop
      vertex -58.5 10 -6.7
      vertex -58.5 9.99 -2.01556
      vertex -58.5 9.99 -6.68444
    endloop
  endfacet
  facet normal 1 0 0
    outer loop
      vertex -58.5 -14 -6.7
      vertex -58.5 10 -6.7
      vertex -58.5 -14 -6.68444
    endloop
  endfacet
  facet normal 1 0 0
    outer loop
      vertex -58.5 -14 -2.01556
      vertex -58.5 9.99 -2.01556
      vertex -58.5 -14 -2
    endloop
  endfacet
  facet normal 0.841295 0 -0.540577
    outer loop
      vertex -60 9.99 -4.35
      vertex -58.5 9.99 -2.01556
      vertex -58.5 -14 -2.01556
    endloop
  endfacet
  facet normal 0.841295 0 -0.540577
    outer loop
      vertex -60 -14 -4.35
      vertex -60 9.99 -4.35
      vertex -58.5 -14 -2.01556
    endloop
  endfacet
  facet normal 0.841295 0 0.540577
    outer loop
      vertex -58.5 -14 -6.68444
      vertex -58.5 9.99 -6.68444
      vertex -60 9.99 -4.35
    endloop
  endfacet
  facet normal 0.841295 0 0.540577
    outer loop
      vertex -60 -14 -4.35
      vertex -58.5 -14 -6.68444
      vertex -60 9.99 -4.35
    endloop
  endfacet
  facet normal 0 -1 0
    outer loop
      vertex 58.5 10 -6.7
      vertex 58.5 10 -2
      vertex 10.7772 10 -2
    endloop
  endfacet
  facet normal 0 -1 0
    outer loop
      vertex -10.7772 10 -3.44438
      vertex 58.5 10 -6.7
      vertex 10.7772 10 -3.44438
    endloop
  endfacet
  facet normal 0 -1 0
    outer loop
      vertex 10.7772 10 -3.44438
      vertex 58.5 10 -6.7
      vertex 10.7772 10 -2
    endloop
  endfacet
  facet normal 0 -1 0
    outer loop
      vertex -58.5 10 -2
      vertex 58.5 10 -6.7
      vertex -10.7772 10 -3.44438
    endloop
  endfacet
  facet normal 0 -1 0
    outer loop
      vertex -58.5 10 -2
      vertex -10.7772 10 -3.44438
      vertex -10.7772 10 -2
    endloop
  endfacet
  facet normal 0 -1 0
    outer loop
      vertex -58.5 10 -6.7
      vertex 58.5 10 -6.7
      vertex -58.5 10 -2
    endloop
  endfacet
  facet normal -0.933684 0.358097 2.19271e-17
    outer loop
      vertex 8.03654 2.85407 -4.44089e-16
      vertex 12.3113 14 -4.44089e-16
      vertex 9.62793 7.00339 -2
    endloop
  endfacet
  facet normal -0.933684 0.358097 2.19271e-17
    outer loop
      vertex 10.7772 10 -3.44438
      vertex 12.3113 14 -4.44089e-16
      vertex 12.3113 14 -5.37241
    endloop
  endfacet
  facet normal -0.933684 0.358097 2.19271e-17
    outer loop
      vertex 10.7772 10 -2
      vertex 12.3113 14 -4.44089e-16
      vertex 10.7772 10 -3.44438
    endloop
  endfacet
  facet normal -0.933684 0.358097 2.19271e-17
    outer loop
      vertex 9.62793 7.00339 -2
      vertex 12.3113 14 -4.44089e-16
      vertex 10.7772 10 -2
    endloop
  endfacet
  facet normal 0 0.4342 0.900817
    outer loop
      vertex 12.3113 14 -5.37241
      vertex -12.3113 14 -5.37241
      vertex -10.7772 10 -3.44438
    endloop
  endfacet
  facet normal 0 0.4342 0.900817
    outer loop
      vertex 10.7772 10 -3.44438
      vertex 12.3113 14 -5.37241
      vertex -10.7772 10 -3.44438
    endloop
  endfacet
  facet normal 0.933684 0.358097 2.19271e-17
    outer loop
      vertex -9.62793 7.00339 -2
      vertex -12.3113 14 -4.44089e-16
      vertex -8.03654 2.85407 -4.44089e-16
    endloop
  endfacet
  facet normal 0.933684 0.358097 2.19271e-17
    outer loop
      vertex -10.7772 10 -2
      vertex -12.3113 14 -4.44089e-16
      vertex -9.62793 7.00339 -2
    endloop
  endfacet
  facet normal 0.933684 0.358097 2.19271e-17
    outer loop
      vertex -12.3113 14 -5.37241
      vertex -12.3113 14 -4.44089e-16
      vertex -10.7772 10 -2
    endloop
  endfacet
  facet normal 0.933684 0.358097 2.19271e-17
    outer loop
      vertex -12.3113 14 -5.37241
      vertex -10.7772 10 -2
      vertex -10.7772 10 -3.44438
    endloop
  endfacet
  facet normal 0 0.4342 0.900817
    outer loop
      vertex 9.62793 7.00339 -2
      vertex -9.62793 7.00339 -2
      vertex -8.03654 2.85407 -4.44089e-16
    endloop
  endfacet
  facet normal 0 0.4342 0.900817
    outer loop
      vertex -1.36543 3.60035 -0.359712
      vertex 9.62793 7.00339 -2
      vertex -8.03654 2.85407 -4.44089e-16
    endloop
  endfacet
  facet normal 0 0.4342 0.900817
    outer loop
      vertex -2.82037 2.85407 -4.44089e-16
      vertex -2.29116 3.20672 -0.169977
      vertex -8.03654 2.85407 -4.44089e-16
    endloop
  endfacet
  facet normal 0 0.4342 0.900817
    outer loop
      vertex -2.29116 3.20672 -0.169977
      vertex -2.23792 3.24219 -0.187076
      vertex -8.03654 2.85407 -4.44089e-16
    endloop
  endfacet
  facet normal 0 0.4342 0.900817
    outer loop
      vertex -2.23792 3.24219 -0.187076
      vertex -1.47961 3.55349 -0.337121
      vertex -8.03654 2.85407 -4.44089e-16
    endloop
  endfacet
  facet normal 0 0.4342 0.900817
    outer loop
      vertex -0.61301 3.74825 -0.430997
      vertex -0.4588 3.77856 -0.445607
      vertex 9.62793 7.00339 -2
    endloop
  endfacet
  facet normal 0 0.4342 0.900817
    outer loop
      vertex -1.47961 3.55349 -0.337121
      vertex -1.36543 3.60035 -0.359712
      vertex -8.03654 2.85407 -4.44089e-16
    endloop
  endfacet
  facet normal 0 0.4342 0.900817
    outer loop
      vertex -0.4588 3.77856 -0.445607
      vertex 0.4588 3.77856 -0.445607
      vertex 9.62793 7.00339 -2
    endloop
  endfacet
  facet normal 0 0.4342 0.900817
    outer loop
      vertex 1.23011 3.62695 -0.372533
      vertex 9.62793 7.00339 -2
      vertex 0.4588 3.77856 -0.445607
    endloop
  endfacet
  facet normal 0 0.4342 0.900817
    outer loop
      vertex 1.36543 3.60035 -0.359712
      vertex 9.62793 7.00339 -2
      vertex 1.23011 3.62695 -0.372533
    endloop
  endfacet
  facet normal 0 0.4342 0.900817
    outer loop
      vertex 2.16687 3.27136 -0.201135
      vertex 9.62793 7.00339 -2
      vertex 1.36543 3.60035 -0.359712
    endloop
  endfacet
  facet normal 0 0.4342 0.900817
    outer loop
      vertex 2.23792 3.24219 -0.187076
      vertex 9.62793 7.00339 -2
      vertex 2.16687 3.27136 -0.201135
    endloop
  endfacet
  facet normal 0 0.4342 0.900817
    outer loop
      vertex 2.82037 2.85407 -4.44089e-16
      vertex 9.62793 7.00339 -2
      vertex 2.23792 3.24219 -0.187076
    endloop
  endfacet
  facet normal 0 0.4342 0.900817
    outer loop
      vertex 8.03654 2.85407 -4.44089e-16
      vertex 9.62793 7.00339 -2
      vertex 2.82037 2.85407 -4.44089e-16
    endloop
  endfacet
  facet normal 0 0.4342 0.900817
    outer loop
      vertex -1.36543 3.60035 -0.359712
      vertex -0.61301 3.74825 -0.430997
      vertex 9.62793 7.00339 -2
    endloop
  endfacet
  facet normal 0.590337 -0.666353 0.455495
    outer loop
      vertex -2.24939 1.99279 -2
      vertex -2.24578 1.99598 -2
      vertex -2.29116 3.20672 -0.169977
    endloop
  endfacet
  facet normal 0.590337 -0.666353 0.455495
    outer loop
      vertex -3.02097 2.67635 -4.44089e-16
      vertex -2.24939 1.99279 -2
      vertex -2.82037 2.85407 -4.44089e-16
    endloop
  endfacet
  facet normal 0.590337 -0.666353 0.455495
    outer loop
      vertex -2.82037 2.85407 -4.44089e-16
      vertex -2.24939 1.99279 -2
      vertex -2.29116 3.20672 -0.169977
    endloop
  endfacet
  facet normal 0.732652 -0.505713 0.455495
    outer loop
      vertex -2.65819 1.40053 -2
      vertex -2.24939 1.99279 -2
      vertex -3.02097 2.67635 -4.44089e-16
    endloop
  endfacet
  facet normal 0.732652 -0.505713 0.455495
    outer loop
      vertex -3.02301 2.6734 -4.44089e-16
      vertex -2.65819 1.40053 -2
      vertex -3.02097 2.67635 -4.44089e-16
    endloop
  endfacet
  facet normal 0.732651 -0.505713 0.455495
    outer loop
      vertex -2.66093 1.39657 -2
      vertex -2.65819 1.40053 -2
      vertex -3.02301 2.6734 -4.44089e-16
    endloop
  endfacet
  facet normal 0.732651 -0.505713 0.455495
    outer loop
      vertex -3.57368 1.87561 -4.44089e-16
      vertex -2.66093 1.39657 -2
      vertex -3.02301 2.6734 -4.44089e-16
    endloop
  endfacet
  facet normal 0.832388 -0.315682 0.455495
    outer loop
      vertex -2.91612 0.72369 -2
      vertex -2.66093 1.39657 -2
      vertex -3.57368 1.87561 -4.44089e-16
    endloop
  endfacet
  facet normal 0.832388 -0.315682 0.455495
    outer loop
      vertex -3.57495 1.87227 -4.44089e-16
      vertex -2.91612 0.72369 -2
      vertex -3.57368 1.87561 -4.44089e-16
    endloop
  endfacet
  facet normal 0.832387 -0.315682 0.455495
    outer loop
      vertex -2.91783 0.71918 -2
      vertex -2.91612 0.72369 -2
      vertex -3.57495 1.87227 -4.44089e-16
    endloop
  endfacet
  facet normal 0.832387 -0.315682 0.455495
    outer loop
      vertex -3.9187 0.965874 -4.44089e-16
      vertex -2.91783 0.71918 -2
      vertex -3.57495 1.87227 -4.44089e-16
    endloop
  endfacet
  facet normal 0.883747 -0.107307 0.455495
    outer loop
      vertex -3.00457 0.00478766 -2
      vertex -2.91783 0.71918 -2
      vertex -3.9187 0.965874 -4.44089e-16
    endloop
  endfacet
  facet normal 0.883747 -0.107307 0.455495
    outer loop
      vertex -3.91913 0.962319 -4.44089e-16
      vertex -3.00457 0.00478766 -2
      vertex -3.9187 0.965874 -4.44089e-16
    endloop
  endfacet
  facet normal 0.883748 -0.107306 0.455495
    outer loop
      vertex -3.00515 0 -2
      vertex -3.00457 0.00478766 -2
      vertex -3.91913 0.962319 -4.44089e-16
    endloop
  endfacet
  facet normal 0.883748 -0.107306 0.455495
    outer loop
      vertex -4.03598 0 -4.44089e-16
      vertex -3.00515 0 -2
      vertex -3.91913 0.962319 -4.44089e-16
    endloop
  endfacet
  facet normal 0.883748 0.107307 0.455495
    outer loop
      vertex -4.03555 -0.00355419 -4.44089e-16
      vertex -2.91841 -0.714393 -2
      vertex -3.00515 0 -2
    endloop
  endfacet
  facet normal 0.883748 0.107307 0.455495
    outer loop
      vertex -4.03598 0 -4.44089e-16
      vertex -4.03555 -0.00355419 -4.44089e-16
      vertex -3.00515 0 -2
    endloop
  endfacet
  facet normal 0.883747 0.107306 0.455495
    outer loop
      vertex -3.9187 -0.965874 -4.44089e-16
      vertex -2.91783 -0.71918 -2
      vertex -2.91841 -0.714393 -2
    endloop
  endfacet
  facet normal 0.883747 0.107306 0.455495
    outer loop
      vertex -4.03555 -0.00355419 -4.44089e-16
      vertex -3.9187 -0.965874 -4.44089e-16
      vertex -2.91841 -0.714393 -2
    endloop
  endfacet
  facet normal 0.832387 0.315682 0.455495
    outer loop
      vertex -3.91743 -0.969221 -4.44089e-16
      vertex -2.66264 -1.39206 -2
      vertex -2.91783 -0.71918 -2
    endloop
  endfacet
  facet normal 0.832387 0.315682 0.455495
    outer loop
      vertex -3.9187 -0.965874 -4.44089e-16
      vertex -3.91743 -0.969221 -4.44089e-16
      vertex -2.91783 -0.71918 -2
    endloop
  endfacet
  facet normal 0.832387 0.315682 0.455495
    outer loop
      vertex -3.57368 -1.87561 -4.44089e-16
      vertex -2.66093 -1.39657 -2
      vertex -2.66264 -1.39206 -2
    endloop
  endfacet
  facet normal 0.832387 0.315682 0.455495
    outer loop
      vertex -3.91743 -0.969221 -4.44089e-16
      vertex -3.57368 -1.87561 -4.44089e-16
      vertex -2.66264 -1.39206 -2
    endloop
  endfacet
  facet normal 0.732652 0.505713 0.455495
    outer loop
      vertex -3.57165 -1.87856 -4.44089e-16
      vertex -2.25213 -1.98882 -2
      vertex -2.66093 -1.39657 -2
    endloop
  endfacet
  facet normal 0.732652 0.505713 0.455495
    outer loop
      vertex -3.57368 -1.87561 -4.44089e-16
      vertex -3.57165 -1.87856 -4.44089e-16
      vertex -2.66093 -1.39657 -2
    endloop
  endfacet
  facet normal 0.732651 0.505713 0.455495
    outer loop
      vertex -3.02097 -2.67635 -4.44089e-16
      vertex -2.24939 -1.99279 -2
      vertex -2.25213 -1.98882 -2
    endloop
  endfacet
  facet normal 0.732651 0.505713 0.455495
    outer loop
      vertex -3.57165 -1.87856 -4.44089e-16
      vertex -3.02097 -2.67635 -4.44089e-16
      vertex -2.25213 -1.98882 -2
    endloop
  endfacet
  facet normal 0.590337 0.666353 0.455495
    outer loop
      vertex -1.71073 -2.47 -2
      vertex -2.24939 -1.99279 -2
      vertex -3.01829 -2.67872 -4.44089e-16
    endloop
  endfacet
  facet normal 0.590337 0.666353 0.455495
    outer loop
      vertex -3.01829 -2.67872 -4.44089e-16
      vertex -2.24939 -1.99279 -2
      vertex -3.02097 -2.67635 -4.44089e-16
    endloop
  endfacet
  facet normal 0.590337 0.666353 0.455495
    outer loop
      vertex -1.70712 -2.47319 -2
      vertex -1.71073 -2.47 -2
      vertex -2.2927 -3.32155 -4.44089e-16
    endloop
  endfacet
  facet normal 0.590337 0.666353 0.455495
    outer loop
      vertex -2.2927 -3.32155 -4.44089e-16
      vertex -1.71073 -2.47 -2
      vertex -3.01829 -2.67872 -4.44089e-16
    endloop
  endfacet
  facet normal 0.413715 0.788267 0.455495
    outer loop
      vertex -1.06991 -2.80763 -2
      vertex -1.70712 -2.47319 -2
      vertex -2.28953 -3.32321 -4.44089e-16
    endloop
  endfacet
  facet normal 0.413715 0.788267 0.455495
    outer loop
      vertex -2.28953 -3.32321 -4.44089e-16
      vertex -1.70712 -2.47319 -2
      vertex -2.2927 -3.32155 -4.44089e-16
    endloop
  endfacet
  facet normal 0.413715 0.788267 0.455495
    outer loop
      vertex -1.06564 -2.80987 -2
      vertex -1.06991 -2.80763 -2
      vertex -1.43118 -3.77371 -4.44089e-16
    endloop
  endfacet
  facet normal 0.413715 0.788267 0.455495
    outer loop
      vertex -1.43118 -3.77371 -4.44089e-16
      vertex -1.06991 -2.80763 -2
      vertex -2.28953 -3.32321 -4.44089e-16
    endloop
  endfacet
  facet normal 0.213048 0.86437 0.455495
    outer loop
      vertex -0.366914 -2.98209 -2
      vertex -1.06564 -2.80987 -2
      vertex -1.4277 -3.77456 -4.44089e-16
    endloop
  endfacet
  facet normal 0.213048 0.86437 0.455495
    outer loop
      vertex -1.4277 -3.77456 -4.44089e-16
      vertex -1.06564 -2.80987 -2
      vertex -1.43118 -3.77371 -4.44089e-16
    endloop
  endfacet
  facet normal 0.213048 0.86437 0.455495
    outer loop
      vertex -0.362231 -2.98324 -2
      vertex -0.366914 -2.98209 -2
      vertex -0.486484 -4.00655 -4.44089e-16
    endloop
  endfacet
  facet normal 0.213048 0.86437 0.455495
    outer loop
      vertex -0.486484 -4.00655 -4.44089e-16
      vertex -0.366914 -2.98209 -2
      vertex -1.4277 -3.77456 -4.44089e-16
    endloop
  endfacet
  facet normal 0 0.890238 0.455495
    outer loop
      vertex 0.362231 -2.98324 -2
      vertex -0.362231 -2.98324 -2
      vertex 0.486484 -4.00655 -4.44089e-16
    endloop
  endfacet
  facet normal 0 0.890238 0.455495
    outer loop
      vertex 0.486484 -4.00655 -4.44089e-16
      vertex -0.362231 -2.98324 -2
      vertex -0.486484 -4.00655 -4.44089e-16
    endloop
  endfacet
  facet normal -0.213048 0.86437 0.455495
    outer loop
      vertex 0.48996 -4.0057 -4.44089e-16
      vertex 1.06096 -2.81102 -2
      vertex 0.486484 -4.00655 -4.44089e-16
    endloop
  endfacet
  facet normal -0.213048 0.86437 0.455495
    outer loop
      vertex 0.486484 -4.00655 -4.44089e-16
      vertex 1.06096 -2.81102 -2
      vertex 0.362231 -2.98324 -2
    endloop
  endfacet
  facet normal -0.213048 0.86437 0.455495
    outer loop
      vertex 1.06564 -2.80987 -2
      vertex 1.06096 -2.81102 -2
      vertex 1.43118 -3.77371 -4.44089e-16
    endloop
  endfacet
  facet normal -0.213048 0.86437 0.455495
    outer loop
      vertex 1.43118 -3.77371 -4.44089e-16
      vertex 1.06096 -2.81102 -2
      vertex 0.48996 -4.0057 -4.44089e-16
    endloop
  endfacet
  facet normal -0.413715 0.788267 0.455495
    outer loop
      vertex 1.43435 -3.77204 -4.44089e-16
      vertex 1.70285 -2.47544 -2
      vertex 1.43118 -3.77371 -4.44089e-16
    endloop
  endfacet
  facet normal -0.413715 0.788267 0.455495
    outer loop
      vertex 1.43118 -3.77371 -4.44089e-16
      vertex 1.70285 -2.47544 -2
      vertex 1.06564 -2.80987 -2
    endloop
  endfacet
  facet normal -0.413715 0.788267 0.455495
    outer loop
      vertex 1.70712 -2.47319 -2
      vertex 1.70285 -2.47544 -2
      vertex 2.2927 -3.32155 -4.44089e-16
    endloop
  endfacet
  facet normal -0.413715 0.788267 0.455495
    outer loop
      vertex 2.2927 -3.32155 -4.44089e-16
      vertex 1.70285 -2.47544 -2
      vertex 1.43435 -3.77204 -4.44089e-16
    endloop
  endfacet
  facet normal -0.590338 0.666353 0.455495
    outer loop
      vertex 2.29538 -3.31917 -4.44089e-16
      vertex 2.24578 -1.99598 -2
      vertex 2.2927 -3.32155 -4.44089e-16
    endloop
  endfacet
  facet normal -0.590338 0.666353 0.455495
    outer loop
      vertex 2.2927 -3.32155 -4.44089e-16
      vertex 2.24578 -1.99598 -2
      vertex 1.70712 -2.47319 -2
    endloop
  endfacet
  facet normal -0.590337 0.666353 0.455495
    outer loop
      vertex 3.02097 -2.67635 -4.44089e-16
      vertex 2.24939 -1.99279 -2
      vertex 2.29538 -3.31917 -4.44089e-16
    endloop
  endfacet
  facet normal -0.590337 0.666353 0.455495
    outer loop
      vertex 2.29538 -3.31917 -4.44089e-16
      vertex 2.24939 -1.99279 -2
      vertex 2.24578 -1.99598 -2
    endloop
  endfacet
  facet normal -0.732652 0.505713 0.455495
    outer loop
      vertex 3.02301 -2.6734 -4.44089e-16
      vertex 2.65819 -1.40053 -2
      vertex 3.02097 -2.67635 -4.44089e-16
    endloop
  endfacet
  facet normal -0.732652 0.505713 0.455495
    outer loop
      vertex 3.02097 -2.67635 -4.44089e-16
      vertex 2.65819 -1.40053 -2
      vertex 2.24939 -1.99279 -2
    endloop
  endfacet
  facet normal -0.732651 0.505713 0.455495
    outer loop
      vertex 3.57368 -1.87561 -4.44089e-16
      vertex 2.66093 -1.39657 -2
      vertex 3.02301 -2.6734 -4.44089e-16
    endloop
  endfacet
  facet normal -0.732651 0.505713 0.455495
    outer loop
      vertex 3.02301 -2.6734 -4.44089e-16
      vertex 2.66093 -1.39657 -2
      vertex 2.65819 -1.40053 -2
    endloop
  endfacet
  facet normal -0.832388 0.315682 0.455495
    outer loop
      vertex 3.57495 -1.87227 -4.44089e-16
      vertex 2.91612 -0.72369 -2
      vertex 3.57368 -1.87561 -4.44089e-16
    endloop
  endfacet
  facet normal -0.832388 0.315682 0.455495
    outer loop
      vertex 3.57368 -1.87561 -4.44089e-16
      vertex 2.91612 -0.72369 -2
      vertex 2.66093 -1.39657 -2
    endloop
  endfacet
  facet normal -0.832387 0.315682 0.455495
    outer loop
      vertex 3.9187 -0.965874 -4.44089e-16
      vertex 2.91783 -0.71918 -2
      vertex 3.57495 -1.87227 -4.44089e-16
    endloop
  endfacet
  facet normal -0.832387 0.315682 0.455495
    outer loop
      vertex 3.57495 -1.87227 -4.44089e-16
      vertex 2.91783 -0.71918 -2
      vertex 2.91612 -0.72369 -2
    endloop
  endfacet
  facet normal -0.883747 0.107307 0.455495
    outer loop
      vertex 3.91913 -0.962319 -4.44089e-16
      vertex 3.00457 -0.00478766 -2
      vertex 3.9187 -0.965874 -4.44089e-16
    endloop
  endfacet
  facet normal -0.883747 0.107307 0.455495
    outer loop
      vertex 3.9187 -0.965874 -4.44089e-16
      vertex 3.00457 -0.00478766 -2
      vertex 2.91783 -0.71918 -2
    endloop
  endfacet
  facet normal -0.883748 0.107306 0.455495
    outer loop
      vertex 4.03598 0 -4.44089e-16
      vertex 3.00515 0 -2
      vertex 3.91913 -0.962319 -4.44089e-16
    endloop
  endfacet
  facet normal -0.883748 0.107306 0.455495
    outer loop
      vertex 3.91913 -0.962319 -4.44089e-16
      vertex 3.00515 0 -2
      vertex 3.00457 -0.00478766 -2
    endloop
  endfacet
  facet normal -0.883748 -0.107307 0.455495
    outer loop
      vertex 4.03598 0 -4.44089e-16
      vertex 4.03555 0.00355419 -4.44089e-16
      vertex 3.00515 0 -2
    endloop
  endfacet
  facet normal -0.883748 -0.107307 0.455495
    outer loop
      vertex 3.00515 0 -2
      vertex 4.03555 0.00355419 -4.44089e-16
      vertex 2.91841 0.714393 -2
    endloop
  endfacet
  facet normal -0.883747 -0.107306 0.455495
    outer loop
      vertex 4.03555 0.00355419 -4.44089e-16
      vertex 3.9187 0.965874 -4.44089e-16
      vertex 2.91841 0.714393 -2
    endloop
  endfacet
  facet normal -0.883747 -0.107306 0.455495
    outer loop
      vertex 2.91841 0.714393 -2
      vertex 3.9187 0.965874 -4.44089e-16
      vertex 2.91783 0.71918 -2
    endloop
  endfacet
  facet normal -0.832387 -0.315682 0.455495
    outer loop
      vertex 3.9187 0.965874 -4.44089e-16
      vertex 3.91743 0.969221 -4.44089e-16
      vertex 2.91783 0.71918 -2
    endloop
  endfacet
  facet normal -0.832387 -0.315682 0.455495
    outer loop
      vertex 2.91783 0.71918 -2
      vertex 3.91743 0.969221 -4.44089e-16
      vertex 2.66264 1.39206 -2
    endloop
  endfacet
  facet normal -0.832387 -0.315682 0.455495
    outer loop
      vertex 3.91743 0.969221 -4.44089e-16
      vertex 3.57368 1.87561 -4.44089e-16
      vertex 2.66264 1.39206 -2
    endloop
  endfacet
  facet normal -0.832387 -0.315682 0.455495
    outer loop
      vertex 2.66264 1.39206 -2
      vertex 3.57368 1.87561 -4.44089e-16
      vertex 2.66093 1.39657 -2
    endloop
  endfacet
  facet normal -0.732652 -0.505713 0.455495
    outer loop
      vertex 3.57368 1.87561 -4.44089e-16
      vertex 3.57165 1.87856 -4.44089e-16
      vertex 2.66093 1.39657 -2
    endloop
  endfacet
  facet normal -0.732652 -0.505713 0.455495
    outer loop
      vertex 2.66093 1.39657 -2
      vertex 3.57165 1.87856 -4.44089e-16
      vertex 2.25213 1.98882 -2
    endloop
  endfacet
  facet normal -0.732651 -0.505713 0.455495
    outer loop
      vertex 3.57165 1.87856 -4.44089e-16
      vertex 3.02097 2.67635 -4.44089e-16
      vertex 2.25213 1.98882 -2
    endloop
  endfacet
  facet normal -0.732651 -0.505713 0.455495
    outer loop
      vertex 2.25213 1.98882 -2
      vertex 3.02097 2.67635 -4.44089e-16
      vertex 2.24939 1.99279 -2
    endloop
  endfacet
  facet normal -0.590337 -0.666353 0.455495
    outer loop
      vertex 2.24939 1.99279 -2
      vertex 3.02097 2.67635 -4.44089e-16
      vertex 3.01829 2.67872 -4.44089e-16
    endloop
  endfacet
  facet normal -0.590337 -0.666353 0.455495
    outer loop
      vertex 1.71073 2.47 -2
      vertex 2.24939 1.99279 -2
      vertex 3.01829 2.67872 -4.44089e-16
    endloop
  endfacet
  facet normal -0.590337 -0.666353 0.455495
    outer loop
      vertex 1.71073 2.47 -2
      vertex 3.01829 2.67872 -4.44089e-16
      vertex 2.82037 2.85407 -4.44089e-16
    endloop
  endfacet
  facet normal -0.590337 -0.666353 0.455495
    outer loop
      vertex 1.70712 2.47319 -2
      vertex 1.71073 2.47 -2
      vertex 2.23792 3.24219 -0.187076
    endloop
  endfacet
  facet normal -0.590337 -0.666353 0.455495
    outer loop
      vertex 2.23792 3.24219 -0.187076
      vertex 1.71073 2.47 -2
      vertex 2.82037 2.85407 -4.44089e-16
    endloop
  endfacet
  facet normal -1 0 0
    outer loop
      vertex -17.875 -14 0
      vertex -17.875 29.2396 43.2396
      vertex -17.875 -14 -4.44089e-16
    endloop
  endfacet
  facet normal -1 0 0
    outer loop
      vertex -17.875 -14 -4.44089e-16
      vertex -17.875 29.2396 43.2396
      vertex -17.875 31.9973 40.4819
    endloop
  endfacet
  facet normal -1 0 0
    outer loop
      vertex -17.875 -14 -4.44089e-16
      vertex -17.875 31.9973 40.4819
      vertex -17.875 -8.48457 -4.44089e-16
    endloop
  endfacet
  facet normal 0 -0.707107 -0.707107
    outer loop
      vertex 17.875 -14 0
      vertex -17.875 -14 0
      vertex -17.875 -14 -4.44089e-16
    endloop
  endfacet
  facet normal 0 -0.707107 -0.707107
    outer loop
      vertex 17.875 -14 -4.44089e-16
      vertex 17.875 -14 0
      vertex -17.875 -14 -4.44089e-16
    endloop
  endfacet
  facet normal 1 0 0
    outer loop
      vertex 17.875 29.2396 43.2396
      vertex 17.875 -14 0
      vertex 17.875 -14 -4.44089e-16
    endloop
  endfacet
  facet normal 1 0 0
    outer loop
      vertex 17.875 31.9973 40.4819
      vertex 17.875 29.2396 43.2396
      vertex 17.875 -8.48457 -4.44089e-16
    endloop
  endfacet
  facet normal 1 0 0
    outer loop
      vertex 17.875 -8.48457 -4.44089e-16
      vertex 17.875 29.2396 43.2396
      vertex 17.875 -14 -4.44089e-16
    endloop
  endfacet
  facet normal 0 0.707107 -0.707107
    outer loop
      vertex -17.875 -8.48457 -4.44089e-16
      vertex -17.875 31.9973 40.4819
      vertex -15.875 -8.48457 -4.44089e-16
    endloop
  endfacet
  facet normal 0 0.707107 -0.707107
    outer loop
      vertex 15.875 30.5831 39.0676
      vertex -17.875 31.9973 40.4819
      vertex 17.875 31.9973 40.4819
    endloop
  endfacet
  facet normal 0 0.707107 -0.707107
    outer loop
      vertex 15.875 -8.48457 -4.44089e-16
      vertex 17.875 31.9973 40.4819
      vertex 17.875 -8.48457 -4.44089e-16
    endloop
  endfacet
  facet normal 0 0.707107 -0.707107
    outer loop
      vertex -15.875 30.5831 39.0676
      vertex -17.875 31.9973 40.4819
      vertex 15.875 30.5831 39.0676
    endloop
  endfacet
  facet normal 0 0.707107 -0.707107
    outer loop
      vertex -15.875 -8.48457 -4.44089e-16
      vertex -17.875 31.9973 40.4819
      vertex -15.875 30.5831 39.0676
    endloop
  endfacet
  facet normal 0 0.707107 -0.707107
    outer loop
      vertex 15.875 30.5831 39.0676
      vertex 17.875 31.9973 40.4819
      vertex 15.875 -8.48457 -4.44089e-16
    endloop
  endfacet
  facet normal -1 0 0
    outer loop
      vertex 15.875 30.5831 39.0676
      vertex 15.875 -8.48457 -4.44089e-16
      vertex 15.875 29.236 40.4147
    endloop
  endfacet
  facet normal -1 0 0
    outer loop
      vertex 15.875 -9.82453 -1.34704
      vertex 15.875 -8.48457 -4.44089e-16
      vertex 15.875 -8.4775 -4.44089e-16
    endloop
  endfacet
  facet normal -1 0 0
    outer loop
      vertex 15.875 29.236 40.4147
      vertex 15.875 -8.48457 -4.44089e-16
      vertex 15.875 -9.82453 -1.34704
    endloop
  endfacet
  facet normal -1 0 0
    outer loop
      vertex 15.875 29.236 40.4147
      vertex 15.875 -9.82453 -1.34704
      vertex 15.875 -11.1751 0.00353553
    endloop
  endfacet
  facet normal 0 -0.707107 0.707107
    outer loop
      vertex 15.875 -9.82453 -1.34704
      vertex 15.875 -8.4775 -4.44089e-16
      vertex -15.875 -8.4775 -4.44089e-16
    endloop
  endfacet
  facet normal 0 -0.707107 0.707107
    outer loop
      vertex -15.875 -9.82453 -1.34704
      vertex 15.875 -9.82453 -1.34704
      vertex -15.875 -8.4775 -4.44089e-16
    endloop
  endfacet
  facet normal 1 0 0
    outer loop
      vertex -15.875 -9.82453 -1.34704
      vertex -15.875 -8.4775 -4.44089e-16
      vertex -15.875 -8.48457 -4.44089e-16
    endloop
  endfacet
  facet normal 1 0 0
    outer loop
      vertex -15.875 29.236 40.4147
      vertex -15.875 -9.82453 -1.34704
      vertex -15.875 -8.48457 -4.44089e-16
    endloop
  endfacet
  facet normal 1 0 0
    outer loop
      vertex -15.875 30.5831 39.0676
      vertex -15.875 29.236 40.4147
      vertex -15.875 -8.48457 -4.44089e-16
    endloop
  endfacet
  facet normal 1 0 0
    outer loop
      vertex -15.875 29.236 40.4147
      vertex -15.875 -11.1751 0.00353553
      vertex -15.875 -9.82453 -1.34704
    endloop
  endfacet
  facet normal 0 -1 0
    outer loop
      vertex 58.5 9.99 -2.01556
      vertex 58.5 9.99 -6.68444
      vertex 60 9.99 -4.35
    endloop
  endfacet
  facet normal 0.590338 -0.666353 0.455495
    outer loop
      vertex -2.24578 1.99598 -2
      vertex -1.70712 2.47319 -2
      vertex -2.23792 3.24219 -0.187076
    endloop
  endfacet
  facet normal 0.590338 -0.666353 0.455495
    outer loop
      vertex -2.29116 3.20672 -0.169977
      vertex -2.24578 1.99598 -2
      vertex -2.23792 3.24219 -0.187076
    endloop
  endfacet
  facet normal 0.413715 -0.788267 0.455495
    outer loop
      vertex -1.70712 2.47319 -2
      vertex -1.70285 2.47544 -2
      vertex -1.47961 3.55349 -0.337121
    endloop
  endfacet
  facet normal 0.413715 -0.788267 0.455495
    outer loop
      vertex -2.23792 3.24219 -0.187076
      vertex -1.70712 2.47319 -2
      vertex -1.47961 3.55349 -0.337121
    endloop
  endfacet
  facet normal 0.413715 -0.788267 0.455495
    outer loop
      vertex -1.06564 2.80987 -2
      vertex -1.36543 3.60035 -0.359712
      vertex -1.47961 3.55349 -0.337121
    endloop
  endfacet
  facet normal 0.413715 -0.788267 0.455495
    outer loop
      vertex -1.70285 2.47544 -2
      vertex -1.06564 2.80987 -2
      vertex -1.47961 3.55349 -0.337121
    endloop
  endfacet
  facet normal 0.213048 -0.86437 0.455495
    outer loop
      vertex -1.06564 2.80987 -2
      vertex -1.06096 2.81102 -2
      vertex -0.61301 3.74825 -0.430997
    endloop
  endfacet
  facet normal 0.213048 -0.86437 0.455495
    outer loop
      vertex -1.36543 3.60035 -0.359712
      vertex -1.06564 2.80987 -2
      vertex -0.61301 3.74825 -0.430997
    endloop
  endfacet
  facet normal 0.213048 -0.86437 0.455495
    outer loop
      vertex -0.362231 2.98324 -2
      vertex -0.4588 3.77856 -0.445607
      vertex -0.61301 3.74825 -0.430997
    endloop
  endfacet
  facet normal 0.213048 -0.86437 0.455495
    outer loop
      vertex -1.06096 2.81102 -2
      vertex -0.362231 2.98324 -2
      vertex -0.61301 3.74825 -0.430997
    endloop
  endfacet
  facet normal 0 -0.890238 0.455495
    outer loop
      vertex -0.362231 2.98324 -2
      vertex 0.362231 2.98324 -2
      vertex 0.4588 3.77856 -0.445607
    endloop
  endfacet
  facet normal 0 -0.890238 0.455495
    outer loop
      vertex -0.4588 3.77856 -0.445607
      vertex -0.362231 2.98324 -2
      vertex 0.4588 3.77856 -0.445607
    endloop
  endfacet
  facet normal -0.213048 -0.86437 0.455495
    outer loop
      vertex 0.366914 2.98209 -2
      vertex 1.23011 3.62695 -0.372533
      vertex 0.4588 3.77856 -0.445607
    endloop
  endfacet
  facet normal -0.213048 -0.86437 0.455495
    outer loop
      vertex 0.362231 2.98324 -2
      vertex 0.366914 2.98209 -2
      vertex 0.4588 3.77856 -0.445607
    endloop
  endfacet
  facet normal -0.213048 -0.86437 0.455495
    outer loop
      vertex 1.06564 2.80987 -2
      vertex 1.36543 3.60035 -0.359712
      vertex 1.23011 3.62695 -0.372533
    endloop
  endfacet
  facet normal -0.213048 -0.86437 0.455495
    outer loop
      vertex 0.366914 2.98209 -2
      vertex 1.06564 2.80987 -2
      vertex 1.23011 3.62695 -0.372533
    endloop
  endfacet
  facet normal -0.413715 -0.788267 0.455495
    outer loop
      vertex 1.06991 2.80763 -2
      vertex 2.16687 3.27136 -0.201135
      vertex 1.36543 3.60035 -0.359712
    endloop
  endfacet
  facet normal -0.413715 -0.788267 0.455495
    outer loop
      vertex 1.06564 2.80987 -2
      vertex 1.06991 2.80763 -2
      vertex 1.36543 3.60035 -0.359712
    endloop
  endfacet
  facet normal -0.413715 -0.788267 0.455495
    outer loop
      vertex 1.70712 2.47319 -2
      vertex 2.23792 3.24219 -0.187076
      vertex 2.16687 3.27136 -0.201135
    endloop
  endfacet
  facet normal -0.413715 -0.788267 0.455495
    outer loop
      vertex 1.06991 2.80763 -2
      vertex 1.70712 2.47319 -2
      vertex 2.16687 3.27136 -0.201135
    endloop
  endfacet
  facet normal 0 -1 0
    outer loop
      vertex -58.5 9.99 -6.68444
      vertex -58.5 9.99 -2.01556
      vertex -60 9.99 -4.35
    endloop
  endfacet
  facet normal 0 0.707107 0.707107
    outer loop
      vertex -17.875 29.2396 43.2396
      vertex 17.875 29.2396 43.2396
      vertex -17.875 31.9973 40.4819
    endloop
  endfacet
  facet normal 0 0.707107 0.707107
    outer loop
      vertex -17.875 31.9973 40.4819
      vertex 17.875 29.2396 43.2396
      vertex 17.875 31.9973 40.4819
    endloop
  endfacet
  facet normal 0 -0.707107 0.707107
    outer loop
      vertex -17.875 29.2396 43.2396
      vertex -17.875 -14 0
      vertex 17.875 -14 0
    endloop
  endfacet
  facet normal 0 -0.707107 0.707107
    outer loop
      vertex 17.875 29.2396 43.2396
      vertex -17.875 29.2396 43.2396
      vertex 17.875 -14 0
    endloop
  endfacet
  facet normal 0 -0.707107 -0.707107
    outer loop
      vertex -15.875 30.5831 39.0676
      vertex 15.875 30.5831 39.0676
      vertex 15.875 29.236 40.4147
    endloop
  endfacet
  facet normal 0 -0.707107 -0.707107
    outer loop
      vertex -15.875 29.236 40.4147
      vertex -15.875 30.5831 39.0676
      vertex 15.875 29.236 40.4147
    endloop
  endfacet
  facet normal 0 0.707107 -0.707107
    outer loop
      vertex 15.875 29.236 40.4147
      vertex 15.875 -11.1751 0.00353553
      vertex -15.875 29.236 40.4147
    endloop
  endfacet
  facet normal 0 0.707107 -0.707107
    outer loop
      vertex -15.875 29.236 40.4147
      vertex 15.875 -11.1751 0.00353553
      vertex -15.875 -11.1751 0.00353553
    endloop
  endfacet
  facet normal 0 0.707107 0.707107
    outer loop
      vertex 15.875 -9.82453 -1.34704
      vertex -15.875 -9.82453 -1.34704
      vertex 15.875 -11.1751 0.00353553
    endloop
  endfacet
  facet normal 0 0.707107 0.707107
    outer loop
      vertex 15.875 -11.1751 0.00353553
      vertex -15.875 -9.82453 -1.34704
      vertex -15.875 -11.1751 0.00353553
    endloop
  endfacet
endsolid OpenSCAD_Model
